{
.appVersion = "3217";
.formatVersion = 3;
axes = (
{
name = Weight;
tag = wght;
},
{
name = Width;
tag = wdth;
}
);
classes = (
{
automatic = 1;
code = "A Aacute Abreve Acircumflex Adieresis Agrave Amacron Aogonek Aring Atilde AE B C Cacute Ccaron Ccedilla D Eth Dcaron Dcroat E Eacute Ecaron Ecircumflex Edieresis Edotaccent Egrave Emacron Eogonek F G Gbreve Gcommaaccent H I Iacute Icircumflex Idieresis Idotaccent Igrave Imacron Iogonek J K Kcommaaccent L Lacute Lcaron Lcommaaccent Lslash M N Nacute Ncaron Ncommaaccent Ntilde O Oacute Ocircumflex Odieresis Ograve Ohungarumlaut Omacron Oslash Otilde OE P Thorn Q R Racute Rcaron Rcommaaccent S Sacute Scaron Scedilla Scommaaccent Germandbls T Tcaron Tcedilla Tcommaaccent U Uacute Ucircumflex Udieresis Ugrave Uhungarumlaut Umacron Uogonek Uring V W X Y Yacute Ydieresis Z Zacute Zcaron Zdotaccent T_b.liga T_h.liga T_k.liga T_l.liga";
name = Uppercase;
}
);
customParameters = (
{
name = fsType;
value = (
);
},
{
name = "Use Typo Metrics";
value = 1;
},
{
name = unicodeRanges;
value = (
0,
1,
2
);
}
);
date = "2018-11-03 16:13:45 +0000";
familyName = Halibut;
featurePrefixes = (
{
automatic = 1;
code = "languagesystem DFLT dflt;

languagesystem latn dflt;
languagesystem latn AZE;
languagesystem latn CRT;
languagesystem latn KAZ;
languagesystem latn TAT;
languagesystem latn TRK;
languagesystem latn ROM;
languagesystem latn MOL;
";
name = Languagesystems;
}
);
features = (
{
automatic = 1;
code = "feature locl;
feature sups;
feature frac;
feature ordn;
feature case;
";
tag = aalt;
},
{
automatic = 1;
code = "lookup ccmp_Other_1 {
	@CombiningTopAccents = [acutecomb brevecomb caroncomb circumflexcomb commaturnedabovecomb dieresiscomb dotaccentcomb gravecomb hungarumlautcomb macroncomb ringcomb tildecomb];
	lookupflag UseMarkFilteringSet @CombiningTopAccents;
	sub i' @CombiningTopAccents by idotless;
	sub j' @CombiningTopAccents by jdotless;
} ccmp_Other_1;

lookup ccmp_Other_2 {

glyphs = (
{
glyphname = A;
kernLeft = A;
kernRight = A;
layers = (
{
anchors = (
{
name = bottom;
pos = (414,0);
},
{
name = ogonek;
pos = (726,10);
},
{
name = top;
pos = (398,600);
}
);
layerId = "0CCC0E2D-406A-4672-8E6C-854B1DF78A27";
shapes = (
{
closed = 1;
nodes = (
(650,223,l),
(177,223,l),
(177,193,l),
(650,193,l)
);
},
{
closed = 1;
nodes = (
(720,50,l),
(530,8,l),
(532,0,l),
(878,0,l),
(880,8,l),
(760,50,l),
(423,600,l),
(206,600,l),
(204,592,l),
(370,552,l),
(70,49,l),
(-50,7,l),
(-48,-1,l),
(290,-1,l),
(292,7,l),
(107,49,l),
(417,572,l),
(404,572,l)
);
}
);
width = 830;
},
{
anchors = (
{
name = bottom;
pos = (402,0);
},
{
name = ogonek;
pos = (714,10);
},
{
name = top;
pos = (386,600);
}
);
layerId = m002;
shapes = (
{
closed = 1;
nodes = (
(638,231,l),
(161,231,l),
(161,185,l),
(638,185,l)
);
},
{
closed = 1;
nodes = (
(671,50,l),
(481,8,l),
(483,0,l),
(912,0,l),
(914,8,l),
(794,50,l),
(452,600,l),
(174,600,l),
(172,592,l),
(338,552,l),
(38,49,l),
(-82,8,l),
(-80,0,l),
(286,0,l),
(288,8,l),
(103,49,l),
(410,572,l),
(363,572,l)
);
}
);
width = 848;
},
{
anchors = (
{
name = bottom;
pos = (247,0);
},
{
name = ogonek;
pos = (408,10);
},
{
name = top;
pos = (228,600);
}
);
layerId = m003;
shapes = (
{
closed = 1;
nodes = (
(385,227,l),
(116,227,l),
(116,190,l),
(385,190,l)
);
},
{
closed = 1;
nodes = (
(384,45,l),
(264,8,l),
(266,0,l),
(538,0,l),
(540,8,l),
(470,45,l),
(283,600,l),
(103,600,l),
(101,592,l),
(210,555,l),
(37,44,l),
(-33,8,l),
(-31,0,l),
(206,0,l),
(208,8,l),
(88,44,l),
(260,572,l),
(225,572,l)
);
}
);
width = 540;
},
{
anchors = (
{
name = bottom;
pos = (246,0);
},
{
name = ogonek;
pos = (407,10);
},
{
name = top;
pos = (242,600);
}
);
layerId = "2C26E880-80A5-4D19-8A94-7D905A372841";
shapes = (
{
closed = 1;
nodes = (
(372,224,l),
(119,224,l),
(119,194,l),
(372,194,l)
);
},
{
closed = 1;
nodes = (
(407,45,l),
(287,8,l),
(289,0,l),
(510,0,l),
(512,8,l),
(442,45,l),
(260,600,l),
(116,600,l),
(114,592,l),
(223,555,l),
(50,45,l),
(-20,8,l),
(-18,0,l),
(204,0,l),
(206,8,l),
(86,45,l),
(259,572,l),
(237,572,l)
);
}
);
width = 492;
}
);
unicode = 65;
},
{
glyphname = AE;
kernLeft = A;
kernRight = E;
layers = (
{
anchors = (
{
name = top;
pos = (742,600);
}
);
layerId = "0CCC0E2D-406A-4672-8E6C-854B1DF78A27";
shapes = (
{
closed = 1;
nodes = (
(627,572,l),
(595,585,l),
(595,50,l),
(405,8,l),
(407,0,l),
(1174,0,l),
(1153,199,l),
(1145,197,l),
(1104,24,l),
(632,25,l),
(632,282,l),
(922,279,l),
(987,157,l),
(995,159,l),
(976,293,l),
(993,428,l),
(985,430,l),
(922,308,l),
(632,305,l),
(632,577,l),
(1100,581,l),
(1124,422,l),
(1132,420,l),
(1171,612,l),
(415,600,l),
(413,592,l),
(611,544,l),
(599,587,l),
(70,49,l),
(-50,7,l),
(-48,-1,l),
(285,-1,l),
(287,7,l),
(112,49,l)
);
},
{
closed = 1;
nodes = (
(230,193,l),
(610,193,l),
(610,223,l),
(267,223,l)
);
}
);
width = 1234;
},
{
anchors = (
{
name = top;
pos = (772,600);
}
);
layerId = m002;
shapes = (
{
closed = 1;
nodes = (
(629,577,l),
(597,590,l),
(597,55,l),
(454,5,l),
(456,0,l),
(1225,0,l),
(1207,232,l),
(1201,230,l),
(1141,57,l),
(693,42,l),
(693,270,l),
(986,267,l),
(1051,145,l),
(1059,147,l),
(1040,293,l),
(1057,440,l),
(1049,442,l),
(986,320,l),
(695,314,l),
(695,559,l),
(1156,551,l),
(1182,392,l),
(1188,390,l),
(1243,612,l),
(374,601,l),
(378,595,l),
(570,549,l),
(587,595,l),
(38,56,l),
(-82,7,l),
(-80,0,l),
(272,0,l),
(274,7,l),
(122,56,l)
);
},
{
closed = 1;
nodes = (
(192,172,l),
(624,172,l),
(624,217,l),
(234,217,l)
);
}
);
width = 1303;
},
{
anchors = (
{
name = top;
pos = (472,600);
}
);
layerId = m003;
shapes = (
{
closed = 1;
nodes = (
(397,560,l),
(378,564,l),
(385,45,l),
(268,8,l),
(270,0,l),
(728,0,l),
(707,219,l),
(699,217,l),
(651,43,l),
(464,33,l),
(460,275,l),
(537,273,l),
(597,151,l),
(605,153,l),
(586,293,l),
(603,435,l),
(595,437,l),
(537,315,l),
(459,313,l),
(456,570,l),
(647,564,l),
(678,403,l),
(686,401,l),
(725,612,l),
(229,600,l),
(227,592,l),
(373,549,l),
(367,598,l),
(37,44,l),
(-33,8,l),
(-31,0,l),
(212,0,l),
(214,8,l),
(94,44,l)
);
},
{
closed = 1;
nodes = (
(154,188,l),
(430,188,l),
(430,225,l),
(176,225,l)
);
}
);
width = 776;
},
{
anchors = (
{
name = top;
pos = (422,600);
}
);
layerId = "2C26E880-80A5-4D19-8A94-7D905A372841";
shapes = (
{
closed = 1;
nodes = (
(396,575,l),
(373,575,l),
(373,45,l),
(243,10,l),
(245,0,l),
(675,0,l),
(654,198,l),
(646,196,l),
(609,30,l),
(408,25,l),
(408,279,l),
(507,279,l),
(567,156,l),
(575,158,l),
(556,292,l),
(573,429,l),
(565,433,l),
(507,309,l),
(408,309,l),
(408,579,l),
(605,575,l),
(625,423,l),
(633,421,l),
(672,612,l),
(247,600,l),
(245,592,l),
(366,554,l),
(355,574,l),
(50,44,l),
(-20,9,l),
(-18,0,l),
(206,0,l),
(208,9,l),
(88,44,l)
);
},
{
closed = 1;
nodes = (
(159,202,l),
(395,202,l),
(395,232,l),
(178,232,l)
);
}
);
width = 735;
}
);
metricLeft = A;
metricRight = E;
unicode = 198;
},
{
glyphname = B;
kernLeft = H;
kernRight = B;
layers = (
{
anchors = (
{
name = bottom;
pos = (484,0);
},
{
name = center;
pos = (484,300);
},
{
name = top;
pos = (445,600);
}
);
guides = (
{
angle = 270;
pos = (572,293);
}
);
layerId = "0CCC0E2D-406A-4672-8E6C-854B1DF78A27";
shapes = (
{
closed = 1;
nodes = (
(32,0,l),
(513,1,ls),
(770,2,o),
(881,56,o),
(881,165,cs),
(881,262,o),
(786,307,o),
(609,312,c),
(613,303,l),
(774,316,o),
(846,369,o),
(846,454,cs),
(846,551,o),
(745,600,o),
(513,600,cs),
(32,600,l),
(30,597,l),
(180,550,l),
(180,50,l),
(30,3,l)
);
},
{
closed = 1;
nodes = (
(217,291,l),
(503,291,ls),
(738,291,o),
(844,248,o),
(844,160,cs),
(844,73,o),
(740,28,o),
(533,33,cs),
(217,40,l)
);
},
{
closed = 1;
nodes = (
(217,572,l),
(503,576,ls),
(711,579,o),
(809,536,o),
(809,450,cs),
(809,365,o),
(714,321,o),
(513,321,cs),
(217,321,l)
);
}
);
width = 941;
},
{
associatedMasterId = "0CCC0E2D-406A-4672-8E6C-854B1DF78A27";
guides = (
{
angle = 270;
pos = (606,293);
}
);
layerId = "50E6EA7B-AFCA-42BE-AA86-BD03D217D714";
name = "Mar 27 18, 20:39";
shapes = (
{
closed = 1;
nodes = (
(42,0,l),
(265,0,l),
(265,50,l),
(266,550,l),
(265,600,l),
(42,600,l),
(40,597,l),
(190,550,l),
(190,50,l),
(40,3,l)
);
},
{
closed = 1;
nodes = (
(527,288,ls),
(761,288,o),
(876,265,o),
(876,154,cs),
(876,69,o),
(768,41,o),
(547,41,c),
(226,40,l),
(226,0,l),
(557,1,ls),
(825,2,o),
(956,57,o),
(956,167,cs),
(956,272,o),
(825,323,o),
(557,323,cs),
(211,323,l),
(211,288,l)
);
},
{
closed = 1;
nodes = (
(527,570,l),
(738,569,o),
(841,536,o),
(841,441,cs),
(841,361,o),
(741,322,o),
(536,322,c),
(560,309,l),
(787,300,o),
(921,355,o),
(921,456,cs),
(921,547,o),
(786,600,o),
(557,600,cs),
(211,600,l),
(211,560,l)
);
}
);
width = 1006;
},
{
associatedMasterId = "0CCC0E2D-406A-4672-8E6C-854B1DF78A27";
guides = (
{
angle = 270;
pos = (606,293);
}
);
layerId = "39A7403D-D5F7-476E-B4DD-AC7E852F258F";
name = "Mar 27 18, 20:39";
shapes = (
{
closed = 1;
nodes = (
(42,0,l),
(265,0,l),
(265,50,l),
(266,550,l),
(265,600,l),
(42,600,l),
(40,597,l),
(190,550,l),
(190,50,l),
(40,3,l)
);
},
{
closed = 1;
nodes = (
(527,288,ls),
(761,288,o),
(876,265,o),
(876,154,cs),
(876,69,o),
(768,41,o),
(547,41,c),
(226,40,l),
(226,0,l),
(557,1,ls),
(825,2,o),
(956,57,o),
(956,167,cs),
(956,272,o),
(825,323,o),
(557,323,cs),
(211,323,l),
(211,288,l)
);
},
{
closed = 1;
nodes = (
(527,570,l),
(738,569,o),
(841,536,o),
(841,441,cs),
(841,361,o),
(741,322,o),
(536,322,c),
(560,309,l),
(787,300,o),
(921,355,o),
(921,456,cs),
(921,547,o),
(786,600,o),
(557,600,cs),
(211,600,l),
(211,560,l)
);
}
);
width = 1006;
},
{
anchors = (
{
name = bottom;
pos = (413,0);
},
{
name = center;
pos = (413,300);
},
{
name = top;
pos = (374,600);
}
);
guides = (
{
angle = 270;
pos = (526,293);
}
);
layerId = m002;
shapes = (
{
closed = 1;
nodes = (
(16,0,l),
(426,1,ls),
(724,2,o),
(873,49,o),
(873,173,cs),
(873,256,o),
(771,323,o),
(553,328,c),
(557,311,l),
(703,322,o),
(838,388,o),
(838,462,cs),
(838,559,o),
(717,600,o),
(457,600,cs),
(16,600,l),
(14,589,l),
(164,550,l),
(164,50,l),
(14,11,l)
);
},
{
closed = 1;
nodes = (
(260,283,l),
(416,283,ls),
(696,283,o),
(762,259,o),
(762,152,cs),
(762,102,o),
(690,33,o),
(477,44,cs),
(260,56,l)
);
},
{
closed = 1;
nodes = (
(262,556,l),
(416,560,ls),
(659,566,o),
(727,535,o),
(727,442,cs),
(727,389,o),
(642,329,o),
(457,329,cs),
(262,329,l)
);
}
);
width = 917;
},
{
associatedMasterId = m002;
guides = (
{
angle = 270;
pos = (606,293);
}
);
layerId = "43B2A580-BF78-4B03-8168-D5052E8B1B5D";
name = "Mar 27 18, 20:39";
shapes = (
{
closed = 1;
nodes = (
(42,0,l),
(265,0,l),
(265,50,l),
(266,550,l),
(265,600,l),
(42,600,l),
(40,597,l),
(190,550,l),
(190,50,l),
(40,3,l)
);
},
{
closed = 1;
nodes = (
(527,288,ls),
(761,288,o),
(876,265,o),
(876,154,cs),
(876,69,o),
(768,41,o),
(547,41,c),
(226,40,l),
(226,0,l),
(557,1,ls),
(825,2,o),
(956,57,o),
(956,167,cs),
(956,272,o),
(825,323,o),
(557,323,cs),
(211,323,l),
(211,288,l)
);
},
{
closed = 1;
nodes = (
(527,570,l),
(738,569,o),
(841,536,o),
(841,441,cs),
(841,361,o),
(741,322,o),
(536,322,c),
(560,309,l),
(787,300,o),
(921,355,o),
(921,456,cs),
(921,547,o),
(786,600,o),
(557,600,cs),
(211,600,l),
(211,560,l)
);
}
);
width = 1006;
},
{
associatedMasterId = m002;
guides = (
{
angle = 270;
pos = (606,293);
}
);
layerId = "D68D85A3-5241-4F0D-B719-64BDAE41CD07";
name = "Mar 27 18, 20:39";
shapes = (
{
closed = 1;
nodes = (
(42,0,l),
(265,0,l),
(265,50,l),
(266,550,l),
(265,600,l),
(42,600,l),
(40,597,l),
(190,550,l),
(190,50,l),
(40,3,l)
);
},
{
closed = 1;
nodes = (
(527,288,ls),
(761,288,o),
(876,265,o),
(876,154,cs),
(876,69,o),
(768,41,o),
(547,41,c),
(226,40,l),
(226,0,l),
(557,1,ls),
(825,2,o),
(956,57,o),
(956,167,cs),
(956,272,o),
(825,323,o),
(557,323,cs),
(211,323,l),
(211,288,l)
);
},
{
closed = 1;
nodes = (
(527,570,l),
(738,569,o),
(841,536,o),
(841,441,cs),
(841,361,o),
(741,322,o),
(536,322,c),
(560,309,l),
(787,300,o),
(921,355,o),
(921,456,cs),
(921,547,o),
(786,600,o),
(557,600,cs),
(211,600,l),
(211,560,l)
);
}
);
width = 1006;
},
{
anchors = (
{
name = bottom;
pos = (303,0);
},
{
name = center;
pos = (303,300);
},
{
name = top;
pos = (264,600);
}
);
guides = (
{
angle = 270;
pos = (401,293);
}
);
layerId = m003;
shapes = (
{
closed = 1;
nodes = (
(10,0,l),
(251,1,ls),
(396,2,o),
(482,67,o),
(482,181,cs),
(482,260,o),
(415,330,o),
(312,334,c),
(319,319,l),
(391,330,o),
(437,391,o),
(437,465,cs),
(437,548,o),
(374,600,o),
(266,600,cs),
(10,600,l),
(8,591,l),
(118,555,l),
(118,46,l),
(8,9,l)
);
},
{
closed = 1;
nodes = (
(197,297,l),
(232,297,ls),
(329,297,o),
(397,238,o),
(397,164,cs),
(397,78,o),
(347,35,o),
(266,41,cs),
(197,46,l)
);
},
{
closed = 1;
nodes = (
(198,567,l),
(232,570,ls),
(303,576,o),
(352,526,o),
(352,449,cs),
(352,383,o),
(315,334,o),
(266,334,cs),
(198,334,l)
);
}
);
width = 525;
},
{
associatedMasterId = m003;
guides = (
{
angle = 270;
pos = (606,293);
}
);
layerId = "6C02418F-0930-42E1-A8C1-B67EB353634A";
name = "Mar 27 18, 20:39";
shapes = (
{
closed = 1;
nodes = (
(42,0,l),
(265,0,l),
(265,50,l),
(266,550,l),
(265,600,l),
(42,600,l),
(40,597,l),
(190,550,l),
(190,50,l),
(40,3,l)
);
},
{
closed = 1;
nodes = (
(527,288,ls),
(761,288,o),
(876,265,o),
(876,154,cs),
(876,69,o),
(768,41,o),
(547,41,c),
(226,40,l),
(226,0,l),
(557,1,ls),
(825,2,o),
(956,57,o),
(956,167,cs),
(956,272,o),
(825,323,o),
(557,323,cs),
(211,323,l),
(211,288,l)
);
},
{
closed = 1;
nodes = (
(527,570,l),
(738,569,o),
(841,536,o),
(841,441,cs),
(841,361,o),
(741,322,o),
(536,322,c),
(560,309,l),
(787,300,o),
(921,355,o),
(921,456,cs),
(921,547,o),
(786,600,o),
(557,600,cs),
(211,600,l),
(211,560,l)
);
}
);
width = 1006;
},
{
associatedMasterId = m003;
guides = (
{
angle = 270;
pos = (606,293);
}
);
layerId = "1F67A0A9-1E17-4830-886F-1B348A9F3DC0";
name = "Mar 27 18, 20:39";
shapes = (
{
closed = 1;
nodes = (
(42,0,l),
(265,0,l),
(265,50,l),
(266,550,l),
(265,600,l),
(42,600,l),
(40,597,l),
(190,550,l),
(190,50,l),
(40,3,l)
);
},
{
closed = 1;
nodes = (
(527,288,ls),
(761,288,o),
(876,265,o),
(876,154,cs),
(876,69,o),
(768,41,o),
(547,41,c),
(226,40,l),
(226,0,l),
(557,1,ls),
(825,2,o),
(956,57,o),
(956,167,cs),
(956,272,o),
(825,323,o),
(557,323,cs),
(211,323,l),
(211,288,l)
);
},
{
closed = 1;
nodes = (
(527,570,l),
(738,569,o),
(841,536,o),
(841,441,cs),
(841,361,o),
(741,322,o),
(536,322,c),
(560,309,l),
(787,300,o),
(921,355,o),
(921,456,cs),
(921,547,o),
(786,600,o),
(557,600,cs),
(211,600,l),
(211,560,l)
);
}
);
width = 1006;
},
{
anchors = (
{
name = bottom;
pos = (357,0);
},
{
name = center;
pos = (357,300);
},
{
name = top;
pos = (318,600);
}
);
layerId = "2C26E880-80A5-4D19-8A94-7D905A372841";
shapes = (
{
closed = 1;
nodes = (
(22,0,l),
(306,1,ls),
(403,1,o),
(480,78,o),
(480,175,cs),
(480,257,o),
(423,319,o),
(343,323,c),
(337,313,l),
(392,320,o),
(434,383,o),
(434,459,cs),
(434,543,o),
(379,600,o),
(297,600,cs),
(22,600,l),
(20,597,l),
(130,555,l),
(130,46,l),
(20,3,l)
);
},
{
closed = 1;
nodes = (
(165,301,l),
(286,301,ls),
(379,301,o),
(445,248,o),
(445,170,cs),
(445,91,o),
(380,30,o),
(297,32,cs),
(165,35,l)
);
},
{
closed = 1;
nodes = (
(165,569,l),
(286,573,ls),
(351,575,o),
(400,531,o),
(400,455,cs),
(400,383,o),
(356,331,o),
(297,331,cs),
(165,331,l)
);
}
);
width = 510;
}
);
metricLeft = H;
unicode = 66;
},
{
glyphname = C;
kernLeft = O;
kernRight = C;
layers = (
{
anchors = (
{
name = bottom;
pos = (488,0);
},
{
name = top;
pos = (455,600);
}
);
layerId = "0CCC0E2D-406A-4672-8E6C-854B1DF78A27";
shapes = (
{
closed = 1;
nodes = (
(551,593,o),
(671,573,o),
(719,555,c),
(736,378,l),
(744,376,l),
(805,572,l),
(733,597,o),
(595,625,o),
(453,625,cs),
(192,625,o),
(40,502,o),
(40,304,cs),
(40,106,o),
(205,-20,o),
(465,-20,cs),
(600,-20,o),
(708,12,o),
(785,77,c),
(772,97,l),
(703,44,o),
(595,12,o),
(479,12,cs),
(240,12,o),
(78,134,o),
(78,310,cs),
(78,483,o),
(226,593,o),
(450,593,cs)
);
}
);
width = 845;
},
{
associatedMasterId = "0CCC0E2D-406A-4672-8E6C-854B1DF78A27";
layerId = "D1E02D2E-03A9-408A-95E8-8AA71CA27DF5";
name = "Mar 27 18, 21:18";
shapes = (
{
closed = 1;
nodes = (
(735,500,l),
(793,331,l),
(797,329,l),
(819,533,l)
);
},
{
closed = 1;
nodes = (
(792,257,l),
(786,255,l),
(756,102,l),
(819,92,l)
);
},
{
closed = 1;
nodes = (
(819,533,l),
(744,587,o),
(625,625,o),
(504,625,cs),
(232,625,o),
(40,490,o),
(40,299,cs),
(40,112,o),
(214,-20,o),
(475,-20,cs),
(626,-20,o),
(741,16,o),
(819,92,c),
(756,102,l),
(699,48,o),
(623,25,o),
(519,25,cs),
(279,25,o),
(120,149,o),
(120,325,cs),
(120,474,o),
(261,580,o),
(461,580,cs),
(567,580,o),
(668,546,o),
(735,500,c)
);
}
);
width = 869;
},
{
associatedMasterId = "0CCC0E2D-406A-4672-8E6C-854B1DF78A27";
layerId = "2916A66B-B6EE-41CB-B69B-6CA9D5BF9094";
name = "Mar 27 18, 21:18";
shapes = (
{
closed = 1;
nodes = (
(735,500,l),
(793,331,l),
(797,329,l),
(819,533,l)
);
},
{
closed = 1;
nodes = (
(792,257,l),
(786,255,l),
(756,102,l),
(819,92,l)
);
},
{
closed = 1;
nodes = (
(819,533,l),
(744,587,o),
(625,625,o),
(504,625,cs),
(232,625,o),
(40,490,o),
(40,299,cs),
(40,112,o),
(214,-20,o),
(475,-20,cs),
(626,-20,o),
(741,16,o),
(819,92,c),
(756,102,l),
(699,48,o),
(623,25,o),
(519,25,cs),
(279,25,o),
(120,149,o),
(120,325,cs),
(120,474,o),
(261,580,o),
(461,580,cs),
(567,580,o),
(668,546,o),
(735,500,c)
);
}
);
width = 869;
},
{
anchors = (
{
name = bottom;
pos = (518,0);
},
{
name = top;
pos = (485,600);
}
);
layerId = m002;
shapes = (
{
closed = 1;
nodes = (
(564,573,o),
(678,552,o),
(765,519,c),
(782,358,l),
(790,356,l),
(851,576,l),
(757,606,o),
(625,625,o),
(516,625,cs),
(230,625,o),
(24,487,o),
(24,296,cs),
(24,113,o),
(217,-20,o),
(481,-20,cs),
(622,-20,o),
(739,19,o),
(831,98,c),
(818,112,l),
(758,62,o),
(663,32,o),
(541,32,cs),
(290,32,o),
(127,144,o),
(127,318,cs),
(127,476,o),
(257,573,o),
(467,573,cs)
);
}
);
width = 891;
},
{
associatedMasterId = m002;
layerId = "D37FF26B-FFFA-4513-93F2-92C6E84B81F6";
name = "Mar 27 18, 21:18";
shapes = (
{
closed = 1;
nodes = (
(735,500,l),
(793,331,l),
(797,329,l),
(819,533,l)
);
},
{
closed = 1;
nodes = (
(792,257,l),
(786,255,l),
(756,102,l),
(819,92,l)
);
},
{
closed = 1;
nodes = (
(819,533,l),
(744,587,o),
(625,625,o),
(504,625,cs),
(232,625,o),
(40,490,o),
(40,299,cs),
(40,112,o),
(214,-20,o),
(475,-20,cs),
(626,-20,o),
(741,16,o),
(819,92,c),
(756,102,l),
(699,48,o),
(623,25,o),
(519,25,cs),
(279,25,o),
(120,149,o),
(120,325,cs),
(120,474,o),
(261,580,o),
(461,580,cs),
(567,580,o),
(668,546,o),
(735,500,c)
);
}
);
width = 869;
},
{
associatedMasterId = m002;
layerId = "C48C7457-2E38-4B7F-9FBF-26AEF6081B3D";
name = "Mar 27 18, 21:18";
shapes = (
{
closed = 1;
nodes = (
(735,500,l),
(793,331,l),
(797,329,l),
(819,533,l)
);
},
{
closed = 1;
nodes = (
(792,257,l),
(786,255,l),
(756,102,l),
(819,92,l)
);
},
{
closed = 1;
nodes = (
(819,533,l),
(744,587,o),
(625,625,o),
(504,625,cs),
(232,625,o),
(40,490,o),
(40,299,cs),
(40,112,o),
(214,-20,o),
(475,-20,cs),
(626,-20,o),
(741,16,o),
(819,92,c),
(756,102,l),
(699,48,o),
(623,25,o),
(519,25,cs),
(279,25,o),
(120,149,o),
(120,325,cs),
(120,474,o),
(261,580,o),
(461,580,cs),
(567,580,o),
(668,546,o),
(735,500,c)
);
}
);
width = 869;
},
{
anchors = (
{
name = bottom;
pos = (273,0);
},
{
name = top;
pos = (242,600);
}
);
layerId = m003;
shapes = (
{
closed = 1;
nodes = (
(316,577,o),
(348,567,o),
(371,556,c),
(388,389,l),
(396,387,l),
(447,592,l),
(384,612,o),
(339,621,o),
(286,621,cs),
(114,621,o),
(26,492,o),
(26,288,cs),
(26,109,o),
(108,-20,o),
(250,-20,cs),
(328,-20,o),
(386,11,o),
(455,94,c),
(443,109,l),
(387,56,o),
(346,37,o),
(291,37,cs),
(178,37,o),
(110,151,o),
(110,306,cs),
(110,474,o),
(169,576,o),
(269,576,cs)
);
}
);
width = 493;
},
{
associatedMasterId = m003;
layerId = "FC68B829-F3AC-46F8-9E26-730E0D21566D";
name = "Mar 27 18, 21:18";
shapes = (
{
closed = 1;
nodes = (
(735,500,l),
(793,331,l),
(797,329,l),
(819,533,l)
);
},
{
closed = 1;
nodes = (
(792,257,l),
(786,255,l),
(756,102,l),
(819,92,l)
);
},
{
closed = 1;
nodes = (
(819,533,l),
(744,587,o),
(625,625,o),
(504,625,cs),
(232,625,o),
(40,490,o),
(40,299,cs),
(40,112,o),
(214,-20,o),
(475,-20,cs),
(626,-20,o),
(741,16,o),
(819,92,c),
(756,102,l),
(699,48,o),
(623,25,o),
(519,25,cs),
(279,25,o),
(120,149,o),
(120,325,cs),
(120,474,o),
(261,580,o),
(461,580,cs),
(567,580,o),
(668,546,o),
(735,500,c)
);
}
);
width = 869;
},
{
associatedMasterId = m003;
layerId = "751F7E29-BE51-41A8-9C31-13288B0E299C";
name = "Mar 27 18, 21:18";
shapes = (
{
closed = 1;
nodes = (
(735,500,l),
(793,331,l),
(797,329,l),
(819,533,l)
);
},
{
closed = 1;
nodes = (
(792,257,l),
(786,255,l),
(756,102,l),
(819,92,l)
);
},
{
closed = 1;
nodes = (
(819,533,l),
(744,587,o),
(625,625,o),
(504,625,cs),
(232,625,o),
(40,490,o),
(40,299,cs),
(40,112,o),
(214,-20,o),
(475,-20,cs),
(626,-20,o),
(741,16,o),
(819,92,c),
(756,102,l),
(699,48,o),
(623,25,o),
(519,25,cs),
(279,25,o),
(120,149,o),
(120,325,cs),
(120,474,o),
(261,580,o),
(461,580,cs),
(567,580,o),
(668,546,o),
(735,500,c)
);
}
);
width = 869;
},
{
anchors = (
{
name = bottom;
pos = (272,0);
},
{
name = top;
pos = (230,600);
}
);
layerId = "2C26E880-80A5-4D19-8A94-7D905A372841";
shapes = (
{
closed = 1;
nodes = (
(283,589,o),
(317,584,o),
(334,577,c),
(351,413,l),
(359,411,l),
(410,589,l),
(375,607,o),
(312,620,o),
(261,620,cs),
(118,620,o),
(45,510,o),
(45,294,cs),
(45,85,o),
(113,-20,o),
(249,-20,cs),
(320,-20,o),
(373,9,o),
(430,78,c),
(414,90,l),
(366,35,o),
(314,8,o),
(255,8,cs),
(141,8,o),
(84,106,o),
(84,300,cs),
(84,495,o),
(139,589,o),
(254,589,cs)
);
}
);
width = 480;
}
);
metricLeft = O;
unicode = 67;
},
{
glyphname = D;
kernLeft = H;
kernRight = O;
layers = (
{
anchors = (
{
name = bottom;
pos = (491,0);
},
{
name = center;
pos = (491,300);
},
{
name = top;
pos = (493,600);
}
);
layerId = "0CCC0E2D-406A-4672-8E6C-854B1DF78A27";
shapes = (
{
closed = 1;
nodes = (
(453,1,ls),
(772,2,o),
(928,93,o),
(928,300,cs),
(928,494,o),
(757,600,o),
(443,600,cs),
(32,600,l),
(30,591,l),
(180,550,l),
(180,50,l),
(30,8,l),
(32,0,l)
);
},
{
closed = 1;
nodes = (
(217,572,l),
(433,572,ls),
(718,572,o),
(887,474,o),
(887,287,cs),
(887,109,o),
(732,32,o),
(463,36,cs),
(217,40,l)
);
}
);
width = 973;
},
{
anchors = (
{
name = bottom;
pos = (511,0);
},
{
name = center;
pos = (511,300);
},
{
name = top;
pos = (513,600);
}
);
layerId = m002;
shapes = (
{
closed = 1;
nodes = (
(441,1,ls),
(809,2,o),
(987,102,o),
(987,300,cs),
(987,505,o),
(819,600,o),
(463,600,cs),
(16,600,l),
(14,591,l),
(164,550,l),
(164,50,l),
(14,8,l),
(16,0,l)
);
},
{
closed = 1;
nodes = (
(262,556,l),
(422,561,ls),
(733,570,o),
(882,474,o),
(882,287,cs),
(882,119,o),
(745,28,o),
(483,43,cs),
(260,56,l)
);
}
);
width = 1016;
},
{
anchors = (
{
name = bottom;
pos = (271,0);
},
{
name = center;
pos = (271,300);
},
{
name = top;
pos = (273,600);
}
);
layerId = m003;
shapes = (
{
closed = 1;
nodes = (
(238,1,ls),
(427,2,o),
(520,101,o),
(520,300,cs),
(520,496,o),
(431,600,o),
(263,600,cs),
(10,600,l),
(8,591,l),
(118,555,l),
(118,45,l),
(8,8,l),
(10,0,l)
);
},
{
closed = 1;
nodes = (
(197,566,l),
(228,568,ls),
(356,576,o),
(432,479,o),
(432,287,cs),
(432,121,o),
(374,42,o),
(253,46,cs),
(196,48,l)
);
}
);
width = 553;
},
{
anchors = (
{
name = bottom;
pos = (258,0);
},
{
name = center;
pos = (258,300);
},
{
name = top;
pos = (260,600);
}
);
layerId = "2C26E880-80A5-4D19-8A94-7D905A372841";
shapes = (
{
closed = 1;
nodes = (
(249,1,ls),
(395,2,o),
(476,109,o),
(476,300,cs),
(476,491,o),
(394,600,o),
(250,600,cs),
(22,600,l),
(20,591,l),
(130,555,l),
(130,45,l),
(20,8,l),
(22,0,l)
);
},
{
closed = 1;
nodes = (
(165,571,l),
(242,571,ls),
(366,571,o),
(440,468,o),
(440,287,cs),
(440,113,o),
(370,24,o),
(240,31,cs),
(165,35,l)
);
}
);
width = 521;
}
);
metricLeft = H;
metricRight = O;
unicode = 68;
},
{
glyphname = Eth;
kernRight = O;
layers = (
{
layerId = "0CCC0E2D-406A-4672-8E6C-854B1DF78A27";
shapes = (
{
closed = 1;
nodes = (
(30,320,l),
(30,280,l),
(406,280,l),
(406,320,l)
);
},
{
pos = (10,0);
ref = D;
}
);
width = 983;
},
{
layerId = m002;
shapes = (
{
closed = 1;
nodes = (
(14,320,l),
(14,280,l),
(468,280,l),
(468,320,l)
);
},
{
ref = D;
}
);
width = 1016;
},
{
layerId = m003;
shapes = (
{
closed = 1;
nodes = (
(30,321,l),
(30,279,l),
(348,279,l),
(348,321,l)
);
},
{
ref = D;
}
);
width = 553;
},
{
layerId = "2C26E880-80A5-4D19-8A94-7D905A372841";
shapes = (
{
closed = 1;
nodes = (
(30,315,l),
(30,285,l),
(290,285,l),
(290,315,l)
);
},
{
alignment = -1;
ref = D;
}
);
width = 521;
}
);
metricLeft = D;
metricRight = D;
unicode = 208;
},
{
glyphname = E;
kernLeft = H;
kernRight = E;
layers = (
{
anchors = (
{
name = bottom;
pos = (474,0);
},
{
name = ogonek;
pos = (736,10);
},
{
name = top;
pos = (471,600);
},
{
name = topleft;
pos = (88,600);
}
);
layerId = "0CCC0E2D-406A-4672-8E6C-854B1DF78A27";
shapes = (
{
closed = 1;
nodes = (
(32,0,l),
(849,0,l),
(828,199,l),
(820,197,l),
(779,34,l),
(217,24,l),
(217,282,l),
(567,279,l),
(632,157,l),
(640,159,l),
(621,293,l),
(638,428,l),
(630,430,l),
(567,309,l),
(217,306,l),
(217,578,l),
(775,575,l),
(799,422,l),
(807,420,l),
(846,612,l),
(32,600,l),
(30,592,l),
(180,550,l),
(180,50,l),
(30,8,l)
);
}
);
width = 909;
},
{
associatedMasterId = "0CCC0E2D-406A-4672-8E6C-854B1DF78A27";
layerId = "A910C0A5-6BB5-4CBA-8C8A-E5C5693DC7F9";
name = "Apr 20 19, 12:14";
shapes = (
{
closed = 1;
nodes = (
(22,0,l),
(387,0,l),
(372,210,l),
(368,208,l),
(337,30,l),
(165,21.042,l),
(165,283.834,l),
(307,276,l),
(307,311,l),
(165,304.145,l),
(165,579.101,l),
(337,570,l),
(361,402,l),
(365,400,l),
(389,610,l),
(302,600,l),
(22,600,l),
(20,594,l),
(110,570,l),
(110,30,l),
(20,6,l)
);
}
);
width = 434;
},
{
anchors = (
{
name = bottom;
pos = (491,0);
},
{
name = ogonek;
pos = (753,10);
},
{
name = top;
pos = (488,600);
},
{
name = topleft;
pos = (13,600);
}
);
layerId = m002;
shapes = (
{
closed = 1;
nodes = (
(16,0,l),
(898,0,l),
(877,232,l),
(869,230,l),
(812,51,l),
(259,43,l),
(259,271,l),
(600,263,l),
(665,145,l),
(673,147,l),
(654,293,l),
(671,440,l),
(663,442,l),
(600,323,l),
(261,315,l),
(261,561,l),
(808,554,l),
(848,392,l),
(856,390,l),
(895,612,l),
(16,600,l),
(14,592,l),
(164,550,l),
(164,50,l),
(14,8,l)
);
}
);
width = 958;
},
{
associatedMasterId = m002;
layerId = "DBE2B7AB-580F-47C0-9C67-7A78F778FAF3";
name = "Apr 20 19, 12:14";
shapes = (
{
closed = 1;
nodes = (
(22,0,l),
(387,0,l),
(372,210,l),
(368,208,l),
(337,30,l),
(165,21.042,l),
(165,283.834,l),
(307,276,l),
(307,311,l),
(165,304.145,l),
(165,579.101,l),
(337,570,l),
(361,402,l),
(365,400,l),
(389,610,l),
(302,600,l),
(22,600,l),
(20,594,l),
(110,570,l),
(110,30,l),
(20,6,l)
);
}
);
width = 434;
},
{
anchors = (
{
name = bottom;
pos = (304,0);
},
{
name = ogonek;
pos = (395,10);
},
{
name = top;
pos = (284,600);
},
{
name = topleft;
pos = (-26,600);
}
);
layerId = m003;
shapes = (
{
closed = 1;
nodes = (
(10,0,l),
(489,0,l),
(468,219,l),
(460,217,l),
(412,43,l),
(197,33,l),
(197,275,l),
(300,273,l),
(360,151,l),
(368,153,l),
(349,293,l),
(366,435,l),
(358,437,l),
(300,315,l),
(197,313,l),
(197,570,l),
(408,564,l),
(439,403,l),
(447,401,l),
(486,612,l),
(10,600,l),
(8,592,l),
(118,555,l),
(118,45,l),
(8,8,l)
);
}
);
width = 537;
},
{
associatedMasterId = m003;
layerId = "22B5D069-41FA-4BCA-98A1-1FA1BC7EF4B7";
name = "Apr 20 19, 12:14";
shapes = (
{
closed = 1;
nodes = (
(22,0,l),
(387,0,l),
(372,210,l),
(368,208,l),
(337,30,l),
(165,21.042,l),
(165,283.834,l),
(307,276,l),
(307,311,l),
(165,304.145,l),
(165,579.101,l),
(337,570,l),
(361,402,l),
(365,400,l),
(389,610,l),
(302,600,l),
(22,600,l),
(20,594,l),
(110,570,l),
(110,30,l),
(20,6,l)
);
}
);
width = 434;
},
{
anchors = (
{
name = bottom;
pos = (291,0);
},
{
name = ogonek;
pos = (382,10);
},
{
name = top;
pos = (258,600);
},
{
name = topleft;
pos = (31,600);
}
);
layerId = "2C26E880-80A5-4D19-8A94-7D905A372841";
shapes = (
{
closed = 1;
nodes = (
(22,0,l),
(452,0,l),
(431,198,l),
(423,196,l),
(386,30,l),
(165,25,l),
(165,279,l),
(274,279,l),
(334,156,l),
(342,158,l),
(323,292,l),
(340,429,l),
(332,433,l),
(274,309,l),
(165,309,l),
(165,579,l),
(382,575,l),
(402,423,l),
(410,421,l),
(449,612,l),
(22,600,l),
(20,592,l),
(130,555,l),
(130,45,l),
(20,8,l)
);
}
);
width = 512;
}
);
metricLeft = H;
unicode = 69;
},
{
glyphname = F;
kernLeft = H;
kernRight = F;
layers = (
{
anchors = (
{
name = bottom;
pos = (448,0);
},
{
name = top;
pos = (460,600);
}
);
layerId = "0CCC0E2D-406A-4672-8E6C-854B1DF78A27";
shapes = (
{
closed = 1;
nodes = (
(30,592,l),
(180,550,l),
(181,50,l),
(31,8,l),
(33,0,l),
(415,0,l),
(417,8,l),
(218,53,l),
(218,268,l),
(535,266,l),
(600,146,l),
(608,149,l),
(589,280,l),
(606,412,l),
(598,415,l),
(535,295,l),
(218,291,l),
(217,577,l),
(724,581,l),
(748,422,l),
(755,420,l),
(795,612,l),
(32,600,l)
);
}
);
width = 805;
},
{
associatedMasterId = "0CCC0E2D-406A-4672-8E6C-854B1DF78A27";
layerId = "8E3AE6BA-28EB-4BD7-9A6A-D82C415CF13D";
name = "Apr 20 19, 12:25";
shapes = (
{
closed = 1;
nodes = (
(160,550,l),
(161,50,l),
(11,6,l),
(13,0,l),
(433,0,l),
(436,6,l),
(236,53,l),
(235.615,263.668,l),
(591,255,l),
(591,305,l),
(235.555,296.331,l),
(235.056,569.418,l),
(800,561,l),
(825,402,l),
(832,400,l),
(881,615,l),
(582,600,l),
(12,600,l),
(10,597,l)
);
}
);
width = 901;
},
{
associatedMasterId = "0CCC0E2D-406A-4672-8E6C-854B1DF78A27";
layerId = "B26159C7-A002-4A1B-A6BB-21D8CC73AC5D";
name = "Apr 20 19, 12:25";
shapes = (
{
closed = 1;
nodes = (
(160,550,l),
(161,50,l),
(11,6,l),
(13,0,l),
(433,0,l),
(436,6,l),
(236,53,l),
(235.615,263.668,l),
(591,255,l),
(591,305,l),
(235.555,296.331,l),
(235.056,569.418,l),
(800,561,l),
(825,402,l),
(832,400,l),
(881,615,l),
(582,600,l),
(12,600,l),
(10,597,l)
);
}
);
width = 901;
},
{
associatedMasterId = "0CCC0E2D-406A-4672-8E6C-854B1DF78A27";
layerId = "EA982466-DFC0-4B75-BFAC-EDF952505A81";
name = "Apr 20 19, 12:20";
shapes = (
{
closed = 1;
nodes = (
(120,570,l),
(120,30,l),
(30,6,l),
(32,0,l),
(293,0,l),
(295,6,l),
(175,31,l),
(175,283.834,l),
(317,276,l),
(317,311,l),
(175,304.145,l),
(175,579.101,l),
(347,570,l),
(371,402,l),
(375,400,l),
(399,610,l),
(312,600,l),
(32,600,l),
(30,594,l)
);
}
);
width = 419;
},
{
anchors = (
{
name = bottom;
pos = (468,0);
},
{
name = top;
pos = (480,600);
}
);
layerId = m002;
shapes = (
{
closed = 1;
nodes = (
(14,592,l),
(164,550,l),
(165,50,l),
(15,8,l),
(17,0,l),
(458,0,l),
(460,8,l),
(261,53,l),
(261,257,l),
(570,250,l),
(635,130,l),
(643,133,l),
(624,280,l),
(641,428,l),
(633,431,l),
(570,311,l),
(261,302,l),
(260,561,l),
(759,551,l),
(798,392,l),
(805,390,l),
(845,612,l),
(16,600,l)
);
}
);
width = 839;
},
{
associatedMasterId = m002;
layerId = "89670E76-D3F5-4127-A16A-2E9876A3F11A";
name = "Apr 20 19, 12:25";
shapes = (
{
closed = 1;
nodes = (
(160,550,l),
(161,50,l),
(11,6,l),
(13,0,l),
(433,0,l),
(436,6,l),
(236,53,l),
(235.615,263.668,l),
(591,255,l),
(591,305,l),
(235.555,296.331,l),
(235.056,569.418,l),
(800,561,l),
(825,402,l),
(832,400,l),
(881,615,l),
(582,600,l),
(12,600,l),
(10,597,l)
);
}
);
width = 901;
},
{
associatedMasterId = m002;
layerId = "CC1F26F2-EE20-46CB-881E-8364BBA7445B";
name = "Apr 20 19, 12:25";
shapes = (
{
closed = 1;
nodes = (
(160,550,l),
(161,50,l),
(11,6,l),
(13,0,l),
(433,0,l),
(436,6,l),
(236,53,l),
(235.615,263.668,l),
(591,255,l),
(591,305,l),
(235.555,296.331,l),
(235.056,569.418,l),
(800,561,l),
(825,402,l),
(832,400,l),
(881,615,l),
(582,600,l),
(12,600,l),
(10,597,l)
);
}
);
width = 901;
},
{
associatedMasterId = m002;
layerId = "A2D744AB-844D-4C9D-A046-40483784C52A";
name = "Apr 20 19, 12:20";
shapes = (
{
closed = 1;
nodes = (
(120,570,l),
(120,30,l),
(30,6,l),
(32,0,l),
(293,0,l),
(295,6,l),
(175,31,l),
(175,283.834,l),
(317,276,l),
(317,311,l),
(175,304.145,l),
(175,579.101,l),
(347,570,l),
(371,402,l),
(375,400,l),
(399,610,l),
(312,600,l),
(32,600,l),
(30,594,l)
);
}
);
width = 419;
},
{
anchors = (
{
name = bottom;
pos = (255,0);
},
{
name = top;
pos = (267,600);
}
);
layerId = m003;
shapes = (
{
closed = 1;
nodes = (
(8,592,l),
(118,555,l),
(118,45,l),
(8,8,l),
(10,0,l),
(367,0,l),
(369,8,l),
(197,45,l),
(197,265,l),
(291,263,l),
(351,141,l),
(359,143,l),
(340,283,l),
(357,425,l),
(349,427,l),
(291,305,l),
(198,303,l),
(198,570,l),
(398,564,l),
(430,403,l),
(438,401,l),
(477,612,l),
(10,600,l)
);
}
);
width = 474;
},
{
associatedMasterId = m003;
layerId = "9EC86ED5-0CBE-4066-B329-5855C57D4A20";
name = "Apr 20 19, 12:25";
shapes = (
{
closed = 1;
nodes = (
(160,550,l),
(161,50,l),
(11,6,l),
(13,0,l),
(433,0,l),
(436,6,l),
(236,53,l),
(235.615,263.668,l),
(591,255,l),
(591,305,l),
(235.555,296.331,l),
(235.056,569.418,l),
(800,561,l),
(825,402,l),
(832,400,l),
(881,615,l),
(582,600,l),
(12,600,l),
(10,597,l)
);
}
);
width = 901;
},
{
associatedMasterId = m003;
layerId = "81D320CF-B678-4791-9A53-47CFBDE6A85F";
name = "Apr 20 19, 12:25";
shapes = (
{
closed = 1;
nodes = (
(160,550,l),
(161,50,l),
(11,6,l),
(13,0,l),
(433,0,l),
(436,6,l),
(236,53,l),
(235.615,263.668,l),
(591,255,l),
(591,305,l),
(235.555,296.331,l),
(235.056,569.418,l),
(800,561,l),
(825,402,l),
(832,400,l),
(881,615,l),
(582,600,l),
(12,600,l),
(10,597,l)
);
}
);
width = 901;
},
{
associatedMasterId = m003;
layerId = "ADD57032-0487-4C9E-8088-7A92222FE6E5";
name = "Apr 20 19, 12:20";
shapes = (
{
closed = 1;
nodes = (
(120,570,l),
(120,30,l),
(30,6,l),
(32,0,l),
(293,0,l),
(295,6,l),
(175,31,l),
(175,283.834,l),
(317,276,l),
(317,311,l),
(175,304.145,l),
(175,579.101,l),
(347,570,l),
(371,402,l),
(375,400,l),
(399,610,l),
(312,600,l),
(32,600,l),
(30,594,l)
);
}
);
width = 419;
},
{
anchors = (
{
name = bottom;
pos = (238,0);
},
{
name = top;
pos = (250,600);
}
);
background = {
shapes = (
{
closed = 1;
nodes = (
(22,0,l),
(323,0,l),
(325,8,l),
(165,45,l),
(165,271,l),
(260,271,l),
(320,148,l),
(328,150,l),
(309,282,l),
(326,419,l),
(318,421,l),
(260,297,l),
(164,297,l),
(164,582,l),
(369,578,l),
(389,426,l),
(397,424,l),
(436,612,l),
(22,600,l),
(20,592,l),
(130,555,l),
(130,45,l),
(20,8,l)
);
}
);
};
layerId = "2C26E880-80A5-4D19-8A94-7D905A372841";
shapes = (
{
closed = 1;
nodes = (
(20,592,l),
(130,555,l),
(130,45,l),
(20,8,l),
(22,0,l),
(323,0,l),
(325,8,l),
(165,45,l),
(165,269,l),
(260,269,l),
(320,146,l),
(328,148,l),
(309,282,l),
(326,421,l),
(318,423,l),
(260,299,l),
(164,299,l),
(164,579,l),
(369,575,l),
(389,423,l),
(397,421,l),
(436,612,l),
(22,600,l)
);
}
);
width = 446;
}
);
metricLeft = H;
unicode = 70;
},
{
glyphname = G;
kernLeft = O;
kernRight = G;
layers = (
{
anchors = (
{
name = bottom;
pos = (473,0);
},
{
name = top;
pos = (452,600);
}
);
background = {
anchors = (
{
name = bottom;
pos = (432,0);
},
{
name = top;
pos = (459,600);
}
);
shapes = (
{
closed = 1;
nodes = (
(40,106,o),
(205,-20,o),
(465,-20,cs),
(600,-20,o),
(708,16,o),
(795,91,c),
(782,105,l),
(703,42,o),
(605,10,o),
(489,10,cs),
(250,10,o),
(80,134,o),
(80,310,cs),
(80,483,o),
(226,595,o),
(450,595,cs),
(551,595,o),
(671,573,o),
(729,545,c),
(746,362,l),
(754,360,l),
(815,546,l),
(737,594,o),
(598,625,o),
(463,625,cs),
(202,625,o),
(40,502,o),
(40,304,cs)
);
}
);
};
layerId = "0CCC0E2D-406A-4672-8E6C-854B1DF78A27";
shapes = (
{
closed = 1;
nodes = (
(776,-15,l),
(786,-17,l),
(801,269,l),
(346,272,l),
(348,257,l),
(741,212,l)
);
},
{
closed = 1;
nodes = (
(551,593,o),
(671,573,o),
(719,555,c),
(736,378,l),
(744,376,l),
(805,572,l),
(733,597,o),
(595,625,o),
(453,625,cs),
(192,625,o),
(40,502,o),
(40,304,cs),
(40,106,o),
(205,-20,o),
(465,-20,cs),
(600,-20,o),
(708,12,o),
(785,77,c),
(772,97,l),
(703,44,o),
(595,12,o),
(479,12,cs),
(240,12,o),
(78,134,o),
(78,310,cs),
(78,483,o),
(226,593,o),
(450,593,cs)
);
}
);
width = 875;
},
{
associatedMasterId = "0CCC0E2D-406A-4672-8E6C-854B1DF78A27";
layerId = "0BFE6188-949A-456E-A6EC-EA65FB64DE6E";
name = "Sep 12 19, 11:21";
shapes = (
{
closed = 1;
nodes = (
(60,112,o),
(244,-20,o),
(505,-20,cs),
(627.98,-20,o),
(742.41,9.925,o),
(820.62,62.66,c),
(829,4,l),
(857,0,l),
(867,269,l),
(343,269,l),
(356,249,l),
(797,228,l),
(814.876,102.866,l),
(747.185,45.265,o),
(646.404,25,o),
(549,25,cs),
(309,25,o),
(140,149,o),
(140,325,cs),
(140,477,o),
(252,580,o),
(481,580,cs),
(599,580,o),
(710,557,o),
(779,500,c),
(797,332,l),
(804,330,l),
(865,511,l),
(789,579,o),
(662,625,o),
(524,625,cs),
(252,625,o),
(60,490,o),
(60,299,cs)
);
}
);
width = 957;
},
{
anchors = (
{
name = bottom;
pos = (498,0);
},
{
name = top;
pos = (477,600);
}
);
layerId = m002;
shapes = (
{
closed = 1;
nodes = (
(825,-16,l),
(835,-18,l),
(856,269,l),
(370,268,l),
(372,253,l),
(776,206,l)
);
},
{
closed = 1;
nodes = (
(560,573,o),
(677,552,o),
(765,519,c),
(782,358,l),
(790,356,l),
(851,576,l),
(763,605,o),
(625,625,o),
(516,625,cs),
(234,625,o),
(24,485,o),
(24,296,cs),
(24,110,o),
(212,-20,o),
(481,-20,cs),
(625,-20,o),
(756,16,o),
(822,74,c),
(818,109,l),
(773,64,o),
(659,32,o),
(541,32,cs),
(313,32,o),
(127,167,o),
(127,334,cs),
(127,475,o),
(266,573,o),
(467,573,cs)
);
}
);
width = 909;
},
{
associatedMasterId = m002;
layerId = "D1021EB0-D77D-44F0-A622-BDCF0C8F9750";
name = "Sep 12 19, 11:21";
shapes = (
{
closed = 1;
nodes = (
(60,112,o),
(244,-20,o),
(505,-20,cs),
(627.98,-20,o),
(742.41,9.925,o),
(820.62,62.66,c),
(829,4,l),
(857,0,l),
(867,269,l),
(343,269,l),
(356,249,l),
(797,228,l),
(814.876,102.866,l),
(747.185,45.265,o),
(646.404,25,o),
(549,25,cs),
(309,25,o),
(140,149,o),
(140,325,cs),
(140,477,o),
(252,580,o),
(481,580,cs),
(599,580,o),
(710,557,o),
(779,500,c),
(797,332,l),
(804,330,l),
(865,511,l),
(789,579,o),
(662,625,o),
(524,625,cs),
(252,625,o),
(60,490,o),
(60,299,cs)
);
}
);
width = 957;
},
{
anchors = (
{
name = bottom;
pos = (301,0);
},
{
name = top;
pos = (280,600);
}
);
layerId = m003;
shapes = (
{
closed = 1;
nodes = (
(443,-16,l),
(455,-18,l),
(474,269,l),
(264,269,l),
(266,261,l),
(400,214,l)
);
},
{
closed = 1;
nodes = (
(335,577,o),
(367,567,o),
(390,556,c),
(407,389,l),
(415,387,l),
(466,594,l),
(403,612,o),
(358,621,o),
(305,621,cs),
(132,621,o),
(26,493,o),
(26,288,cs),
(26,107,o),
(123,-20,o),
(266,-20,cs),
(339,-20,o),
(392,6,o),
(448,64,c),
(436,85,l),
(392,49,o),
(353,36,o),
(307,36,cs),
(194,36,o),
(116,147,o),
(116,306,cs),
(116,446,o),
(156,574,o),
(288,576,cs)
);
}
);
width = 522;
},
{
associatedMasterId = m003;
layerId = "EE3D0923-803A-4EED-AC62-0D021C8E5589";
name = "Sep 12 19, 11:21";
shapes = (
{
closed = 1;
nodes = (
(60,112,o),
(244,-20,o),
(505,-20,cs),
(627.98,-20,o),
(742.41,9.925,o),
(820.62,62.66,c),
(829,4,l),
(857,0,l),
(867,269,l),
(343,269,l),
(356,249,l),
(797,228,l),
(814.876,102.866,l),
(747.185,45.265,o),
(646.404,25,o),
(549,25,cs),
(309,25,o),
(140,149,o),
(140,325,cs),
(140,477,o),
(252,580,o),
(481,580,cs),
(599,580,o),
(710,557,o),
(779,500,c),
(797,332,l),
(804,330,l),
(865,511,l),
(789,579,o),
(662,625,o),
(524,625,cs),
(252,625,o),
(60,490,o),
(60,299,cs)
);
}
);
width = 957;
},
{
anchors = (
{
name = bottom;
pos = (290,0);
},
{
name = top;
pos = (269,600);
}
);
layerId = "2C26E880-80A5-4D19-8A94-7D905A372841";
shapes = (
{
closed = 1;
nodes = (
(405,-16,l),
(417,-18,l),
(436,269,l),
(236,269,l),
(238,261,l),
(375,224,l)
);
},
{
closed = 1;
nodes = (
(283,587,o),
(319,582,o),
(334,575,c),
(351,413,l),
(359,411,l),
(410,589,l),
(376,607,o),
(313,620,o),
(261,620,cs),
(120,620,o),
(45,507,o),
(45,294,cs),
(45,92,o),
(128,-20,o),
(259,-20,cs),
(326,-20,o),
(374,10,o),
(422,68,c),
(414,92,l),
(367,38,o),
(323,10,o),
(265,10,cs),
(155,10,o),
(84,114,o),
(84,300,cs),
(84,494,o),
(139,587,o),
(254,587,cs)
);
}
);
width = 499;
}
);
metricLeft = O;
unicode = 71;
},
{
glyphname = H;
kernLeft = H;
kernRight = H;
layers = (
{
anchors = (
{
name = bottom;
pos = (525,0);
},
{
name = center;
pos = (525,300);
},
{
name = top;
pos = (525,600);
},
{
name = topleft;
pos = (-28,600);
}
);
layerId = "0CCC0E2D-406A-4672-8E6C-854B1DF78A27";
shapes = (
{
closed = 1;
nodes = (
(197,555,l),
(367,592,l),
(365,600,l),
(32,600,l),
(30,592,l),
(160,555,l),
(160,50,l),
(30,8,l),
(32,0,l),
(365,0,l),
(367,8,l),
(197,50,l)
);
},
{
closed = 1;
nodes = (
(868,315,l),
(178,315,l),
(178,285,l),
(868,285,l)
);
},
{
closed = 1;
nodes = (
(853,50,l),
(683,8,l),
(685,0,l),
(1018,0,l),
(1020,8,l),
(890,50,l),
(890,555,l),
(1020,592,l),
(1018,600,l),
(685,600,l),
(683,592,l),
(853,555,l)
);
}
);
width = 1050;
},
{
anchors = (
{
name = bottom;
pos = (545,0);
},
{
name = center;
pos = (545,300);
},
{
name = top;
pos = (545,600);
},
{
name = topleft;
pos = (-8,600);
}
);
layerId = m002;
shapes = (
{
closed = 1;
nodes = (
(241,555,l),
(411,592,l),
(409,600,l),
(16,600,l),
(14,592,l),
(144,555,l),
(144,50,l),
(14,8,l),
(16,0,l),
(409,0,l),
(411,8,l),
(241,50,l)
);
},
{
closed = 1;
nodes = (
(925,323,l),
(186,323,l),
(186,277,l),
(925,277,l)
);
},
{
closed = 1;
nodes = (
(849,50,l),
(679,8,l),
(681,0,l),
(1074,0,l),
(1076,8,l),
(946,50,l),
(946,555,l),
(1076,592,l),
(1074,600,l),
(681,600,l),
(679,592,l),
(849,555,l)
);
}
);
width = 1090;
},
{
anchors = (
{
name = bottom;
pos = (331,0);
},
{
name = center;
pos = (321,300);
},
{
name = top;
pos = (321,600);
},
{
name = topleft;
pos = (-72,600);
}
);
layerId = m003;
shapes = (
{
closed = 1;
nodes = (
(197,555,l),
(307,592,l),
(305,600,l),
(10,600,l),
(8,592,l),
(118,555,l),
(118,45,l),
(8,8,l),
(10,0,l),
(305,0,l),
(307,8,l),
(197,45,l)
);
},
{
closed = 1;
nodes = (
(518,319,l),
(148,319,l),
(148,282,l),
(518,282,l)
);
},
{
closed = 1;
nodes = (
(455,45,l),
(345,8,l),
(347,0,l),
(642,0,l),
(644,8,l),
(534,45,l),
(534,555,l),
(644,592,l),
(642,600,l),
(347,600,l),
(345,592,l),
(455,555,l)
);
}
);
width = 652;
},
{
anchors = (
{
name = bottom;
pos = (317,0);
},
{
name = center;
pos = (307,300);
},
{
name = top;
pos = (307,600);
},
{
name = topleft;
pos = (-86,600);
}
);
layerId = "2C26E880-80A5-4D19-8A94-7D905A372841";
shapes = (
{
closed = 1;
nodes = (
(165,555,l),
(275,592,l),
(273,600,l),
(22,600,l),
(20,592,l),
(130,555,l),
(130,45,l),
(20,8,l),
(22,0,l),
(273,0,l),
(275,8,l),
(165,45,l)
);
},
{
closed = 1;
nodes = (
(475,316,l),
(143,316,l),
(143,286,l),
(475,286,l)
);
},
{
closed = 1;
nodes = (
(458,45,l),
(348,8,l),
(350,0,l),
(600,0,l),
(602,8,l),
(492,45,l),
(492,555,l),
(602,592,l),
(600,600,l),
(350,600,l),
(348,592,l),
(458,555,l)
);
}
);
width = 622;
}
);
unicode = 72;
},
{
glyphname = I;
kernLeft = H;
kernRight = H;
layers = (
{
anchors = (
{
name = ogonek;
pos = (193,10);
},
{
name = top;
pos = (200,600);
},
{
name = topleft;
pos = (1,600);
}
);
layerId = "0CCC0E2D-406A-4672-8E6C-854B1DF78A27";
shapes = (
{
closed = 1;
nodes = (
(32,0,l),
(370,0,l),
(372,8,l),
(222,50,l),
(222,550,l),
(377,592,l),
(375,600,l),
(37,600,l),
(35,592,l),
(185,550,l),
(185,50,l),
(30,8,l)
);
}
);
width = 407;
},
{
anchors = (
{
name = ogonek;
pos = (201,10);
},
{
name = top;
pos = (208,600);
},
{
name = topleft;
pos = (9,600);
}
);
layerId = m002;
shapes = (
{
closed = 1;
nodes = (
(20,0,l),
(407,0,l),
(409,8,l),
(259,50,l),
(259,550,l),
(406,592,l),
(404,600,l),
(16,600,l),
(14,592,l),
(164,550,l),
(164,50,l),
(18,8,l)
);
}
);
width = 423;
},
{
anchors = (
{
name = ogonek;
pos = (146,13);
},
{
name = top;
pos = (157,600);
},
{
name = topleft;
pos = (-42,600);
}
);
layerId = m003;
shapes = (
{
closed = 1;
nodes = (
(11,0,l),
(305,0,l),
(307,8,l),
(197,45,l),
(197,555,l),
(305,592,l),
(303,600,l),
(10,600,l),
(8,592,l),
(118,555,l),
(118,45,l),
(9,8,l)
);
}
);
width = 315;
},
{
anchors = (
{
name = ogonek;
pos = (164,0);
},
{
name = top;
pos = (154,600);
},
{
name = topleft;
pos = (-45,600);
}
);
layerId = "2C26E880-80A5-4D19-8A94-7D905A372841";
shapes = (
{
closed = 1;
nodes = (
(22,0,l),
(279,0,l),
(281,8,l),
(171,45,l),
(171,555,l),
(286,592,l),
(284,600,l),
(28,600,l),
(26,592,l),
(136,555,l),
(136,45,l),
(20,8,l)
);
}
);
width = 306;
}
);
metricLeft = H;
metricRight = H;
unicode = 73;
},
{
glyphname = J;
kernLeft = J;
kernRight = J;
layers = (
{
anchors = (
{
name = bottom;
pos = (317,0);
},
{
name = top;
pos = (327,600);
}
);
layerId = "0CCC0E2D-406A-4672-8E6C-854B1DF78A27";
shapes = (
{
closed = 1;
nodes = (
(61,66,l),
(113,40,o),
(203,10,o),
(323,10,cs),
(436,10,o),
(507,72,o),
(507,180,cs),
(507,590,l),
(523,577,l),
(203,577,l),
(169,418,l),
(161,416,l),
(122,608,l),
(544,600,l),
(544,200,ls),
(544,55,o),
(471,-20,o),
(318,-20,cs),
(217,-20,o),
(94,24,o),
(54,56,c)
);
}
);
width = 654;
},
{
associatedMasterId = "0CCC0E2D-406A-4672-8E6C-854B1DF78A27";
layerId = "35E4C493-3815-4981-8420-BF8E2226003F";
name = "2 Dec 21, 12:51";
shapes = (
{
closed = 1;
nodes = (
(-55,137,l),
(30,77,o),
(179,40,o),
(276,40,cs),
(416,40,o),
(455,86,o),
(455,260,cs),
(455,550,l),
(285,592,l),
(287,600,l),
(683,600,l),
(685,592,l),
(530,550,l),
(530,260,ls),
(530,85,o),
(445,-10,o),
(301,-10,cs),
(198,-10,o),
(16,51,o),
(-70,117,c)
);
}
);
width = 705;
},
{
associatedMasterId = "0CCC0E2D-406A-4672-8E6C-854B1DF78A27";
layerId = "D4FA388F-006C-4923-9361-837E208B7442";
name = "2 Dec 21, 12:56";
shapes = (
{
closed = 1;
nodes = (
(115,12,l),
(234,64,o),
(260,109,o),
(260,260,cs),
(260,550,l),
(90,592,l),
(92,600,l),
(488,600,l),
(490,592,l),
(335,550,l),
(335,260,ls),
(335,119,o),
(270,39,o),
(123,0,c)
);
}
);
width = 560;
},
{
associatedMasterId = "0CCC0E2D-406A-4672-8E6C-854B1DF78A27";
layerId = "24E5C3FC-A270-4D99-8E23-AAB1E6002EBA";
name = "2 Dec 21, 13:09";
shapes = (
{
closed = 1;
nodes = (
(-185,127,l),
(-108,73,o),
(38,30,o),
(146,30,cs),
(271,30,o),
(285,62,o),
(285,260,cs),
(285,550,l),
(115,592,l),
(117,600,l),
(513,600,l),
(515,592,l),
(360,550,l),
(360,260,ls),
(360,88,o),
(277,-20,o),
(131,-20,cs),
(36,-20,o),
(-106,34,o),
(-200,107,c)
);
}
);
width = 560;
},
{
associatedMasterId = "0CCC0E2D-406A-4672-8E6C-854B1DF78A27";
layerId = "1A4B16EC-09B1-452E-B368-861496CF630C";
name = "2 Dec 21, 13:30";
shapes = (
{
closed = 1;
nodes = (
(15,127,l),
(76,83,o),
(185,30,o),
(306,30,cs),
(410,30,o),
(445,68,o),
(445,180,cs),
(445,550,l),
(275,592,l),
(277,600,l),
(673,600,l),
(675,592,l),
(520,550,l),
(520,200,ls),
(520,64,o),
(435,-20,o),
(291,-20,cs),
(201,-20,o),
(100,30,o),
(0,107,c)
);
}
);
width = 720;
},
{
anchors = (
{
name = bottom;
pos = (349,0);
},
{
name = top;
pos = (349,600);
}
);
associatedMasterId = "0CCC0E2D-406A-4672-8E6C-854B1DF78A27";
layerId = "7B39A3F9-AB02-4D16-AD1C-06514CE1D68F";
name = "20 Jan 22, 13:30";
shapes = (
{
closed = 1;
nodes = (
(23,122,l),
(91,73,o),
(276,30,o),
(385,30,cs),
(489,30,o),
(524,68,o),
(524,180,cs),
(524,590,l),
(555,560,l),
(235,557,l),
(201,398,l),
(193,396,l),
(154,608,l),
(599,600,l),
(599,200,ls),
(599,63,o),
(513,-20,o),
(370,-20,cs),
(266,-20,o),
(98,39,o),
(10,107,c)
);
}
);
width = 709;
},
{
anchors = (
{
name = bottom;
pos = (329,0);
},
{
name = top;
pos = (329,600);
}
);
associatedMasterId = "0CCC0E2D-406A-4672-8E6C-854B1DF78A27";
layerId = "07A995FA-2045-4F41-A338-F770EC6D2932";
name = "27 Jan 22, 17:59";
shapes = (
{
closed = 1;
nodes = (
(3,112,l),
(71,73,o),
(236,30,o),
(345,30,cs),
(453,30,o),
(504,77,o),
(504,180,cs),
(504,590,l),
(535,560,l),
(215,557,l),
(181,398,l),
(173,396,l),
(134,608,l),
(579,600,l),
(579,200,ls),
(579,63,o),
(473,-20,o),
(330,-20,cs),
(226,-20,o),
(78,39,o),
(-10,97,c)
);
}
);
width = 679;
},
{
anchors = (
{
name = bottom;
pos = (335,0);
},
{
name = top;
pos = (345,600);
}
);
layerId = m002;
shapes = (
{
closed = 1;
nodes = (
(48,107,l),
(131,65,o),
(259,42,o),
(357,42,cs),
(469,42,o),
(502,88,o),
(502,180,cs),
(502,590,l),
(541,551,l),
(190,547,l),
(156,388,l),
(148,386,l),
(109,608,l),
(598,600,l),
(598,200,ls),
(598,55,o),
(488,-20,o),
(336,-20,cs),
(235,-20,o),
(114,24,o),
(38,88,c)
);
}
);
width = 692;
},
{
associatedMasterId = m002;
layerId = "F752F49A-00CA-4D96-8E69-91447C3B1241";
name = "2 Dec 21, 12:51";
shapes = (
{
closed = 1;
nodes = (
(-55,137,l),
(30,77,o),
(179,40,o),
(276,40,cs),
(416,40,o),
(455,86,o),
(455,260,cs),
(455,550,l),
(285,592,l),
(287,600,l),
(683,600,l),
(685,592,l),
(530,550,l),
(530,260,ls),
(530,85,o),
(445,-10,o),
(301,-10,cs),
(198,-10,o),
(16,51,o),
(-70,117,c)
);
}
);
width = 705;
},
{
associatedMasterId = m002;
layerId = "EB2C1CC2-1971-42D6-9DDF-F0FE9C24AC69";
name = "2 Dec 21, 12:56";
shapes = (
{
closed = 1;
nodes = (
(115,12,l),
(234,64,o),
(260,109,o),
(260,260,cs),
(260,550,l),
(90,592,l),
(92,600,l),
(488,600,l),
(490,592,l),
(335,550,l),
(335,260,ls),
(335,119,o),
(270,39,o),
(123,0,c)
);
}
);
width = 560;
},
{
associatedMasterId = m002;
layerId = "0393DCFA-8013-477E-BEE5-5D60A440C3CE";
name = "2 Dec 21, 13:09";
shapes = (
{
closed = 1;
nodes = (
(-185,127,l),
(-108,73,o),
(38,30,o),
(146,30,cs),
(271,30,o),
(285,62,o),
(285,260,cs),
(285,550,l),
(115,592,l),
(117,600,l),
(513,600,l),
(515,592,l),
(360,550,l),
(360,260,ls),
(360,88,o),
(277,-20,o),
(131,-20,cs),
(36,-20,o),
(-106,34,o),
(-200,107,c)
);
}
);
width = 560;
},
{
associatedMasterId = m002;
layerId = "564ABB89-5E88-4883-BBC7-A26E5C544CFA";
name = "2 Dec 21, 13:30";
shapes = (
{
closed = 1;
nodes = (
(15,127,l),
(76,83,o),
(185,30,o),
(306,30,cs),
(410,30,o),
(445,68,o),
(445,180,cs),
(445,550,l),
(275,592,l),
(277,600,l),
(673,600,l),
(675,592,l),
(520,550,l),
(520,200,ls),
(520,64,o),
(435,-20,o),
(291,-20,cs),
(201,-20,o),
(100,30,o),
(0,107,c)
);
}
);
width = 720;
},
{
anchors = (
{
name = bottom;
pos = (349,0);
},
{
name = top;
pos = (349,600);
}
);
associatedMasterId = m002;
layerId = "349CE9AD-595D-4F6B-A90B-7D915D678224";
name = "20 Jan 22, 13:30";
shapes = (
{
closed = 1;
nodes = (
(23,122,l),
(91,73,o),
(276,30,o),
(385,30,cs),
(489,30,o),
(524,68,o),
(524,180,cs),
(524,590,l),
(555,560,l),
(235,557,l),
(201,398,l),
(193,396,l),
(154,608,l),
(599,600,l),
(599,200,ls),
(599,63,o),
(513,-20,o),
(370,-20,cs),
(266,-20,o),
(98,39,o),
(10,107,c)
);
}
);
width = 709;
},
{
anchors = (
{
name = bottom;
pos = (329,0);
},
{
name = top;
pos = (329,600);
}
);
associatedMasterId = m002;
layerId = "4A572B9D-392C-423E-839D-A16233EE8FAB";
name = "27 Jan 22, 17:59";
shapes = (
{
closed = 1;
nodes = (
(3,112,l),
(71,73,o),
(236,30,o),
(345,30,cs),
(453,30,o),
(504,77,o),
(504,180,cs),
(504,590,l),
(535,560,l),
(215,557,l),
(181,398,l),
(173,396,l),
(134,608,l),
(579,600,l),
(579,200,ls),
(579,63,o),
(473,-20,o),
(330,-20,cs),
(226,-20,o),
(78,39,o),
(-10,97,c)
);
}
);
width = 679;
},
{
anchors = (
{
name = bottom;
pos = (192,-1);
},
{
name = top;
pos = (202,600);
}
);
layerId = m003;
shapes = (
{
closed = 1;
nodes = (
(22,94,l),
(73,55,o),
(141,33,o),
(198,33,cs),
(233,33,o),
(264,59,o),
(264,123,cs),
(264,588,l),
(299,562,l),
(149,559,l),
(118,392,l),
(110,390,l),
(71,607,l),
(343,600,l),
(343,195,ls),
(343,51,o),
(285,-20,o),
(194,-20,cs),
(147,-20,o),
(82,8,o),
(13,82,c)
);
}
);
width = 431;
},
{
associatedMasterId = m003;
layerId = "36AD50BF-23D6-4D95-8320-91E73E7F6C72";
name = "2 Dec 21, 12:51";
shapes = (
{
closed = 1;
nodes = (
(-55,137,l),
(30,77,o),
(179,40,o),
(276,40,cs),
(416,40,o),
(455,86,o),
(455,260,cs),
(455,550,l),
(285,592,l),
(287,600,l),
(683,600,l),
(685,592,l),
(530,550,l),
(530,260,ls),
(530,85,o),
(445,-10,o),
(301,-10,cs),
(198,-10,o),
(16,51,o),
(-70,117,c)
);
}
);
width = 705;
},
{
associatedMasterId = m003;
layerId = "28A3366E-01F2-4049-806C-A349C40EBB5C";
name = "2 Dec 21, 12:56";
shapes = (
{
closed = 1;
nodes = (
(115,12,l),
(234,64,o),
(260,109,o),
(260,260,cs),
(260,550,l),
(90,592,l),
(92,600,l),
(488,600,l),
(490,592,l),
(335,550,l),
(335,260,ls),
(335,119,o),
(270,39,o),
(123,0,c)
);
}
);
width = 560;
},
{
associatedMasterId = m003;
layerId = "6D7DF9DD-5174-44C2-8C1E-182556F1A99F";
name = "2 Dec 21, 13:09";
shapes = (
{
closed = 1;
nodes = (
(-185,127,l),
(-108,73,o),
(38,30,o),
(146,30,cs),
(271,30,o),
(285,62,o),
(285,260,cs),
(285,550,l),
(115,592,l),
(117,600,l),
(513,600,l),
(515,592,l),
(360,550,l),
(360,260,ls),
(360,88,o),
(277,-20,o),
(131,-20,cs),
(36,-20,o),
(-106,34,o),
(-200,107,c)
);
}
);
width = 560;
},
{
associatedMasterId = m003;
layerId = "C565C961-B9D0-4304-AA45-D2FA09415D6B";
name = "2 Dec 21, 13:30";
shapes = (
{
closed = 1;
nodes = (
(15,127,l),
(76,83,o),
(185,30,o),
(306,30,cs),
(410,30,o),
(445,68,o),
(445,180,cs),
(445,550,l),
(275,592,l),
(277,600,l),
(673,600,l),
(675,592,l),
(520,550,l),
(520,200,ls),
(520,64,o),
(435,-20,o),
(291,-20,cs),
(201,-20,o),
(100,30,o),
(0,107,c)
);
}
);
width = 720;
},
{
anchors = (
{
name = bottom;
pos = (349,0);
},
{
name = top;
pos = (349,600);
}
);
associatedMasterId = m003;
layerId = "5A45380A-7557-407E-870A-E901AB89AC64";
name = "20 Jan 22, 13:30";
shapes = (
{
closed = 1;
nodes = (
(23,122,l),
(91,73,o),
(276,30,o),
(385,30,cs),
(489,30,o),
(524,68,o),
(524,180,cs),
(524,590,l),
(555,560,l),
(235,557,l),
(201,398,l),
(193,396,l),
(154,608,l),
(599,600,l),
(599,200,ls),
(599,63,o),
(513,-20,o),
(370,-20,cs),
(266,-20,o),
(98,39,o),
(10,107,c)
);
}
);
width = 709;
},
{
anchors = (
{
name = bottom;
pos = (329,0);
},
{
name = top;
pos = (329,600);
}
);
associatedMasterId = m003;
layerId = "FCB1C945-064C-4A12-910C-2C2269451BF0";
name = "27 Jan 22, 17:59";
shapes = (
{
closed = 1;
nodes = (
(3,112,l),
(71,73,o),
(236,30,o),
(345,30,cs),
(453,30,o),
(504,77,o),
(504,180,cs),
(504,590,l),
(535,560,l),
(215,557,l),
(181,398,l),
(173,396,l),
(134,608,l),
(579,600,l),
(579,200,ls),
(579,63,o),
(473,-20,o),
(330,-20,cs),
(226,-20,o),
(78,39,o),
(-10,97,c)
);
}
);
width = 679;
},
{
anchors = (
{
name = bottom;
pos = (183,2);
},
{
name = top;
pos = (193,600);
}
);
layerId = "2C26E880-80A5-4D19-8A94-7D905A372841";
shapes = (
{
closed = 1;
nodes = (
(41,69,l),
(81,29,o),
(131,5,o),
(189,5,cs),
(251,5,o),
(272,51,o),
(272,135,cs),
(272,600,l),
(287,577,l),
(156,573,l),
(136,421,l),
(128,419,l),
(89,612,l),
(307,600,l),
(307,170,ls),
(307,29,o),
(277,-20,o),
(180,-20,cs),
(128,-20,o),
(60,9,o),
(25,53,c)
);
}
);
width = 407;
}
);
unicode = 74;
},
{
glyphname = K;
kernLeft = H;
kernRight = K;
layers = (
{
associatedMasterId = "0CCC0E2D-406A-4672-8E6C-854B1DF78A27";
layerId = "590979A8-FF2F-4509-A2A3-14684D938160";
name = "Extended Mar 31 18, 15:49";
shapes = (
{
closed = 1;
nodes = (
(37,0,l),
(412,0,l),
(414,6,l),
(264,50,l),
(264,550,l),
(419,594,l),
(417,600,l),
(42,600,l),
(40,594,l),
(190,550,l),
(190,50,l),
(35,6,l)
);
},
{
closed = 1;
nodes = (
(259,145,l),
(817,550,l),
(967,594,l),
(970,600,l),
(589,600,l),
(587,594,l),
(737,550,l),
(190,145,l)
);
},
{
closed = 1;
nodes = (
(909,-66,l),
(958,-56,l),
(523,382,l),
(462,310,l)
);
}
);
width = 1035;
},
{
anchors = (
{
name = bottom;
pos = (493,0);
},
{
name = top;
pos = (493,600);
}
);
layerId = "0CCC0E2D-406A-4672-8E6C-854B1DF78A27";
shapes = (
{
closed = 1;
nodes = (
(435,333,l),
(752,50,l),
(612,8,l),
(614,0,l),
(956,0,l),
(958,8,l),
(803,50,l),
(456,357,l)
);
},
{
closed = 1;
nodes = (
(198,150,l),
(763,550,l),
(913,592,l),
(911,600,l),
(563,600,l),
(561,592,l),
(711,550,l),
(198,189,l)
);
},
{
closed = 1;
nodes = (
(222,550,l),
(377,592,l),
(375,600,l),
(37,600,l),
(35,592,l),
(185,550,l),
(185,50,l),
(30,8,l),
(32,0,l),
(370,0,l),
(372,8,l),
(222,50,l)
);
}
);
width = 966;
},
{
associatedMasterId = "0CCC0E2D-406A-4672-8E6C-854B1DF78A27";
layerId = "32157E01-D1D7-4E57-A950-BE1247EEB11C";
name = "Extended Mar 31 18, 15:49";
shapes = (
{
closed = 1;
nodes = (
(37,0,l),
(412,0,l),
(414,6,l),
(264,50,l),
(264,550,l),
(419,594,l),
(417,600,l),
(42,600,l),
(40,594,l),
(190,550,l),
(190,50,l),
(35,6,l)
);
},
{
closed = 1;
nodes = (
(259,145,l),
(817,550,l),
(967,594,l),
(970,600,l),
(589,600,l),
(587,594,l),
(737,550,l),
(190,145,l)
);
},
{
closed = 1;
nodes = (
(909,-66,l),
(958,-56,l),
(523,382,l),
(462,310,l)
);
}
);
width = 1035;
},
{
associatedMasterId = m002;
layerId = "72398B1D-A87D-49EF-91A3-BC09134A37E2";
name = "Extended Mar 31 18, 15:49";
shapes = (
{
closed = 1;
nodes = (
(37,0,l),
(412,0,l),
(414,6,l),
(264,50,l),
(264,550,l),
(419,594,l),
(417,600,l),
(42,600,l),
(40,594,l),
(190,550,l),
(190,50,l),
(35,6,l)
);
},
{
closed = 1;
nodes = (
(259,145,l),
(817,550,l),
(967,594,l),
(970,600,l),
(589,600,l),
(587,594,l),
(737,550,l),
(190,145,l)
);
},
{
closed = 1;
nodes = (
(909,-66,l),
(958,-56,l),
(523,382,l),
(462,310,l)
);
}
);
width = 1035;
},
{
anchors = (
{
name = bottom;
pos = (513,0);
},
{
name = top;
pos = (513,600);
}
);
layerId = m002;
shapes = (
{
closed = 1;
nodes = (
(435,316,l),
(735,50,l),
(595,8,l),
(597,0,l),
(1010,0,l),
(1012,8,l),
(878,50,l),
(521,368,l)
);
},
{
closed = 1;
nodes = (
(218,138,l),
(813,550,l),
(979,592,l),
(977,600,l),
(584,600,l),
(582,592,l),
(716,550,l),
(218,188,l)
);
},
{
closed = 1;
nodes = (
(265,550,l),
(420,592,l),
(418,600,l),
(21,600,l),
(19,592,l),
(169,550,l),
(169,50,l),
(14,8,l),
(16,0,l),
(413,0,l),
(415,8,l),
(265,50,l)
);
}
);
width = 1008;
},
{
associatedMasterId = m002;
layerId = "C15363E9-21E1-4023-B213-9165D2E3AD33";
name = "Extended Mar 31 18, 15:49";
shapes = (
{
closed = 1;
nodes = (
(37,0,l),
(412,0,l),
(414,6,l),
(264,50,l),
(264,550,l),
(419,594,l),
(417,600,l),
(42,600,l),
(40,594,l),
(190,550,l),
(190,50,l),
(35,6,l)
);
},
{
closed = 1;
nodes = (
(259,145,l),
(817,550,l),
(967,594,l),
(970,600,l),
(589,600,l),
(587,594,l),
(737,550,l),
(190,145,l)
);
},
{
closed = 1;
nodes = (
(909,-66,l),
(958,-56,l),
(523,382,l),
(462,310,l)
);
}
);
width = 1035;
},
{
associatedMasterId = m003;
layerId = "0EBFFA9A-FBF9-4452-84EF-1ACE04C05819";
name = "Extended Mar 31 18, 15:49";
shapes = (
{
closed = 1;
nodes = (
(37,0,l),
(412,0,l),
(414,6,l),
(264,50,l),
(264,550,l),
(419,594,l),
(417,600,l),
(42,600,l),
(40,594,l),
(190,550,l),
(190,50,l),
(35,6,l)
);
},
{
closed = 1;
nodes = (
(259,145,l),
(817,550,l),
(967,594,l),
(970,600,l),
(589,600,l),
(587,594,l),
(737,550,l),
(190,145,l)
);
},
{
closed = 1;
nodes = (
(909,-66,l),
(958,-56,l),
(523,382,l),
(462,310,l)
);
}
);
width = 1035;
},
{
anchors = (
{
name = bottom;
pos = (321,0);
},
{
name = top;
pos = (301,600);
}
);
layerId = m003;
shapes = (
{
closed = 1;
nodes = (
(266,313,l),
(411,45,l),
(322,8,l),
(324,0,l),
(598,0,l),
(600,8,l),
(495,45,l),
(313,374,l)
);
},
{
closed = 1;
nodes = (
(164,132,l),
(463,555,l),
(575,592,l),
(573,600,l),
(323,600,l),
(321,592,l),
(409,555,l),
(164,198,l)
);
},
{
closed = 1;
nodes = (
(197,555,l),
(289,592,l),
(287,600,l),
(10,600,l),
(8,592,l),
(118,555,l),
(118,45,l),
(10,8,l),
(12,0,l),
(305,0,l),
(307,8,l),
(197,45,l)
);
}
);
width = 605;
},
{
associatedMasterId = m003;
layerId = "628ED45E-E92A-4DC6-B31E-5B8D87C3902E";
name = "Extended Mar 31 18, 15:49";
shapes = (
{
closed = 1;
nodes = (
(37,0,l),
(412,0,l),
(414,6,l),
(264,50,l),
(264,550,l),
(419,594,l),
(417,600,l),
(42,600,l),
(40,594,l),
(190,550,l),
(190,50,l),
(35,6,l)
);
},
{
closed = 1;
nodes = (
(259,145,l),
(817,550,l),
(967,594,l),
(970,600,l),
(589,600,l),
(587,594,l),
(737,550,l),
(190,145,l)
);
},
{
closed = 1;
nodes = (
(909,-66,l),
(958,-56,l),
(523,382,l),
(462,310,l)
);
}
);
width = 1035;
},
{
anchors = (
{
name = bottom;
pos = (313,0);
},
{
name = top;
pos = (293,600);
}
);
layerId = "2C26E880-80A5-4D19-8A94-7D905A372841";
shapes = (
{
closed = 1;
nodes = (
(261,328,l),
(426,45,l),
(327,8,l),
(329,0,l),
(590,0,l),
(592,8,l),
(468,45,l),
(277,361,l)
);
},
{
closed = 1;
nodes = (
(156,147,l),
(438,555,l),
(539,592,l),
(537,600,l),
(302,600,l),
(300,592,l),
(399,555,l),
(156,203,l)
);
},
{
closed = 1;
nodes = (
(171,555,l),
(251,592,l),
(249,600,l),
(28,600,l),
(26,592,l),
(136,555,l),
(136,45,l),
(20,8,l),
(22,0,l),
(279,0,l),
(281,8,l),
(171,45,l)
);
}
);
width = 604;
}
);
metricLeft = H;
unicode = 75;
},
{
glyphname = L;
kernLeft = H;
kernRight = L;
layers = (
{
anchors = (
{
name = bottom;
pos = (439,0);
},
{
name = center;
pos = (439,300);
},
{
name = top;
pos = (239,600);
},
{
name = topright;
pos = (459,600);
}
);
layerId = "0CCC0E2D-406A-4672-8E6C-854B1DF78A27";
shapes = (
{
closed = 1;
nodes = (
(32,0,l),
(767,0,l),
(746,199,l),
(738,197,l),
(697,25,l),
(217,25,l),
(217,550,l),
(372,592,l),
(370,600,l),
(32,600,l),
(30,592,l),
(180,550,l),
(180,50,l),
(30,8,l)
);
}
);
width = 837;
},
{
anchors = (
{
name = bottom;
pos = (457,0);
},
{
name = center;
pos = (457,300);
},
{
name = top;
pos = (257,600);
},
{
name = topright;
pos = (477,600);
}
);
layerId = m002;
shapes = (
{
closed = 1;
nodes = (
(16,0,l),
(820,0,l),
(800,240,l),
(792,238,l),
(734,63,l),
(260,42,l),
(262,550,l),
(409,592,l),
(407,600,l),
(17,600,l),
(15,592,l),
(165,550,l),
(164,50,l),
(14,8,l)
);
}
);
width = 874;
},
{
anchors = (
{
name = bottom;
pos = (254,0);
},
{
name = center;
pos = (414,300);
},
{
name = top;
pos = (164,600);
},
{
name = topright;
pos = (367,600);
}
);
layerId = m003;
shapes = (
{
closed = 1;
nodes = (
(10,0,l),
(449,0,l),
(428,220,l),
(420,218,l),
(372,42,l),
(197,32,l),
(197,555,l),
(305,592,l),
(303,600,l),
(10,600,l),
(8,592,l),
(118,555,l),
(118,45,l),
(8,8,l)
);
}
);
width = 512;
},
{
anchors = (
{
name = bottom;
pos = (241,0);
},
{
name = center;
pos = (401,300);
},
{
name = top;
pos = (151,600);
},
{
name = topright;
pos = (341,600);
}
);
layerId = "2C26E880-80A5-4D19-8A94-7D905A372841";
shapes = (
{
closed = 1;
nodes = (
(22,0,l),
(411,0,l),
(390,195,l),
(382,193,l),
(345,32,l),
(165,26,l),
(165,555,l),
(282,592,l),
(280,600,l),
(22,600,l),
(20,592,l),
(130,555,l),
(130,45,l),
(20,8,l)
);
}
);
width = 461;
}
);
metricLeft = H;
unicode = 76;
},
{
glyphname = Lslash;
kernRight = L;
layers = (
{
layerId = "0CCC0E2D-406A-4672-8E6C-854B1DF78A27";
shapes = (
{
closed = 1;
nodes = (
(549,413,l),
(30,224,l),
(43,187,l),
(562,376,l)
);
},
{
pos = (10,0);
ref = L;
}
);
width = 847;
},
{
layerId = m002;
shapes = (
{
closed = 1;
nodes = (
(533,413,l),
(14,224,l),
(27,187,l),
(546,376,l)
);
},
{
pos = (2,0);
ref = L;
}
);
width = 876;
},
{
layerId = m003;
shapes = (
{
closed = 1;
nodes = (
(385,472,l),
(8,156,l),
(32,127,l),
(409,443,l)
);
},
{
pos = (7,0);
ref = L;
}
);
width = 519;
},
{
layerId = "2C26E880-80A5-4D19-8A94-7D905A372841";
shapes = (
{
closed = 1;
nodes = (
(397,472,l),
(20,156,l),
(44,127,l),
(421,443,l)
);
},
{
alignment = -1;
pos = (16,0);
ref = L;
}
);
width = 477;
}
);
metricLeft = L;
metricRight = L;
unicode = 321;
},
{
glyphname = M;
kernLeft = M;
kernRight = M;
layers = (
{
anchors = (
{
name = bottom;
pos = (565,0);
},
{
name = top;
pos = (565,600);
}
);
layerId = "0CCC0E2D-406A-4672-8E6C-854B1DF78A27";
shapes = (
{
closed = 1;
nodes = (
(12,0,l),
(367,0,l),
(369,8,l),
(182,50,l),
(301,541,l),
(292,540,l),
(585,0,l),
(598,0,l),
(919,595,l),
(883,565,l),
(1005,50,l),
(818,8,l),
(820,0,l),
(1178,0,l),
(1180,8,l),
(1040,50,l),
(923,552,l),
(1073,592,l),
(1071,600,l),
(889,600,l),
(578,31,l),
(607,31,l),
(296,600,l),
(126,600,l),
(124,592,l),
(270,549,l),
(150,50,l),
(10,8,l)
);
}
);
width = 1195;
},
{
anchors = (
{
name = bottom;
pos = (642,0);
},
{
name = top;
pos = (642,600);
}
);
layerId = m002;
shapes = (
{
closed = 1;
nodes = (
(-4,0,l),
(376,0,l),
(378,8,l),
(191,50,l),
(277,541,l),
(240,532,l),
(558,0,l),
(628,0,l),
(965,571,l),
(945,597,l),
(1013,50,l),
(836,8,l),
(838,0,l),
(1255,0,l),
(1257,8,l),
(1117,50,l),
(1039,552,l),
(1143,592,l),
(1141,600,l),
(929,600,l),
(594,38,l),
(635,65,l),
(318,600,l),
(86,600,l),
(84,592,l),
(237,549,l),
(134,50,l),
(-6,8,l)
);
}
);
width = 1256;
},
{
anchors = (
{
name = bottom;
pos = (382,0);
},
{
name = top;
pos = (390,600);
}
);
layerId = m003;
shapes = (
{
closed = 1;
nodes = (
(-2,0,l),
(267,0,l),
(269,8,l),
(159,45,l),
(211,550,l),
(200,543,l),
(334,0,l),
(395,0,l),
(528,582,l),
(504,590,l),
(571,45,l),
(462,8,l),
(464,0,l),
(761,0,l),
(763,8,l),
(653,45,l),
(578,557,l),
(682,592,l),
(680,600,l),
(484,600,l),
(359,28,l),
(394,61,l),
(256,600,l),
(63,600,l),
(61,592,l),
(172,554,l),
(106,45,l),
(-4,8,l)
);
}
);
width = 765;
},
{
anchors = (
{
name = bottom;
pos = (371,0);
},
{
name = top;
pos = (341,600);
}
);
layerId = "2C26E880-80A5-4D19-8A94-7D905A372841";
shapes = (
{
closed = 1;
nodes = (
(17,0,l),
(263,0,l),
(265,8,l),
(155,45,l),
(221,546,l),
(216,545,l),
(354,0,l),
(373,0,l),
(523,594,l),
(499,586,l),
(581,45,l),
(467,8,l),
(469,0,l),
(722,0,l),
(724,8,l),
(614,45,l),
(537,557,l),
(672,592,l),
(670,600,l),
(494,600,l),
(360,62,l),
(375,45,l),
(240,600,l),
(88,600,l),
(86,592,l),
(193,554,l),
(125,45,l),
(15,8,l)
);
}
);
width = 741;
}
);
unicode = 77;
},
{
glyphname = N;
kernLeft = N;
kernRight = N;
layers = (
{
anchors = (
{
name = bottom;
pos = (529,0);
},
{
name = top;
pos = (529,600);
}
);
layerId = "0CCC0E2D-406A-4672-8E6C-854B1DF78A27";
shapes = (
{
closed = 1;
nodes = (
(893,0,l),
(893,550,l),
(1014,592,l),
(1012,600,l),
(679,600,l),
(677,592,l),
(856,550,l),
(856,50,l),
(883,48,l),
(198,600,l),
(22,600,l),
(20,592,l),
(170,550,l),
(170,50,l),
(50,8,l),
(50,0,l),
(388,0,l),
(388,8,l),
(207,50,l),
(207,550,l),
(193,553,l),
(880,-2,l)
);
}
);
width = 1034;
},
{
anchors = (
{
name = bottom;
pos = (524,0);
},
{
name = top;
pos = (524,600);
}
);
layerId = m002;
shapes = (
{
closed = 1;
nodes = (
(888,0,l),
(893,550,l),
(1014,592,l),
(1012,600,l),
(657,600,l),
(655,592,l),
(834,550,l),
(839,50,l),
(878,80,l),
(208,600,l),
(6,600,l),
(4,592,l),
(154,550,l),
(150,50,l),
(30,8,l),
(30,0,l),
(389,0,l),
(389,8,l),
(208,50,l),
(202,550,l),
(157,523,l),
(843,-13,l)
);
}
);
width = 1018;
},
{
anchors = (
{
name = bottom;
pos = (289,0);
},
{
name = top;
pos = (289,600);
}
);
layerId = m003;
shapes = (
{
closed = 1;
nodes = (
(466,0,l),
(468,555,l),
(578,592,l),
(576,600,l),
(301,600,l),
(299,592,l),
(409,555,l),
(417,80,l),
(438,81,l),
(191,600,l),
(12,600,l),
(10,592,l),
(120,555,l),
(114,45,l),
(4,8,l),
(6,0,l),
(281,0,l),
(283,8,l),
(173,45,l),
(168,527,l),
(145,524,l),
(404,-11,l)
);
}
);
width = 586;
},
{
anchors = (
{
name = bottom;
pos = (282,0);
},
{
name = top;
pos = (282,600);
}
);
layerId = "2C26E880-80A5-4D19-8A94-7D905A372841";
shapes = (
{
closed = 1;
nodes = (
(447,0,l),
(447,555,l),
(557,592,l),
(555,600,l),
(309,600,l),
(307,592,l),
(417,555,l),
(417,42,l),
(431,61,l),
(173,600,l),
(22,600,l),
(20,592,l),
(130,555,l),
(131,45,l),
(21,8,l),
(23,0,l),
(269,0,l),
(271,8,l),
(161,45,l),
(161,583,l),
(149,569,l),
(420,-2,l)
);
}
);
width = 577;
}
);
unicode = 78;
},
{
glyphname = O;
kernLeft = O;
kernRight = O;
layers = (
{
anchors = (
{
name = bottom;
pos = (461,0);
},
{
name = center;
pos = (461,300);
},
{
name = ogonek;
pos = (848,10);
},
{
name = top;
pos = (461,600);
},
{
name = topleft;
pos = (-3,600);
},
{
name = topright;
pos = (925,600);
}
);
layerId = "0CCC0E2D-406A-4672-8E6C-854B1DF78A27";
shapes = (
{
closed = 1;
nodes = (
(718,-20,o),
(882,107,o),
(882,297,cs),
(882,494,o),
(718,625,o),
(471,625,cs),
(212,625,o),
(40,499,o),
(40,309,cs),
(40,112,o),
(213,-20,o),
(472,-20,cs)
);
},
{
closed = 1;
nodes = (
(240,15,o),
(82,135,o),
(82,315,cs),
(82,480,o),
(236,590,o),
(468,590,cs),
(691,590,o),
(840,471,o),
(840,292,cs),
(840,126,o),
(694,15,o),
(476,15,cs)
);
}
);
width = 927;
},
{
anchors = (
{
name = bottom;
pos = (481,0);
},
{
name = center;
pos = (481,300);
},
{
name = ogonek;
pos = (868,10);
},
{
name = top;
pos = (481,600);
},
{
name = topleft;
pos = (17,600);
},
{
name = topright;
pos = (945,600);
}
);
layerId = m002;
shapes = (
{
closed = 1;
nodes = (
(733,-20,o),
(938,127,o),
(938,313,cs),
(938,506,o),
(773,625,o),
(507,625,cs),
(240,625,o),
(24,478,o),
(24,293,cs),
(24,99,o),
(196,-20,o),
(476,-20,cs)
);
},
{
closed = 1;
nodes = (
(277,31,o),
(126,147,o),
(126,331,cs),
(126,483,o),
(257,574,o),
(472,574,cs),
(697,574,o),
(836,462,o),
(836,276,cs),
(836,117,o),
(723,31,o),
(512,31,cs)
);
}
);
width = 967;
},
{
anchors = (
{
name = bottom;
pos = (261,0);
},
{
name = center;
pos = (261,300);
},
{
name = ogonek;
pos = (343,10);
},
{
name = top;
pos = (261,600);
},
{
name = topleft;
pos = (7,600);
},
{
name = topright;
pos = (420,600);
}
);
layerId = m003;
shapes = (
{
closed = 1;
nodes = (
(406,-20,o),
(496,115,o),
(496,309,cs),
(496,492,o),
(415,620,o),
(272,620,cs),
(116,620,o),
(26,488,o),
(26,298,cs),
(26,111,o),
(107,-20,o),
(250,-20,cs)
);
},
{
closed = 1;
nodes = (
(167,28,o),
(111,152,o),
(111,327,cs),
(111,471,o),
(163,572,o),
(250,572,cs),
(355,572,o),
(412,452,o),
(412,281,cs),
(412,132,o),
(358,28,o),
(273,28,cs)
);
}
);
width = 529;
},
{
anchors = (
{
name = bottom;
pos = (250,0);
},
{
name = center;
pos = (250,300);
},
{
name = ogonek;
pos = (332,10);
},
{
name = top;
pos = (250,600);
},
{
name = topleft;
pos = (-4,600);
},
{
name = topright;
pos = (409,600);
}
);
layerId = "2C26E880-80A5-4D19-8A94-7D905A372841";
shapes = (
{
closed = 1;
nodes = (
(382,-20,o),
(455,94,o),
(455,298,cs),
(455,505,o),
(384,620,o),
(255,620,cs),
(120,620,o),
(45,507,o),
(45,303,cs),
(45,95,o),
(118,-20,o),
(250,-20,cs)
);
},
{
closed = 1;
nodes = (
(145,12,o),
(82,121,o),
(82,316,cs),
(82,491,o),
(142,588,o),
(250,588,cs),
(358,588,o),
(418,481,o),
(418,287,cs),
(418,110,o),
(361,12,o),
(257,12,cs)
);
}
);
width = 500;
}
);
unicode = 79;
},
{
glyphname = Oslash;
kernLeft = O;
kernRight = O;
layers = (
{
layerId = "0CCC0E2D-406A-4672-8E6C-854B1DF78A27";
shapes = (
{
closed = 1;
nodes = (
(233,-62,l),
(278,-62,l),
(748,669,l),
(703,669,l)
);
},
{
ref = O;
}
);
width = 927;
},
{
layerId = m002;
shapes = (
{
closed = 1;
nodes = (
(233,-62,l),
(278,-62,l),
(748,669,l),
(703,669,l)
);
},
{
ref = O;
}
);
width = 967;
},
{
layerId = m003;
shapes = (
{
closed = 1;
nodes = (
(123,-62,l),
(158,-62,l),
(407,669,l),
(372,669,l)
);
},
{
ref = O;
}
);
width = 529;
},
{
layerId = "2C26E880-80A5-4D19-8A94-7D905A372841";
shapes = (
{
closed = 1;
nodes = (
(123,-62,l),
(158,-62,l),
(407,669,l),
(372,669,l)
);
},
{
alignment = -1;
ref = O;
}
);
width = 500;
}
);
metricLeft = O;
metricRight = O;
unicode = 216;
},
{
glyphname = OE;
kernLeft = O;
kernRight = E;
layers = (
{
anchors = (
{
name = bottom;
pos = (636,0);
},
{
name = top;
pos = (636,600);
}
);
layerId = "0CCC0E2D-406A-4672-8E6C-854B1DF78A27";
shapes = (
{
closed = 1;
nodes = (
(82,480,o),
(224,580,o),
(438,580,cs),
(516,580,o),
(584,564,o),
(638,535,c),
(638,58,l),
(586,30,o),
(520,15,o),
(446,15,cs),
(228,15,o),
(82,135,o),
(82,315,cs)
);
},
{
closed = 1;
nodes = (
(40,112,o),
(201,-20,o),
(442,-20,cs),
(495,-20,o),
(545,-13,o),
(589,0,c),
(1195,0,l),
(1174,199,l),
(1166,197,l),
(1125,28,l),
(675,25,l),
(675,282,l),
(952,279,l),
(1017,157,l),
(1025,159,l),
(1006,293,l),
(1023,428,l),
(1015,430,l),
(952,308,l),
(675,305,l),
(675,577,l),
(1121,581,l),
(1145,422,l),
(1153,420,l),
(1192,612,l),
(568,601,l),
(529,610,o),
(487,615,o),
(441,615,cs),
(200,615,o),
(40,499,o),
(40,309,cs)
);
}
);
width = 1255;
},
{
anchors = (
{
name = bottom;
pos = (674,0);
},
{
name = top;
pos = (674,600);
}
);
layerId = m002;
shapes = (
{
closed = 1;
nodes = (
(125,471,o),
(251,564,o),
(442,564,cs),
(533,564,o),
(622,548,o),
(687,522,c),
(687,49,l),
(649,37,o),
(594,31,o),
(543,31,cs),
(291,31,o),
(125,151,o),
(125,331,cs)
);
},
{
closed = 1;
nodes = (
(24,112,o),
(206,-20,o),
(477,-20,cs),
(538,-20,o),
(615,-13,o),
(668,0,c),
(1281,0,l),
(1262,232,l),
(1257,230,l),
(1196,54,l),
(783,42,l),
(783,270,l),
(1036,267,l),
(1101,145,l),
(1109,147,l),
(1090,293,l),
(1107,440,l),
(1099,442,l),
(1036,320,l),
(784,314,l),
(784,559,l),
(1212,551,l),
(1237,392,l),
(1244,390,l),
(1299,612,l),
(675,600,l),
(626,601,o),
(561,615,o),
(507,615,cs),
(218,615,o),
(24,484,o),
(24,293,cs)
);
}
);
width = 1359;
},
{
anchors = (
{
name = bottom;
pos = (359,0);
},
{
name = top;
pos = (359,600);
}
);
layerId = m003;
shapes = (
{
closed = 1;
nodes = (
(111,471,o),
(163,572,o),
(250,572,cs),
(282,572,o),
(309,561,o),
(332,540,c),
(332,47,l),
(315,35,o),
(295,28,o),
(273,28,cs),
(167,28,o),
(111,152,o),
(111,327,cs)
);
},
{
closed = 1;
nodes = (
(26,111,o),
(107,-20,o),
(250,-20,cs),
(286,-20,o),
(317,-13,o),
(346,0,c),
(694,0,l),
(673,219,l),
(665,217,l),
(617,43,l),
(411,33,l),
(411,275,l),
(504,273,l),
(564,151,l),
(572,153,l),
(553,293,l),
(570,435,l),
(562,437,l),
(504,315,l),
(411,313,l),
(411,570,l),
(613,564,l),
(644,403,l),
(652,401,l),
(691,612,l),
(354,604,l),
(329,614,o),
(303,620,o),
(272,620,cs),
(116,620,o),
(26,488,o),
(26,298,cs)
);
}
);
width = 742;
},
{
anchors = (
{
name = bottom;
pos = (367,0);
},
{
name = top;
pos = (367,600);
}
);
layerId = "2C26E880-80A5-4D19-8A94-7D905A372841";
shapes = (
{
closed = 1;
nodes = (
(82,491,o),
(142,588,o),
(250,588,cs),
(283,588,o),
(311,578,o),
(335,559,c),
(335,36,l),
(313,20,o),
(287,12,o),
(257,12,cs),
(145,12,o),
(82,121,o),
(82,316,cs)
);
},
{
closed = 1;
nodes = (
(45,95,o),
(118,-20,o),
(250,-20,cs),
(282,-20,o),
(310,-13,o),
(335,0,c),
(642,0,l),
(621,198,l),
(613,196,l),
(576,30,l),
(370,25,l),
(370,279,l),
(467,279,l),
(527,156,l),
(535,158,l),
(516,292,l),
(533,429,l),
(525,433,l),
(467,309,l),
(370,309,l),
(370,579,l),
(572,575,l),
(592,423,l),
(600,421,l),
(639,612,l),
(339,600,l),
(314,613,o),
(286,620,o),
(255,620,cs),
(120,620,o),
(45,507,o),
(45,303,cs)
);
}
);
width = 702;
}
);
metricLeft = O;
metricRight = E;
unicode = 338;
},
{
glyphname = P;
kernLeft = H;
kernRight = P;
layers = (
{
anchors = (
{
name = bottom;
pos = (431,0);
},
{
name = top;
pos = (431,600);
}
);
layerId = "0CCC0E2D-406A-4672-8E6C-854B1DF78A27";
shapes = (
{
closed = 1;
nodes = (
(42,0,l),
(406,0,l),
(408,8,l),
(217,52,l),
(217,255,l),
(518,256,ls),
(696,257,o),
(789,315,o),
(789,426,cs),
(789,540,o),
(693,600,o),
(508,600,cs),
(32,600,l),
(30,592,l),
(180,550,l),
(180,50,l),
(40,8,l)
);
},
{
closed = 1;
nodes = (
(217,573,l),
(508,573,ls),
(668,573,o),
(751,520,o),
(751,418,cs),
(751,331,o),
(675,285,o),
(528,285,cs),
(217,285,l)
);
}
);
width = 829;
},
{
anchors = (
{
name = bottom;
pos = (449,0);
},
{
name = top;
pos = (449,600);
}
);
layerId = m002;
shapes = (
{
closed = 1;
nodes = (
(26,0,l),
(447,0,l),
(449,8,l),
(260,52,l),
(260,252,l),
(520,252,ls),
(720,252,o),
(846,299,o),
(846,433,cs),
(846,557,o),
(721,600,o),
(526,600,cs),
(16,600,l),
(14,592,l),
(164,550,l),
(164,50,l),
(24,8,l)
);
},
{
closed = 1;
nodes = (
(260,553,l),
(480,553,ls),
(609,553,o),
(743,548,o),
(743,415,cs),
(743,313,o),
(639,287,o),
(500,293,cs),
(260,304,l)
);
}
);
width = 870;
},
{
anchors = (
{
name = bottom;
pos = (261,0);
},
{
name = top;
pos = (261,600);
}
);
background = {
shapes = (
{
closed = 1;
nodes = (
(12,0,l),
(298,0,l),
(300,8,l),
(190,45,l),
(190,555,l),
(300,592,l),
(298,600,l),
(12,600,l),
(10,592,l),
(120,555,l),
(120,45,l),
(10,8,l)
);
}
);
};
layerId = m003;
shapes = (
{
closed = 1;
nodes = (
(10,0,l),
(335,0,l),
(337,8,l),
(197,47,l),
(197,256,l),
(273,256,ls),
(384,256,o),
(470,333,o),
(470,431,cs),
(470,524,o),
(391,600,o),
(296,600,cs),
(10,600,l),
(8,592,l),
(118,555,l),
(118,45,l),
(8,8,l)
);
},
{
closed = 1;
nodes = (
(197,562,l),
(261,566,ls),
(327,570,o),
(385,510,o),
(385,416,cs),
(385,341,o),
(326,285,o),
(259,291,cs),
(197,297,l)
);
}
);
width = 498;
},
{
anchors = (
{
name = bottom;
pos = (248,0);
},
{
name = top;
pos = (248,600);
}
);
layerId = "2C26E880-80A5-4D19-8A94-7D905A372841";
shapes = (
{
closed = 1;
nodes = (
(22,0,l),
(304,0,l),
(306,8,l),
(165,47,l),
(165,257,l),
(259,258,ls),
(357,259,o),
(427,329,o),
(427,426,cs),
(427,523,o),
(358,600,o),
(270,600,cs),
(22,600,l),
(20,592,l),
(130,555,l),
(130,45,l),
(20,8,l)
);
},
{
closed = 1;
nodes = (
(165,571,l),
(258,575,ls),
(333,578,o),
(392,504,o),
(392,418,cs),
(392,341,o),
(342,283,o),
(268,285,cs),
(165,288,l)
);
}
);
width = 467;
}
);
metricLeft = H;
unicode = 80;
},
{
glyphname = Thorn;
kernLeft = H;
kernRight = P;
layers = (
{
layerId = "0CCC0E2D-406A-4672-8E6C-854B1DF78A27";
shapes = (
{
closed = 1;
nodes = (
(32,0,l),
(370,0,l),
(372,8,l),
(222,50,l),
(222,134,l),
(523,135,ls),
(710,136,o),
(794,188,o),
(794,305,cs),
(794,425,o),
(706,479,o),
(513,479,cs),
(222,479,l),
(222,550,l),
(377,592,l),
(375,600,l),
(37,600,l),
(35,592,l),
(185,550,l),
(185,50,l),
(30,8,l)
);
},
{
closed = 1;
nodes = (
(222,452,l),
(513,452,ls),
(683,452,o),
(756,396,o),
(756,297,cs),
(756,207,o),
(689,164,o),
(533,164,cs),
(222,164,l)
);
}
);
width = 834;
},
{
layerId = m002;
shapes = (
{
closed = 1;
nodes = (
(16,0,l),
(411,0,l),
(413,8,l),
(217,50,l),
(217,133,l),
(478,134,ls),
(686,135,o),
(803,190,o),
(803,313,cs),
(803,434,o),
(674,480,o),
(484,480,cs),
(217,480,l),
(217,550,l),
(418,592,l),
(416,600,l),
(21,600,l),
(19,592,l),
(123,550,l),
(123,50,l),
(14,8,l)
);
},
{
closed = 1;
nodes = (
(217,434,l),
(436,434,ls),
(561,434,o),
(700,430,o),
(700,296,cs),
(700,201,o),
(569,178,o),
(456,178,cs),
(217,178,l)
);
}
);
width = 827;
},
{
layerId = m003;
shapes = (
{
closed = 1;
nodes = (
(12,0,l),
(342,0,l),
(344,8,l),
(197,45,l),
(197,132,l),
(273,133,ls),
(382,134,o),
(470,204,o),
(470,309,cs),
(470,409,o),
(390,478,o),
(271,478,cs),
(197,478,l),
(197,555,l),
(343,592,l),
(341,600,l),
(10,600,l),
(8,592,l),
(118,555,l),
(118,45,l),
(10,8,l)
);
},
{
closed = 1;
nodes = (
(197,442,l),
(261,441,ls),
(324,440,o),
(385,367,o),
(385,293,cs),
(385,219,o),
(327,163,o),
(259,169,cs),
(197,174,l)
);
}
);
width = 498;
},
{
background = {
anchors = (
{
name = bottom;
pos = (254,-121);
}
);
};
layerId = "2C26E880-80A5-4D19-8A94-7D905A372841";
shapes = (
{
closed = 1;
nodes = (
(22,0,l),
(279,0,l),
(281,8,l),
(171,45,l),
(171,136,l),
(265,137,ls),
(363,138,o),
(433,208,o),
(433,305,cs),
(433,402,o),
(364,479,o),
(276,479,cs),
(171,479,l),
(171,555,l),
(286,592,l),
(284,600,l),
(28,600,l),
(26,592,l),
(136,555,l),
(136,45,l),
(20,8,l)
);
},
{
closed = 1;
nodes = (
(171,449,l),
(264,453,ls),
(343,456,o),
(398,388,o),
(398,297,cs),
(398,220,o),
(348,160,o),
(274,164,cs),
(171,169,l)
);
}
);
width = 473;
}
);
metricLeft = P;
metricRight = P;
unicode = 222;
},
{
glyphname = Q;
kernLeft = O;
kernRight = O;
layers = (
{
associatedMasterId = "0CCC0E2D-406A-4672-8E6C-854B1DF78A27";
layerId = "37ACA70E-5713-4BE5-ACC0-CFF013DC889D";
name = "Mar 28 18, 15:13";
shapes = (
{
closed = 1;
nodes = (
(744,-20,o),
(928,115,o),
(928,307,cs),
(928,493,o),
(752,625,o),
(504,625,cs),
(232,625,o),
(40,490,o),
(40,299,cs),
(40,112,o),
(224,-20,o),
(485,-20,cs)
);
},
{
closed = 1;
nodes = (
(289,25,o),
(120,145,o),
(120,325,cs),
(120,474,o),
(261,580,o),
(461,580,cs),
(688,580,o),
(848,457,o),
(848,282,cs),
(848,131,o),
(716,25,o),
(529,25,cs)
);
},
{
closed = 1;
nodes = (
(524,202,l),
(484,195,l),
(701,-158,l),
(786,-145,l)
);
}
);
width = 968;
},
{
associatedMasterId = "0CCC0E2D-406A-4672-8E6C-854B1DF78A27";
layerId = "047676F6-4566-4037-A2C9-BC1BAA19EAE7";
name = "Jun 9 18, 17:17";
shapes = (
{
closed = 1;
nodes = (
(764,-20,o),
(948,115,o),
(948,307,cs),
(948,493,o),
(772,625,o),
(524,625,cs),
(252,625,o),
(60,490,o),
(60,299,cs),
(60,112,o),
(244,-20,o),
(505,-20,cs)
);
},
{
closed = 1;
nodes = (
(309,25,o),
(140,145,o),
(140,325,cs),
(140,474,o),
(281,580,o),
(481,580,cs),
(708,580,o),
(868,457,o),
(868,282,cs),
(868,131,o),
(736,25,o),
(549,25,cs)
);
},
{
closed = 1;
nodes = (
(463,172,l),
(829,-163,l),
(860,-137,l),
(531,229,l)
);
}
);
width = 1008;
},
{
associatedMasterId = "0CCC0E2D-406A-4672-8E6C-854B1DF78A27";
layerId = "1AC5EE05-1C4B-4860-A927-501E2FFF3073";
name = "Mar 28 18, 15:13";
shapes = (
{
closed = 1;
nodes = (
(744,-20,o),
(928,115,o),
(928,307,cs),
(928,493,o),
(752,625,o),
(504,625,cs),
(232,625,o),
(40,490,o),
(40,299,cs),
(40,112,o),
(224,-20,o),
(485,-20,cs)
);
},
{
closed = 1;
nodes = (
(289,25,o),
(120,145,o),
(120,325,cs),
(120,474,o),
(261,580,o),
(461,580,cs),
(688,580,o),
(848,457,o),
(848,282,cs),
(848,131,o),
(716,25,o),
(529,25,cs)
);
},
{
closed = 1;
nodes = (
(524,202,l),
(484,195,l),
(701,-158,l),
(786,-145,l)
);
}
);
width = 968;
},
{
associatedMasterId = "0CCC0E2D-406A-4672-8E6C-854B1DF78A27";
layerId = "65FE9274-A69F-4605-954C-5F86FE1E3C13";
name = "Jun 9 18, 17:17";
shapes = (
{
closed = 1;
nodes = (
(764,-20,o),
(948,115,o),
(948,307,cs),
(948,493,o),
(772,625,o),
(524,625,cs),
(252,625,o),
(60,490,o),
(60,299,cs),
(60,112,o),
(244,-20,o),
(505,-20,cs)
);
},
{
closed = 1;
nodes = (
(309,25,o),
(140,145,o),
(140,325,cs),
(140,474,o),
(281,580,o),
(481,580,cs),
(708,580,o),
(868,457,o),
(868,282,cs),
(868,131,o),
(736,25,o),
(549,25,cs)
);
},
{
closed = 1;
nodes = (
(463,172,l),
(829,-163,l),
(860,-137,l),
(531,229,l)
);
}
);
width = 1008;
},
{
associatedMasterId = "0CCC0E2D-406A-4672-8E6C-854B1DF78A27";
layerId = "81BB2019-E811-4380-A657-0C2A9AD5BC57";
name = "8 Dec 21, 16:04";
shapes = (
{
closed = 1;
nodes = (
(40,112,o),
(224,-20,o),
(485,-20,cs),
(538,-20,o),
(589,-14,o),
(635,-3,c),
(809,-163,l),
(840,-137,l),
(702,17,l),
(841,70,o),
(928,175,o),
(928,307,cs),
(928,493,o),
(752,625,o),
(504,625,cs),
(232,625,o),
(40,490,o),
(40,299,cs)
);
},
{
closed = 1;
nodes = (
(120,474,o),
(244,580,o),
(461,580,cs),
(689,580,o),
(848,457,o),
(848,282,cs),
(848,172,o),
(788,85,o),
(675,47,c),
(511,229,l),
(443,172,l),
(599,29,l),
(577,27,o),
(554,25,o),
(529,25,cs),
(289,25,o),
(120,145,o),
(120,325,cs)
);
}
);
width = 968;
},
{
anchors = (
{
name = bottom;
pos = (484,0);
},
{
name = top;
pos = (484,600);
}
);
associatedMasterId = "0CCC0E2D-406A-4672-8E6C-854B1DF78A27";
layerId = "E5726C61-028B-4038-916C-25E98D51B7DA";
name = "16 Dec 21, 11:59";
shapes = (
{
closed = 1;
nodes = (
(568,204,o),
(661,128,o),
(852,-117,c),
(878,-98,l),
(733,140,o),
(623,255,o),
(445,255,cs),
(318,255,o),
(228,225,o),
(133,140,c),
(153,94,l),
(241,173,o),
(312,204,o),
(410,204,cs)
);
},
{
ref = O;
}
);
width = 968;
},
{
anchors = (
{
name = bottom;
pos = (484,0);
},
{
name = center;
pos = (461,300);
},
{
name = ogonek;
pos = (848,10);
},
{
name = top;
pos = (484,600);
},
{
name = topleft;
pos = (-3,600);
},
{
name = topright;
pos = (925,600);
}
);
layerId = "0CCC0E2D-406A-4672-8E6C-854B1DF78A27";
name = Extended;
shapes = (
{
closed = 1;
nodes = (
(579,205,o),
(696,119,o),
(696,2,cs),
(696,-65,o),
(664,-140,o),
(602,-202,c),
(612,-212,l),
(686,-158,o),
(732,-72,o),
(732,12,cs),
(732,143,o),
(606,240,o),
(435,240,cs),
(323,240,o),
(212,198,o),
(133,125,c),
(153,100,l),
(231,169,o),
(327,205,o),
(425,205,cs)
);
},
{
closed = 1;
nodes = (
(718,-20,o),
(882,107,o),
(882,297,cs),
(882,494,o),
(718,625,o),
(471,625,cs),
(212,625,o),
(40,499,o),
(40,309,cs),
(40,112,o),
(213,-20,o),
(472,-20,cs)
);
},
{
closed = 1;
nodes = (
(240,15,o),
(82,135,o),
(82,315,cs),
(82,480,o),
(236,590,o),
(468,590,cs),
(691,590,o),
(840,471,o),
(840,292,cs),
(840,126,o),
(694,15,o),
(476,15,cs)
);
}
);
width = 927;
},
{
associatedMasterId = m002;
layerId = "EF7AD874-CB00-4657-8BCE-EC0829BD2124";
name = "Mar 28 18, 15:13";
shapes = (
{
closed = 1;
nodes = (
(744,-20,o),
(928,115,o),
(928,307,cs),
(928,493,o),
(752,625,o),
(504,625,cs),
(232,625,o),
(40,490,o),
(40,299,cs),
(40,112,o),
(224,-20,o),
(485,-20,cs)
);
},
{
closed = 1;
nodes = (
(289,25,o),
(120,145,o),
(120,325,cs),
(120,474,o),
(261,580,o),
(461,580,cs),
(688,580,o),
(848,457,o),
(848,282,cs),
(848,131,o),
(716,25,o),
(529,25,cs)
);
},
{
closed = 1;
nodes = (
(524,202,l),
(484,195,l),
(701,-158,l),
(786,-145,l)
);
}
);
width = 968;
},
{
associatedMasterId = m002;
layerId = "D331C81A-C313-4B7E-94FC-1031B7FE440B";
name = "Jun 9 18, 17:17";
shapes = (
{
closed = 1;
nodes = (
(764,-20,o),
(948,115,o),
(948,307,cs),
(948,493,o),
(772,625,o),
(524,625,cs),
(252,625,o),
(60,490,o),
(60,299,cs),
(60,112,o),
(244,-20,o),
(505,-20,cs)
);
},
{
closed = 1;
nodes = (
(309,25,o),
(140,145,o),
(140,325,cs),
(140,474,o),
(281,580,o),
(481,580,cs),
(708,580,o),
(868,457,o),
(868,282,cs),
(868,131,o),
(736,25,o),
(549,25,cs)
);
},
{
closed = 1;
nodes = (
(463,172,l),
(829,-163,l),
(860,-137,l),
(531,229,l)
);
}
);
width = 1008;
},
{
associatedMasterId = m002;
layerId = "D2B8386D-5C59-4216-A6B2-B5023A7B5E33";
name = "Mar 28 18, 15:13";
shapes = (
{
closed = 1;
nodes = (
(744,-20,o),
(928,115,o),
(928,307,cs),
(928,493,o),
(752,625,o),
(504,625,cs),
(232,625,o),
(40,490,o),
(40,299,cs),
(40,112,o),
(224,-20,o),
(485,-20,cs)
);
},
{
closed = 1;
nodes = (
(289,25,o),
(120,145,o),
(120,325,cs),
(120,474,o),
(261,580,o),
(461,580,cs),
(688,580,o),
(848,457,o),
(848,282,cs),
(848,131,o),
(716,25,o),
(529,25,cs)
);
},
{
closed = 1;
nodes = (
(524,202,l),
(484,195,l),
(701,-158,l),
(786,-145,l)
);
}
);
width = 968;
},
{
associatedMasterId = m002;
layerId = "D5F57928-6493-40A8-AA00-5C744BC4C704";
name = "Jun 9 18, 17:17";
shapes = (
{
closed = 1;
nodes = (
(764,-20,o),
(948,115,o),
(948,307,cs),
(948,493,o),
(772,625,o),
(524,625,cs),
(252,625,o),
(60,490,o),
(60,299,cs),
(60,112,o),
(244,-20,o),
(505,-20,cs)
);
},
{
closed = 1;
nodes = (
(309,25,o),
(140,145,o),
(140,325,cs),
(140,474,o),
(281,580,o),
(481,580,cs),
(708,580,o),
(868,457,o),
(868,282,cs),
(868,131,o),
(736,25,o),
(549,25,cs)
);
},
{
closed = 1;
nodes = (
(463,172,l),
(829,-163,l),
(860,-137,l),
(531,229,l)
);
}
);
width = 1008;
},
{
associatedMasterId = m002;
layerId = "712C5D4C-FAE0-4027-98FA-5F35D423EB8D";
name = "8 Dec 21, 16:04";
shapes = (
{
closed = 1;
nodes = (
(40,112,o),
(224,-20,o),
(485,-20,cs),
(538,-20,o),
(589,-14,o),
(635,-3,c),
(809,-163,l),
(840,-137,l),
(702,17,l),
(841,70,o),
(928,175,o),
(928,307,cs),
(928,493,o),
(752,625,o),
(504,625,cs),
(232,625,o),
(40,490,o),
(40,299,cs)
);
},
{
closed = 1;
nodes = (
(120,474,o),
(244,580,o),
(461,580,cs),
(689,580,o),
(848,457,o),
(848,282,cs),
(848,172,o),
(788,85,o),
(675,47,c),
(511,229,l),
(443,172,l),
(599,29,l),
(577,27,o),
(554,25,o),
(529,25,cs),
(289,25,o),
(120,145,o),
(120,325,cs)
);
}
);
width = 968;
},
{
anchors = (
{
name = bottom;
pos = (484,0);
},
{
name = top;
pos = (484,600);
}
);
associatedMasterId = m002;
layerId = "2985386E-6012-4042-9DD9-61390526335B";
name = "16 Dec 21, 11:59";
shapes = (
{
closed = 1;
nodes = (
(568,204,o),
(661,128,o),
(852,-117,c),
(878,-98,l),
(733,140,o),
(623,255,o),
(445,255,cs),
(318,255,o),
(228,225,o),
(133,140,c),
(153,94,l),
(241,173,o),
(312,204,o),
(410,204,cs)
);
},
{
ref = O;
}
);
width = 968;
},
{
anchors = (
{
name = bottom;
pos = (484,0);
},
{
name = center;
pos = (481,300);
},
{
name = ogonek;
pos = (868,10);
},
{
name = top;
pos = (484,600);
},
{
name = topleft;
pos = (17,600);
},
{
name = topright;
pos = (945,600);
}
);
layerId = m002;
name = Extended;
shapes = (
{
closed = 1;
nodes = (
(563,204,o),
(679,100,o),
(679,-44,cs),
(679,-118,o),
(648,-182,o),
(602,-202,c),
(612,-212,l),
(703,-183,o),
(768,-89,o),
(768,12,cs),
(768,156,o),
(638,256,o),
(451,256,cs),
(330,256,o),
(221,214,o),
(133,133,c),
(153,91,l),
(240,171,o),
(312,204,o),
(402,204,cs)
);
},
{
closed = 1;
nodes = (
(733,-20,o),
(938,127,o),
(938,313,cs),
(938,506,o),
(773,625,o),
(507,625,cs),
(240,625,o),
(24,478,o),
(24,293,cs),
(24,99,o),
(196,-20,o),
(476,-20,cs)
);
},
{
closed = 1;
nodes = (
(277,31,o),
(126,147,o),
(126,331,cs),
(126,483,o),
(257,574,o),
(472,574,cs),
(697,574,o),
(836,462,o),
(836,276,cs),
(836,117,o),
(723,31,o),
(512,31,cs)
);
}
);
width = 967;
},
{
associatedMasterId = m003;
layerId = "087D7EDF-81EE-4F90-B614-AADC1B080DA8";
name = "Mar 28 18, 15:13";
shapes = (
{
closed = 1;
nodes = (
(744,-20,o),
(928,115,o),
(928,307,cs),
(928,493,o),
(752,625,o),
(504,625,cs),
(232,625,o),
(40,490,o),
(40,299,cs),
(40,112,o),
(224,-20,o),
(485,-20,cs)
);
},
{
closed = 1;
nodes = (
(289,25,o),
(120,145,o),
(120,325,cs),
(120,474,o),
(261,580,o),
(461,580,cs),
(688,580,o),
(848,457,o),
(848,282,cs),
(848,131,o),
(716,25,o),
(529,25,cs)
);
},
{
closed = 1;
nodes = (
(524,202,l),
(484,195,l),
(701,-158,l),
(786,-145,l)
);
}
);
width = 968;
},
{
associatedMasterId = m003;
layerId = "BD8D46B9-C8F6-4BFC-9EB8-17F28EFFEDAC";
name = "Jun 9 18, 17:17";
shapes = (
{
closed = 1;
nodes = (
(764,-20,o),
(948,115,o),
(948,307,cs),
(948,493,o),
(772,625,o),
(524,625,cs),
(252,625,o),
(60,490,o),
(60,299,cs),
(60,112,o),
(244,-20,o),
(505,-20,cs)
);
},
{
closed = 1;
nodes = (
(309,25,o),
(140,145,o),
(140,325,cs),
(140,474,o),
(281,580,o),
(481,580,cs),
(708,580,o),
(868,457,o),
(868,282,cs),
(868,131,o),
(736,25,o),
(549,25,cs)
);
},
{
closed = 1;
nodes = (
(463,172,l),
(829,-163,l),
(860,-137,l),
(531,229,l)
);
}
);
width = 1008;
},
{
associatedMasterId = m003;
layerId = "88BC52F5-D8A2-4BA7-BBA2-AEB146113B1C";
name = "Mar 28 18, 15:13";
shapes = (
{
closed = 1;
nodes = (
(744,-20,o),
(928,115,o),
(928,307,cs),
(928,493,o),
(752,625,o),
(504,625,cs),
(232,625,o),
(40,490,o),
(40,299,cs),
(40,112,o),
(224,-20,o),
(485,-20,cs)
);
},
{
closed = 1;
nodes = (
(289,25,o),
(120,145,o),
(120,325,cs),
(120,474,o),
(261,580,o),
(461,580,cs),
(688,580,o),
(848,457,o),
(848,282,cs),
(848,131,o),
(716,25,o),
(529,25,cs)
);
},
{
closed = 1;
nodes = (
(524,202,l),
(484,195,l),
(701,-158,l),
(786,-145,l)
);
}
);
width = 968;
},
{
associatedMasterId = m003;
layerId = "35D681DB-F282-474F-9116-DEBCD07AC371";
name = "Jun 9 18, 17:17";
shapes = (
{
closed = 1;
nodes = (
(764,-20,o),
(948,115,o),
(948,307,cs),
(948,493,o),
(772,625,o),
(524,625,cs),
(252,625,o),
(60,490,o),
(60,299,cs),
(60,112,o),
(244,-20,o),
(505,-20,cs)
);
},
{
closed = 1;
nodes = (
(309,25,o),
(140,145,o),
(140,325,cs),
(140,474,o),
(281,580,o),
(481,580,cs),
(708,580,o),
(868,457,o),
(868,282,cs),
(868,131,o),
(736,25,o),
(549,25,cs)
);
},
{
closed = 1;
nodes = (
(463,172,l),
(829,-163,l),
(860,-137,l),
(531,229,l)
);
}
);
width = 1008;
},
{
associatedMasterId = m003;
layerId = "2C38DAAC-416F-4C23-BC84-75CF1D76DBAB";
name = "8 Dec 21, 16:04";
shapes = (
{
closed = 1;
nodes = (
(40,112,o),
(224,-20,o),
(485,-20,cs),
(538,-20,o),
(589,-14,o),
(635,-3,c),
(809,-163,l),
(840,-137,l),
(702,17,l),
(841,70,o),
(928,175,o),
(928,307,cs),
(928,493,o),
(752,625,o),
(504,625,cs),
(232,625,o),
(40,490,o),
(40,299,cs)
);
},
{
closed = 1;
nodes = (
(120,474,o),
(244,580,o),
(461,580,cs),
(689,580,o),
(848,457,o),
(848,282,cs),
(848,172,o),
(788,85,o),
(675,47,c),
(511,229,l),
(443,172,l),
(599,29,l),
(577,27,o),
(554,25,o),
(529,25,cs),
(289,25,o),
(120,145,o),
(120,325,cs)
);
}
);
width = 968;
},
{
anchors = (
{
name = bottom;
pos = (484,0);
},
{
name = top;
pos = (484,600);
}
);
associatedMasterId = m003;
layerId = "5AAA4791-3826-4F9E-8AA3-A9508B7137EF";
name = "16 Dec 21, 11:59";
shapes = (
{
closed = 1;
nodes = (
(568,204,o),
(661,128,o),
(852,-117,c),
(878,-98,l),
(733,140,o),
(623,255,o),
(445,255,cs),
(318,255,o),
(228,225,o),
(133,140,c),
(153,94,l),
(241,173,o),
(312,204,o),
(410,204,cs)
);
},
{
ref = O;
}
);
width = 968;
},
{
anchors = (
{
name = bottom;
pos = (263,0);
},
{
name = center;
pos = (261,300);
},
{
name = ogonek;
pos = (343,10);
},
{
name = top;
pos = (263,600);
},
{
name = topleft;
pos = (7,600);
},
{
name = topright;
pos = (420,600);
}
);
layerId = m003;
name = Extended;
shapes = (
{
closed = 1;
nodes = (
(245,203,o),
(280,145,o),
(280,48,cs),
(280,-53,o),
(242,-130,o),
(162,-193,c),
(171,-202,l),
(283,-149,o),
(352,-37,o),
(352,92,cs),
(352,197,o),
(309,252,o),
(227,252,cs),
(159,252,o),
(111,215,o),
(98,161,c),
(111,143,l),
(130,187,o),
(155,203,o),
(186,203,cs)
);
},
{
closed = 1;
nodes = (
(406,-20,o),
(496,115,o),
(496,309,cs),
(496,492,o),
(415,620,o),
(272,620,cs),
(116,620,o),
(26,488,o),
(26,298,cs),
(26,111,o),
(107,-20,o),
(250,-20,cs)
);
},
{
closed = 1;
nodes = (
(167,26,o),
(106,152,o),
(106,327,cs),
(106,471,o),
(163,574,o),
(250,574,cs),
(355,574,o),
(416,452,o),
(416,281,cs),
(416,132,o),
(358,26,o),
(273,26,cs)
);
}
);
width = 529;
},
{
anchors = (
{
name = bottom;
pos = (264,0);
},
{
name = top;
pos = (264,600);
}
);
associatedMasterId = m003;
layerId = "1D6F2FB5-EE0D-492B-AB5A-8E0B0C038722";
name = "12 Mar 22, 12:54";
shapes = (
{
closed = 1;
nodes = (
(258,204,o),
(315,125,o),
(315,32,cs),
(315,-44,o),
(275,-112,o),
(182,-192,c),
(192,-202,l),
(309,-137,o),
(380,-34,o),
(380,72,cs),
(380,176,o),
(315,250,o),
(225,250,cs),
(163,250,o),
(113,216,o),
(93,160,c),
(106,144,l),
(129,185,o),
(157,204,o),
(190,204,cs)
);
},
{
ref = O;
}
);
width = 523;
},
{
anchors = (
{
name = bottom;
pos = (269,0);
},
{
name = center;
pos = (250,300);
},
{
name = ogonek;
pos = (332,10);
},
{
name = top;
pos = (269,600);
},
{
name = topleft;
pos = (-4,600);
},
{
name = topright;
pos = (409,600);
}
);
layerId = "2C26E880-80A5-4D19-8A94-7D905A372841";
name = Extended;
shapes = (
{
closed = 1;
nodes = (
(263,207,o),
(306,149,o),
(306,70,cs),
(306,-7,o),
(266,-80,o),
(162,-189,c),
(176,-204,l),
(286,-104,o),
(341,-6,o),
(341,92,cs),
(341,182,o),
(292,241,o),
(217,241,cs),
(165,241,o),
(118,213,o),
(74,155,c),
(87,150,l),
(128,187,o),
(169,207,o),
(205,207,cs)
);
},
{
closed = 1;
nodes = (
(382,-20,o),
(455,94,o),
(455,298,cs),
(455,505,o),
(384,620,o),
(255,620,cs),
(120,620,o),
(45,507,o),
(45,303,cs),
(45,95,o),
(118,-20,o),
(250,-20,cs)
);
},
{
closed = 1;
nodes = (
(145,11,o),
(79,121,o),
(79,316,cs),
(79,491,o),
(142,588,o),
(250,588,cs),
(358,588,o),
(421,481,o),
(421,287,cs),
(421,110,o),
(361,11,o),
(257,11,cs)
);
}
);
width = 500;
}
);
metricLeft = O;
metricRight = O;
unicode = 81;
},
{
glyphname = R;
kernLeft = H;
kernRight = R;
layers = (
{
associatedMasterId = "0CCC0E2D-406A-4672-8E6C-854B1DF78A27";
layerId = "F3BBF246-7A5F-47B7-9EE5-022757B0F994";
name = "Extended Mar 31 18, 15:49";
shapes = (
{
closed = 1;
nodes = (
(190,550,l),
(190,50,l),
(40,3,l),
(42,0,l),
(414,0,l),
(416,4,l),
(266,50,l),
(265,550,l),
(265,600,l),
(42,600,l),
(40,597,l)
);
},
{
closed = 1;
nodes = (
(551,267,l),
(909,-68,l),
(958,-58,l),
(657,277,l)
);
},
{
closed = 1;
nodes = (
(620,560,ls),
(761,560,o),
(876,538,o),
(876,416,cs),
(876,323,o),
(768,293,o),
(640,293,c),
(226,292,l),
(226,253,l),
(650,254,ls),
(842,255,o),
(956,305,o),
(956,430,cs),
(956,551,o),
(842,600,o),
(650,600,cs),
(211,600,l),
(211,560,l)
);
}
);
width = 996;
},
{
anchors = (
{
name = bottom;
pos = (480,0);
},
{
name = top;
pos = (460,600);
}
);
layerId = "0CCC0E2D-406A-4672-8E6C-854B1DF78A27";
shapes = (
{
closed = 1;
nodes = (
(568,276,ls),
(766,277,o),
(839,337,o),
(839,436,cs),
(839,544,o),
(743,600,o),
(558,600,cs),
(32,600,l),
(30,592,l),
(180,550,l),
(180,50,l),
(40,8,l),
(42,0,l),
(406,0,l),
(408,8,l),
(217,52,l),
(217,275,l)
);
},
{
closed = 1;
nodes = (
(217,573,l),
(558,573,ls),
(718,573,o),
(801,523,o),
(801,428,cs),
(801,361,o),
(760,305,o),
(578,305,cs),
(217,305,l)
);
},
{
closed = 1;
nodes = (
(538,285,l),
(679,50,l),
(539,8,l),
(541,0,l),
(878,0,l),
(880,8,l),
(720,50,l),
(579,285,l)
);
}
);
width = 895;
},
{
associatedMasterId = "0CCC0E2D-406A-4672-8E6C-854B1DF78A27";
layerId = "54BA13CA-5A69-4900-A9F3-01EF8D357D37";
name = "Extended Mar 31 18, 15:49";
shapes = (
{
closed = 1;
nodes = (
(190,550,l),
(190,50,l),
(40,3,l),
(42,0,l),
(414,0,l),
(416,4,l),
(266,50,l),
(265,550,l),
(265,600,l),
(42,600,l),
(40,597,l)
);
},
{
closed = 1;
nodes = (
(551,267,l),
(909,-68,l),
(958,-58,l),
(657,277,l)
);
},
{
closed = 1;
nodes = (
(620,560,ls),
(761,560,o),
(876,538,o),
(876,416,cs),
(876,323,o),
(768,293,o),
(640,293,c),
(226,292,l),
(226,253,l),
(650,254,ls),
(842,255,o),
(956,305,o),
(956,430,cs),
(956,551,o),
(842,600,o),
(650,600,cs),
(211,600,l),
(211,560,l)
);
}
);
width = 996;
},
{
associatedMasterId = m002;
layerId = "27EFD73D-BDE1-42BE-89E3-4AFFE868A76E";
name = "Extended Mar 31 18, 15:49";
shapes = (
{
closed = 1;
nodes = (
(190,550,l),
(190,50,l),
(40,3,l),
(42,0,l),
(414,0,l),
(416,4,l),
(266,50,l),
(265,550,l),
(265,600,l),
(42,600,l),
(40,597,l)
);
},
{
closed = 1;
nodes = (
(551,267,l),
(909,-68,l),
(958,-58,l),
(657,277,l)
);
},
{
closed = 1;
nodes = (
(620,560,ls),
(761,560,o),
(876,538,o),
(876,416,cs),
(876,323,o),
(768,293,o),
(640,293,c),
(226,292,l),
(226,253,l),
(650,254,ls),
(842,255,o),
(956,305,o),
(956,430,cs),
(956,551,o),
(842,600,o),
(650,600,cs),
(211,600,l),
(211,560,l)
);
}
);
width = 996;
},
{
anchors = (
{
name = bottom;
pos = (502,0);
},
{
name = top;
pos = (482,600);
}
);
layerId = m002;
shapes = (
{
closed = 1;
nodes = (
(650,262,ls),
(783,263,o),
(911,326,o),
(911,436,cs),
(911,563,o),
(788,600,o),
(592,600,cs),
(16,600,l),
(14,592,l),
(164,550,l),
(164,50,l),
(40,4,l),
(42,0,l),
(418,0,l),
(420,5,l),
(262,49,l),
(262,258,l)
);
},
{
closed = 1;
nodes = (
(260,553,l),
(545,553,ls),
(672,553,o),
(809,555,o),
(809,419,cs),
(809,328,o),
(701,305,o),
(565,308,cs),
(260,314,l)
);
},
{
closed = 1;
nodes = (
(532,285,l),
(685,50,l),
(545,8,l),
(547,0,l),
(958,0,l),
(960,8,l),
(800,50,l),
(643,285,l)
);
}
);
width = 985;
},
{
associatedMasterId = m002;
layerId = "F9024B12-2AC0-43D4-B65C-CC7BB46488A1";
name = "Extended Mar 31 18, 15:49";
shapes = (
{
closed = 1;
nodes = (
(190,550,l),
(190,50,l),
(40,3,l),
(42,0,l),
(414,0,l),
(416,4,l),
(266,50,l),
(265,550,l),
(265,600,l),
(42,600,l),
(40,597,l)
);
},
{
closed = 1;
nodes = (
(551,267,l),
(909,-68,l),
(958,-58,l),
(657,277,l)
);
},
{
closed = 1;
nodes = (
(620,560,ls),
(761,560,o),
(876,538,o),
(876,416,cs),
(876,323,o),
(768,293,o),
(640,293,c),
(226,292,l),
(226,253,l),
(650,254,ls),
(842,255,o),
(956,305,o),
(956,430,cs),
(956,551,o),
(842,600,o),
(650,600,cs),
(211,600,l),
(211,560,l)
);
}
);
width = 996;
},
{
associatedMasterId = m003;
layerId = "3559C86F-44CC-4889-900D-CF986CC5DF0D";
name = "Extended Mar 31 18, 15:49";
shapes = (
{
closed = 1;
nodes = (
(190,550,l),
(190,50,l),
(40,3,l),
(42,0,l),
(414,0,l),
(416,4,l),
(266,50,l),
(265,550,l),
(265,600,l),
(42,600,l),
(40,597,l)
);
},
{
closed = 1;
nodes = (
(551,267,l),
(909,-68,l),
(958,-58,l),
(657,277,l)
);
},
{
closed = 1;
nodes = (
(620,560,ls),
(761,560,o),
(876,538,o),
(876,416,cs),
(876,323,o),
(768,293,o),
(640,293,c),
(226,292,l),
(226,253,l),
(650,254,ls),
(842,255,o),
(956,305,o),
(956,430,cs),
(956,551,o),
(842,600,o),
(650,600,cs),
(211,600,l),
(211,560,l)
);
}
);
width = 996;
},
{
associatedMasterId = m003;
layerId = "BF99D1A1-E071-43FA-A6EA-6FF931E373C1";
name = "Extended Mar 31 18, 15:49";
shapes = (
{
closed = 1;
nodes = (
(190,550,l),
(190,50,l),
(40,3,l),
(42,0,l),
(414,0,l),
(416,4,l),
(266,50,l),
(265,550,l),
(265,600,l),
(42,600,l),
(40,597,l)
);
},
{
closed = 1;
nodes = (
(551,267,l),
(909,-68,l),
(958,-58,l),
(657,277,l)
);
},
{
closed = 1;
nodes = (
(620,560,ls),
(761,560,o),
(876,538,o),
(876,416,cs),
(876,323,o),
(768,293,o),
(640,293,c),
(226,292,l),
(226,253,l),
(650,254,ls),
(842,255,o),
(956,305,o),
(956,430,cs),
(956,551,o),
(842,600,o),
(650,600,cs),
(211,600,l),
(211,560,l)
);
}
);
width = 996;
},
{
anchors = (
{
name = bottom;
pos = (268,0);
},
{
name = top;
pos = (253,600);
}
);
layerId = "2C26E880-80A5-4D19-8A94-7D905A372841";
shapes = (
{
closed = 1;
nodes = (
(282,264,ls),
(344,265,o),
(437,322,o),
(437,431,cs),
(437,528,o),
(368,600,o),
(280,600,cs),
(22,600,l),
(20,592,l),
(130,555,l),
(130,45,l),
(20,8,l),
(22,0,l),
(243,0,l),
(245,8,l),
(165,47,l),
(165,263,l)
);
},
{
closed = 1;
nodes = (
(165,571,l),
(268,575,ls),
(343,578,o),
(402,509,o),
(402,423,cs),
(402,336,o),
(332,289,o),
(272,291,cs),
(165,294,l)
);
},
{
closed = 1;
nodes = (
(254,275,l),
(350,45,l),
(280,8,l),
(282,0,l),
(494,0,l),
(496,8,l),
(386,45,l),
(285,288,l)
);
}
);
width = 506;
},
{
anchors = (
{
name = bottom;
pos = (495,0);
},
{
name = top;
pos = (475,600);
}
);
associatedMasterId = m002;
layerId = "ED6913F8-8F03-4859-93E4-41BA79BDBB58";
name = "2 Sep 22, 10:24";
shapes = (
{
closed = 1;
nodes = (
(621,267,ls),
(770,268,o),
(886,327,o),
(886,436,cs),
(886,556,o),
(772,600,o),
(580,600,cs),
(22,600,l),
(20,592,l),
(170,550,l),
(170,50,l),
(40,5,l),
(42,0,l),
(414,0,l),
(416,6,l),
(246,50,l),
(246,264,l)
);
},
{
closed = 1;
nodes = (
(245,560,l),
(550,560,ls),
(691,560,o),
(806,543,o),
(806,422,cs),
(806,329,o),
(698,305,o),
(570,307,cs),
(245,311,l)
);
},
{
closed = 1;
nodes = (
(588,285,l),
(779,50,l),
(599,8,l),
(601,0,l),
(991,0,l),
(993,8,l),
(873,50,l),
(679,285,l)
);
}
);
width = 983;
},
{
anchors = (
{
name = bottom;
pos = (480,0);
},
{
name = top;
pos = (460,600);
}
);
associatedMasterId = "0CCC0E2D-406A-4672-8E6C-854B1DF78A27";
layerId = "F6575CD0-A92F-4CA7-95ED-F31B3C1828F3";
name = "2 Sep 22, 10:46";
shapes = (
{
closed = 1;
nodes = (
(568,276,ls),
(746,277,o),
(839,332,o),
(839,436,cs),
(839,544,o),
(743,600,o),
(558,600,cs),
(32,600,l),
(30,592,l),
(180,550,l),
(180,50,l),
(40,8,l),
(42,0,l),
(406,0,l),
(408,8,l),
(217,52,l),
(217,275,l)
);
},
{
closed = 1;
nodes = (
(217,573,l),
(558,573,ls),
(718,573,o),
(801,523,o),
(801,428,cs),
(801,347,o),
(725,305,o),
(578,305,cs),
(217,305,l)
);
},
{
closed = 1;
nodes = (
(578,285,l),
(769,50,l),
(589,8,l),
(591,0,l),
(933,0,l),
(935,8,l),
(815,50,l),
(621,285,l)
);
}
);
width = 935;
},
{
anchors = (
{
name = bottom;
pos = (295,0);
},
{
name = top;
pos = (275,600);
}
);
associatedMasterId = m003;
layerId = "1BB60639-2837-4BFA-BA68-446B2636C0B4";
name = "2 Sep 22, 10:49";
shapes = (
{
closed = 1;
nodes = (
(290,256,ls),
(408,257,o),
(481,332,o),
(481,430,cs),
(481,524,o),
(395,600,o),
(300,600,cs),
(12,600,l),
(10,592,l),
(120,555,l),
(120,45,l),
(10,8,l),
(12,0,l),
(268,0,l),
(270,8,l),
(190,45,l),
(190,255,l)
);
},
{
closed = 1;
nodes = (
(190,565,l),
(270,565,ls),
(337,565,o),
(406,494,o),
(406,416,cs),
(406,341,o),
(349,284,o),
(260,290,cs),
(190,295,l)
);
},
{
closed = 1;
nodes = (
(296,275,l),
(408,45,l),
(318,8,l),
(320,0,l),
(577,0,l),
(579,8,l),
(479,45,l),
(364,275,l)
);
}
);
width = 578;
},
{
anchors = (
{
name = bottom;
pos = (268,0);
},
{
name = top;
pos = (253,600);
}
);
associatedMasterId = "2C26E880-80A5-4D19-8A94-7D905A372841";
layerId = "D807F695-3177-44B2-8D22-846A0B8A0B01";
name = "2 Sep 22, 10:52";
shapes = (
{
closed = 1;
nodes = (
(269,264,ls),
(367,265,o),
(437,334,o),
(437,431,cs),
(437,528,o),
(368,600,o),
(280,600,cs),
(22,600,l),
(20,592,l),
(130,555,l),
(130,45,l),
(20,8,l),
(22,0,l),
(243,0,l),
(245,8,l),
(165,47,l),
(165,263,l)
);
},
{
closed = 1;
nodes = (
(165,571,l),
(268,575,ls),
(343,578,o),
(402,509,o),
(402,423,cs),
(402,346,o),
(352,289,o),
(278,291,cs),
(165,294,l)
);
},
{
closed = 1;
nodes = (
(297,275,l),
(400,45,l),
(310,8,l),
(312,0,l),
(525,0,l),
(527,8,l),
(437,45,l),
(332,275,l)
);
}
);
width = 537;
},
{
anchors = (
{
name = bottom;
pos = (302,0);
},
{
name = top;
pos = (281,600);
}
);
associatedMasterId = m003;
layerId = "BB9C9991-12A9-4CC6-8577-8B37327123D7";
name = "25 Sep 22, 14:02";
shapes = (
{
closed = 1;
nodes = (
(286,254,ls),
(414,255,o),
(493,325,o),
(493,430,cs),
(493,523,o),
(402,600,o),
(306,600,cs),
(10,600,l),
(8,592,l),
(118,555,l),
(118,45,l),
(8,8,l),
(10,0,l),
(262,0,l),
(264,8,l),
(197,45,l),
(197,253,l)
);
},
{
closed = 1;
nodes = (
(197,564,l),
(271,563,ls),
(336,562,o),
(408,490,o),
(408,414,cs),
(408,341,o),
(349,282,o),
(254,290,cs),
(197,295,l)
);
},
{
closed = 1;
nodes = (
(285,275,l),
(376,45,l),
(298,8,l),
(300,0,l),
(530,0,l),
(532,8,l),
(454,45,l),
(361,272,l)
);
}
);
width = 529;
},
{
anchors = (
{
name = bottom;
pos = (272,0);
},
{
name = top;
pos = (261,600);
}
);
associatedMasterId = m003;
layerId = "3CD9F8BB-F10D-48DF-9B76-2604E1BC258F";
name = "25 Sep 22, 14:10";
shapes = (
{
closed = 1;
nodes = (
(286,254,ls),
(414,255,o),
(493,325,o),
(493,430,cs),
(493,523,o),
(402,600,o),
(306,600,cs),
(10,600,l),
(8,592,l),
(118,555,l),
(118,45,l),
(8,8,l),
(10,0,l),
(262,0,l),
(264,8,l),
(197,45,l),
(197,253,l)
);
},
{
closed = 1;
nodes = (
(197,564,l),
(271,563,ls),
(336,562,o),
(408,490,o),
(408,414,cs),
(408,341,o),
(349,282,o),
(254,290,cs),
(197,295,l)
);
},
{
closed = 1;
nodes = (
(271,263,l),
(310,178,ls),
(354,82,o),
(410,5,o),
(505,-43,c),
(507,-35,l),
(356,244,l)
);
}
);
width = 539;
},
{
anchors = (
{
name = bottom;
pos = (272,0);
},
{
name = top;
pos = (261,600);
}
);
layerId = m003;
name = Condensed;
shapes = (
{
closed = 1;
nodes = (
(286,254,ls),
(414,255,o),
(493,325,o),
(493,430,cs),
(493,523,o),
(402,600,o),
(306,600,cs),
(10,600,l),
(8,592,l),
(118,555,l),
(118,45,l),
(8,8,l),
(10,0,l),
(272,0,l),
(274,8,l),
(197,45,l),
(197,253,l)
);
},
{
closed = 1;
nodes = (
(197,564,l),
(271,563,ls),
(336,562,o),
(408,490,o),
(408,414,cs),
(408,341,o),
(349,282,o),
(254,290,cs),
(197,295,l)
);
},
{
closed = 1;
nodes = (
(249,275,l),
(360,45,l),
(300,8,l),
(302,0,l),
(520,0,l),
(522,8,l),
(444,45,l),
(331,272,l)
);
}
);
width = 529;
}
);
metricLeft = H;
unicode = 82;
},
{
glyphname = S;
kernLeft = S;
kernRight = S;
layers = (
{
anchors = (
{
name = bottom;
pos = (411,0);
},
{
name = top;
pos = (411,600);
}
);
layerId = "0CCC0E2D-406A-4672-8E6C-854B1DF78A27";
shapes = (
{
closed = 1;
nodes = (
(153,6,o),
(272,-20,o),
(431,-20,cs),
(657,-20,o),
(780,44,o),
(780,162,cs),
(780,253,o),
(708,300,o),
(542,318,cs),
(299,344,ls),
(169,358,o),
(118,390,o),
(120,456,cs),
(122,549,o),
(219,598,o),
(401,598,cs),
(495,598,o),
(597,585,o),
(659,571,c),
(676,414,l),
(684,412,l),
(745,589,l),
(660,609,o),
(525,625,o),
(401,625,cs),
(198,625,o),
(86,563,o),
(82,449,cs),
(79,366,o),
(135,329,o),
(286,313,cs),
(529,287,ls),
(672,272,o),
(745,225,o),
(744,148,cs),
(742,59,o),
(639,10,o),
(451,10,cs),
(324,10,o),
(214,28,o),
(131,59,c),
(114,218,l),
(106,220,l),
(45,50,l)
);
}
);
width = 840;
},
{
associatedMasterId = "0CCC0E2D-406A-4672-8E6C-854B1DF78A27";
layerId = "9A359F69-7A44-4B2C-B582-FDEDCD665DE8";
name = "Apr 3 18, 11:50";
shapes = (
{
closed = 1;
nodes = (
(143,23,o),
(304,-10,o),
(459,-10,cs),
(689,-10,o),
(848,49,o),
(848,195,cs),
(848,326,o),
(681,353,o),
(449,353,cs),
(259,353,o),
(147,364,o),
(149,448,cs),
(151,532,o),
(288,578,o),
(449,578,cs),
(550,578,o),
(681,555,o),
(720,524,c),
(806,535,l),
(729,598,o),
(551,623,o),
(449,623,cs),
(180,623,o),
(86,522,o),
(83,418,cs),
(79,295,o),
(230,273,o),
(449,273,cs),
(650,273,o),
(782,252,o),
(781,174,cs),
(780,82,o),
(640,35,o),
(459,35,cs),
(348,35,o),
(184,65,o),
(136,102,c),
(50,91,l)
);
},
{
closed = 1;
nodes = (
(745,354,l),
(738,356,l),
(720,524,l),
(806,535,l)
);
},
{
closed = 1;
nodes = (
(111,272,l),
(118,270,l),
(136,102,l),
(50,91,l)
);
}
);
width = 878;
},
{
associatedMasterId = "0CCC0E2D-406A-4672-8E6C-854B1DF78A27";
layerId = "A8B821C7-36AA-44CB-84BC-D34DB5EED9F4";
name = "Apr 3 18, 11:50";
shapes = (
{
closed = 1;
nodes = (
(143,23,o),
(304,-10,o),
(459,-10,cs),
(689,-10,o),
(848,49,o),
(848,195,cs),
(848,326,o),
(681,353,o),
(449,353,cs),
(259,353,o),
(147,364,o),
(149,448,cs),
(151,532,o),
(288,578,o),
(449,578,cs),
(550,578,o),
(681,555,o),
(720,524,c),
(806,535,l),
(729,598,o),
(551,623,o),
(449,623,cs),
(180,623,o),
(86,522,o),
(83,418,cs),
(79,295,o),
(230,273,o),
(449,273,cs),
(650,273,o),
(782,252,o),
(781,174,cs),
(780,82,o),
(640,35,o),
(459,35,cs),
(348,35,o),
(184,65,o),
(136,102,c),
(50,91,l)
);
},
{
closed = 1;
nodes = (
(745,354,l),
(738,356,l),
(720,524,l),
(806,535,l)
);
},
{
closed = 1;
nodes = (
(111,272,l),
(118,270,l),
(136,102,l),
(50,91,l)
);
}
);
width = 878;
},
{
anchors = (
{
name = bottom;
pos = (446,0);
},
{
name = top;
pos = (446,600);
}
);
layerId = m002;
shapes = (
{
closed = 1;
nodes = (
(127,13,o),
(304,-20,o),
(451,-20,cs),
(693,-20,o),
(862,69,o),
(862,198,cs),
(862,288,o),
(779,336,o),
(592,350,cs),
(349,368,ls),
(197,379,o),
(139,406,o),
(140,459,cs),
(142,529,o),
(284,578,o),
(441,578,cs),
(537,578,o),
(645,559,o),
(730,531,c),
(745,396,l),
(753,394,l),
(814,584,l),
(695,609,o),
(566,625,o),
(461,625,cs),
(230,625,o),
(66,547,o),
(62,434,cs),
(59,347,o),
(145,295,o),
(306,283,cs),
(549,265,ls),
(718,252,o),
(780,224,o),
(779,157,cs),
(777,84,o),
(652,34,o),
(491,34,cs),
(356,34,o),
(179,67,o),
(115,107,c),
(98,266,l),
(90,268,l),
(29,58,l)
);
}
);
width = 906;
},
{
associatedMasterId = m002;
layerId = "3CD49650-8184-45EA-873A-FDEEE6AA1B09";
name = "Apr 3 18, 11:50";
shapes = (
{
closed = 1;
nodes = (
(143,23,o),
(304,-10,o),
(459,-10,cs),
(689,-10,o),
(848,49,o),
(848,195,cs),
(848,326,o),
(681,353,o),
(449,353,cs),
(259,353,o),
(147,364,o),
(149,448,cs),
(151,532,o),
(288,578,o),
(449,578,cs),
(550,578,o),
(681,555,o),
(720,524,c),
(806,535,l),
(729,598,o),
(551,623,o),
(449,623,cs),
(180,623,o),
(86,522,o),
(83,418,cs),
(79,295,o),
(230,273,o),
(449,273,cs),
(650,273,o),
(782,252,o),
(781,174,cs),
(780,82,o),
(640,35,o),
(459,35,cs),
(348,35,o),
(184,65,o),
(136,102,c),
(50,91,l)
);
},
{
closed = 1;
nodes = (
(745,354,l),
(738,356,l),
(720,524,l),
(806,535,l)
);
},
{
closed = 1;
nodes = (
(111,272,l),
(118,270,l),
(136,102,l),
(50,91,l)
);
}
);
width = 878;
},
{
associatedMasterId = m002;
layerId = "FF34C2C3-E629-40EC-B18C-562382FD2B12";
name = "Apr 3 18, 11:50";
shapes = (
{
closed = 1;
nodes = (
(143,23,o),
(304,-10,o),
(459,-10,cs),
(689,-10,o),
(848,49,o),
(848,195,cs),
(848,326,o),
(681,353,o),
(449,353,cs),
(259,353,o),
(147,364,o),
(149,448,cs),
(151,532,o),
(288,578,o),
(449,578,cs),
(550,578,o),
(681,555,o),
(720,524,c),
(806,535,l),
(729,598,o),
(551,623,o),
(449,623,cs),
(180,623,o),
(86,522,o),
(83,418,cs),
(79,295,o),
(230,273,o),
(449,273,cs),
(650,273,o),
(782,252,o),
(781,174,cs),
(780,82,o),
(640,35,o),
(459,35,cs),
(348,35,o),
(184,65,o),
(136,102,c),
(50,91,l)
);
},
{
closed = 1;
nodes = (
(745,354,l),
(738,356,l),
(720,524,l),
(806,535,l)
);
},
{
closed = 1;
nodes = (
(111,272,l),
(118,270,l),
(136,102,l),
(50,91,l)
);
}
);
width = 878;
},
{
anchors = (
{
name = bottom;
pos = (204,0);
},
{
name = top;
pos = (198,600);
}
);
layerId = m003;
shapes = (
{
closed = 1;
nodes = (
(57,-4,o),
(140,-20,o),
(201,-20,cs),
(316,-20,o),
(392,55,o),
(392,167,cs),
(392,244,o),
(355,289,o),
(251,337,cs),
(190,365,ls),
(131,393,o),
(101,433,o),
(101,486,cs),
(101,544,o),
(135,577,o),
(195,577,cs),
(227,577,o),
(268,568,o),
(284,557,c),
(300,415,l),
(307,413,l),
(359,587,l),
(327,605,o),
(253,620,o),
(198,620,cs),
(98,620,o),
(38,563,o),
(36,464,cs),
(35,385,o),
(72,328,o),
(151,291,cs),
(222,258,ls),
(296,223,o),
(326,186,o),
(326,132,cs),
(326,62,o),
(289,27,o),
(215,27,cs),
(168,27,o),
(112,38,o),
(88,52,c),
(73,217,l),
(65,219,l),
(14,17,l)
);
}
);
width = 406;
},
{
associatedMasterId = m003;
layerId = "8C43811E-9CF8-47C6-A89B-E5D626EB4865";
name = "Apr 3 18, 11:50";
shapes = (
{
closed = 1;
nodes = (
(143,23,o),
(304,-10,o),
(459,-10,cs),
(689,-10,o),
(848,49,o),
(848,195,cs),
(848,326,o),
(681,353,o),
(449,353,cs),
(259,353,o),
(147,364,o),
(149,448,cs),
(151,532,o),
(288,578,o),
(449,578,cs),
(550,578,o),
(681,555,o),
(720,524,c),
(806,535,l),
(729,598,o),
(551,623,o),
(449,623,cs),
(180,623,o),
(86,522,o),
(83,418,cs),
(79,295,o),
(230,273,o),
(449,273,cs),
(650,273,o),
(782,252,o),
(781,174,cs),
(780,82,o),
(640,35,o),
(459,35,cs),
(348,35,o),
(184,65,o),
(136,102,c),
(50,91,l)
);
},
{
closed = 1;
nodes = (
(745,354,l),
(738,356,l),
(720,524,l),
(806,535,l)
);
},
{
closed = 1;
nodes = (
(111,272,l),
(118,270,l),
(136,102,l),
(50,91,l)
);
}
);
width = 878;
},
{
associatedMasterId = m003;
layerId = "95B1B325-6487-47BB-AD9E-BB874A5EF258";
name = "Apr 3 18, 11:50";
shapes = (
{
closed = 1;
nodes = (
(143,23,o),
(304,-10,o),
(459,-10,cs),
(689,-10,o),
(848,49,o),
(848,195,cs),
(848,326,o),
(681,353,o),
(449,353,cs),
(259,353,o),
(147,364,o),
(149,448,cs),
(151,532,o),
(288,578,o),
(449,578,cs),
(550,578,o),
(681,555,o),
(720,524,c),
(806,535,l),
(729,598,o),
(551,623,o),
(449,623,cs),
(180,623,o),
(86,522,o),
(83,418,cs),
(79,295,o),
(230,273,o),
(449,273,cs),
(650,273,o),
(782,252,o),
(781,174,cs),
(780,82,o),
(640,35,o),
(459,35,cs),
(348,35,o),
(184,65,o),
(136,102,c),
(50,91,l)
);
},
{
closed = 1;
nodes = (
(745,354,l),
(738,356,l),
(720,524,l),
(806,535,l)
);
},
{
closed = 1;
nodes = (
(111,272,l),
(118,270,l),
(136,102,l),
(50,91,l)
);
}
);
width = 878;
},
{
anchors = (
{
name = bottom;
pos = (204,0);
},
{
name = top;
pos = (180,600);
}
);
layerId = "2C26E880-80A5-4D19-8A94-7D905A372841";
shapes = (
{
closed = 1;
nodes = (
(56,-3,o),
(124,-20,o),
(183,-20,cs),
(292,-20,o),
(359,34,o),
(359,138,cs),
(359,207,o),
(321,261,o),
(245,307,cs),
(170,352,ls),
(111,388,o),
(85,428,o),
(86,483,cs),
(87,551,o),
(126,593,o),
(186,593,cs),
(202,593,o),
(227,589,o),
(245,584,c),
(263,417,l),
(272,415,l),
(330,599,l),
(292,611,o),
(239,620,o),
(201,620,cs),
(109,620,o),
(51,565,o),
(49,476,cs),
(48,408,o),
(80,363,o),
(157,315,cs),
(234,267,ls),
(294,230,o),
(324,184,o),
(324,124,cs),
(324,49,o),
(278,7,o),
(195,7,cs),
(161,7,o),
(129,14,o),
(104,27,c),
(86,186,l),
(77,188,l),
(20,21,l)
);
}
);
width = 379;
}
);
unicode = 83;
},
{
glyphname = Germandbls;
kernLeft = H;
kernRight = S;
layers = (
{
layerId = "0CCC0E2D-406A-4672-8E6C-854B1DF78A27";
shapes = (
{
closed = 1;
nodes = (
(797,611,l),
(32,600,l),
(30,592,l),
(180,550,l),
(180,50,l),
(30,8,l),
(32,0,l),
(217,0,l),
(218,577,l),
(779,580,l),
(783,597,l),
(471,317,l),
(488,298,l),
(733,334,o),
(857,291,o),
(856,171,cs),
(855,65,o),
(755,10,o),
(624,10,cs),
(534,10,o),
(452,26,o),
(369,65,c),
(362,221,l),
(354,223,l),
(293,65,l),
(382,11,o),
(499,-20,o),
(614,-20,cs),
(775,-20,o),
(890,48,o),
(890,179,cs),
(890,315,o),
(753,367,o),
(507,327,c),
(510,314,l),
(816,585,l)
);
}
);
width = 930;
},
{
layerId = m002;
shapes = (
{
closed = 1;
nodes = (
(847,611,l),
(16,600,l),
(14,592,l),
(164,550,l),
(164,50,l),
(14,8,l),
(16,0,l),
(260,0,l),
(261,561,l),
(799,550,l),
(763,597,l),
(460,325,l),
(484,286,l),
(788,328,o),
(858,256,o),
(856,159,cs),
(855,98,o),
(768,30,o),
(659,30,cs),
(550,30,o),
(472,58,o),
(404,107,c),
(382,267,l),
(374,269,l),
(313,65,l),
(399,12,o),
(499,-20,o),
(603,-20,cs),
(823,-20,o),
(943,85,o),
(943,195,cs),
(943,300,o),
(851,406,o),
(527,339,c),
(556,314,l),
(866,574,l)
);
}
);
width = 981;
},
{
layerId = m003;
shapes = (
{
closed = 1;
nodes = (
(468,611,l),
(10,600,l),
(8,592,l),
(118,555,l),
(118,45,l),
(8,8,l),
(10,0,l),
(196,0,l),
(197,570,l),
(443,560,l),
(435,596,l),
(273,317,l),
(307,289,l),
(397,332,o),
(484,272,o),
(482,156,cs),
(481,71,o),
(449,26,o),
(378,26,cs),
(352,26,o),
(336,29,o),
(313,42,c),
(295,201,l),
(287,203,l),
(235,17,l),
(256,-2,o),
(322,-20,o),
(377,-20,cs),
(472,-20,o),
(551,75,o),
(551,191,cs),
(551,309,o),
(452,371,o),
(339,336,c),
(343,315,l),
(503,585,l)
);
}
);
width = 574;
},
{
layerId = "2C26E880-80A5-4D19-8A94-7D905A372841";
shapes = (
{
closed = 1;
nodes = (
(450,611,l),
(22,600,l),
(20,592,l),
(130,555,l),
(130,45,l),
(20,8,l),
(22,0,l),
(165,0,l),
(165,581,l),
(454,584,l),
(426,596,l),
(270,311,l),
(298,299,l),
(400,348,o),
(480,289,o),
(479,166,cs),
(478,60,o),
(427,10,o),
(364,10,cs),
(332,10,o),
(299,19,o),
(294,29,c),
(288,185,l),
(280,187,l),
(228,11,l),
(269,-11,o),
(305,-20,o),
(349,-20,cs),
(452,-20,o),
(515,55,o),
(515,180,cs),
(515,314,o),
(424,380,o),
(312,327,c),
(309,315,l),
(465,594,l)
);
}
);
width = 538;
}
);
metricLeft = H;
unicode = 7838;
},
{
glyphname = T;
kernLeft = T;
kernRight = T;
layers = (
{
anchors = (
{
name = bottom;
pos = (427,0);
},
{
name = center;
pos = (414,300);
},
{
name = top;
pos = (414,600);
}
);
layerId = "0CCC0E2D-406A-4672-8E6C-854B1DF78A27";
shapes = (
{
closed = 1;
nodes = (
(73,419,l),
(81,421,l),
(107,579,l),
(395,579,l),
(396,50,l),
(246,8,l),
(248,0,l),
(581,0,l),
(583,8,l),
(433,50,l),
(432,579,l),
(721,580,l),
(760,421,l),
(768,419,l),
(792,610,l),
(414,600,l),
(35,610,l)
);
}
);
width = 827;
},
{
anchors = (
{
name = bottom;
pos = (492,0);
},
{
name = center;
pos = (473,300);
},
{
name = top;
pos = (473,600);
}
);
layerId = m002;
shapes = (
{
closed = 1;
nodes = (
(65,420,l),
(73,422,l),
(123,550,l),
(425,558,l),
(426,50,l),
(276,8,l),
(278,0,l),
(671,0,l),
(673,8,l),
(523,50,l),
(522,558,l),
(824,551,l),
(888,422,l),
(896,420,l),
(928,610,l),
(473,600,l),
(19,610,l)
);
}
);
width = 947;
},
{
anchors = (
{
name = bottom;
pos = (268,0);
},
{
name = center;
pos = (247,300);
},
{
name = top;
pos = (250,600);
}
);
layerId = m003;
shapes = (
{
closed = 1;
nodes = (
(62,401,l),
(70,403,l),
(101,564,l),
(210,571,l),
(210,45,l),
(100,8,l),
(102,0,l),
(398,0,l),
(400,8,l),
(290,45,l),
(290,571,l),
(398,564,l),
(429,403,l),
(437,401,l),
(476,612,l),
(250,600,l),
(23,612,l)
);
}
);
width = 499;
},
{
anchors = (
{
name = bottom;
pos = (234,0);
},
{
name = center;
pos = (238,300);
},
{
name = top;
pos = (241,600);
}
);
layerId = "2C26E880-80A5-4D19-8A94-7D905A372841";
shapes = (
{
closed = 1;
nodes = (
(74,421,l),
(82,423,l),
(102,575,l),
(223,578,l),
(223,45,l),
(113,8,l),
(115,0,l),
(366,0,l),
(368,8,l),
(258,45,l),
(258,578,l),
(380,575,l),
(400,423,l),
(408,421,l),
(447,612,l),
(241,600,l),
(35,612,l)
);
}
);
width = 482;
}
);
unicode = 84;
},
{
glyphname = U;
kernLeft = U;
kernRight = U;
layers = (
{
anchors = (
{
name = bottom;
pos = (526,0);
},
{
name = ogonek;
pos = (691,10);
},
{
name = top;
pos = (526,600);
},
{
name = topright;
pos = (1064,600);
}
);
layerId = "0CCC0E2D-406A-4672-8E6C-854B1DF78A27";
shapes = (
{
closed = 1;
nodes = (
(160,83,o),
(284,-20,o),
(523,-20,cs),
(754,-20,o),
(874,96,o),
(874,261,cs),
(874,550,l),
(1024,592,l),
(1022,600,l),
(689,600,l),
(687,592,l),
(837,550,l),
(837,256,ls),
(837,118,o),
(731,15,o),
(527,15,cs),
(310,15,o),
(197,108,o),
(197,285,cs),
(197,550,l),
(347,592,l),
(345,600,l),
(12,600,l),
(10,592,l),
(160,550,l),
(160,279,ls)
);
}
);
width = 1039;
},
{
anchors = (
{
name = bottom;
pos = (546,0);
},
{
name = ogonek;
pos = (711,10);
},
{
name = top;
pos = (546,600);
},
{
name = topright;
pos = (1084,600);
}
);
layerId = m002;
shapes = (
{
closed = 1;
nodes = (
(144,79,o),
(277,-20,o),
(516,-20,cs),
(757,-20,o),
(906,81,o),
(911,247,cs),
(921,550,l),
(1071,592,l),
(1069,600,l),
(702,600,l),
(700,592,l),
(850,550,l),
(852,220,ls),
(853,106,o),
(739,31,o),
(566,31,cs),
(365,31,o),
(240,131,o),
(240,291,cs),
(240,550,l),
(390,592,l),
(388,600,l),
(-4,600,l),
(-6,592,l),
(144,550,l),
(144,255,ls)
);
}
);
width = 1071;
},
{
anchors = (
{
name = bottom;
pos = (279,0);
},
{
name = ogonek;
pos = (355,10);
},
{
name = top;
pos = (279,600);
},
{
name = topright;
pos = (597,600);
}
);
layerId = m003;
shapes = (
{
closed = 1;
nodes = (
(90,42,o),
(150,-20,o),
(275,-20,cs),
(406,-20,o),
(472,48,o),
(474,186,cs),
(478,556,l),
(570,592,l),
(568,600,l),
(319,600,l),
(317,592,l),
(414,556,l),
(418,156,ls),
(419,72,o),
(379,29,o),
(302,29,cs),
(212,29,o),
(168,87,o),
(168,205,cs),
(168,556,l),
(265,592,l),
(263,600,l),
(-1,600,l),
(-3,592,l),
(90,556,l),
(90,174,ls)
);
}
);
width = 568;
},
{
anchors = (
{
name = bottom;
pos = (254,0);
},
{
name = ogonek;
pos = (330,10);
},
{
name = top;
pos = (254,600);
},
{
name = topright;
pos = (572,600);
}
);
layerId = "2C26E880-80A5-4D19-8A94-7D905A372841";
shapes = (
{
closed = 1;
nodes = (
(91,49,o),
(151,-20,o),
(260,-20,cs),
(375,-20,o),
(438,53,o),
(436,202,cs),
(432,555,l),
(512,592,l),
(510,600,l),
(289,600,l),
(287,592,l),
(397,555,l),
(402,195,ls),
(404,74,o),
(353,10,o),
(270,10,cs),
(177,10,o),
(126,74,o),
(126,197,cs),
(127,555,l),
(237,592,l),
(235,600,l),
(12,600,l),
(10,592,l),
(90,555,l),
(91,190,ls)
);
}
);
width = 522;
}
);
unicode = 85;
},
{
glyphname = V;
kernLeft = V;
kernRight = V;
layers = (
{
anchors = (
{
name = bottom;
pos = (443,0);
},
{
name = top;
pos = (439,600);
}
);
layerId = "0CCC0E2D-406A-4672-8E6C-854B1DF78A27";
shapes = (
{
closed = 1;
nodes = (
(80,550,l),
(414,0,l),
(441,0,l),
(765,550,l),
(895,592,l),
(893,600,l),
(554,600,l),
(552,592,l),
(727,550,l),
(425,32,l),
(435,33,l),
(123,550,l),
(298,592,l),
(296,600,l),
(-48,600,l),
(-50,592,l)
);
}
);
width = 855;
},
{
anchors = (
{
name = bottom;
pos = (484,0);
},
{
name = top;
pos = (480,600);
}
);
layerId = m002;
shapes = (
{
closed = 1;
nodes = (
(72,550,l),
(441,0,l),
(503,0,l),
(832,550,l),
(962,592,l),
(960,600,l),
(588,600,l),
(586,592,l),
(761,550,l),
(474,35,l),
(528,33,l),
(198,550,l),
(373,592,l),
(371,600,l),
(-64,600,l),
(-66,592,l)
);
}
);
width = 906;
},
{
anchors = (
{
name = bottom;
pos = (280,0);
},
{
name = top;
pos = (275,600);
}
);
layerId = m003;
shapes = (
{
closed = 1;
nodes = (
(53,555,l),
(238,0,l),
(294,0,l),
(466,555,l),
(546,592,l),
(544,600,l),
(300,600,l),
(298,592,l),
(408,555,l),
(258,35,l),
(301,41,l),
(142,555,l),
(252,592,l),
(250,600,l),
(-26,600,l),
(-28,592,l)
);
}
);
width = 524;
},
{
anchors = (
{
name = bottom;
pos = (238,0);
},
{
name = top;
pos = (238,600);
}
);
layerId = "2C26E880-80A5-4D19-8A94-7D905A372841";
shapes = (
{
closed = 1;
nodes = (
(59,555,l),
(223,0,l),
(251,0,l),
(414,555,l),
(494,592,l),
(492,600,l),
(273,600,l),
(271,592,l),
(381,555,l),
(229,32,l),
(247,41,l),
(97,555,l),
(207,592,l),
(205,600,l),
(-15,600,l),
(-17,592,l)
);
}
);
width = 483;
}
);
unicode = 86;
},
{
glyphname = W;
kernLeft = W;
kernRight = W;
layers = (
{
anchors = (
{
name = bottom;
pos = (555,0);
},
{
name = top;
pos = (555,600);
}
);
layerId = "0CCC0E2D-406A-4672-8E6C-854B1DF78A27";
shapes = (
{
closed = 1;
nodes = (
(106,547,l),
(341,0,l),
(364,0,l),
(582,585,l),
(563,574,l),
(793,0,l),
(816,0,l),
(1030,547,l),
(1192,592,l),
(1190,600,l),
(786,600,l),
(784,592,l),
(989,547,l),
(803,50,l),
(809,52,l),
(591,600,l),
(540,579,l),
(349,56,l),
(359,44,l),
(148,547,l),
(362,592,l),
(359,600,l),
(-58,600,l),
(-60,592,l)
);
}
);
width = 1142;
},
{
anchors = (
{
name = bottom;
pos = (590,0);
},
{
name = top;
pos = (590,600);
}
);
layerId = m002;
shapes = (
{
closed = 1;
nodes = (
(90,547,l),
(330,0,l),
(384,0,l),
(617,585,l),
(567,574,l),
(833,0,l),
(889,0,l),
(1080,547,l),
(1242,592,l),
(1240,600,l),
(807,600,l),
(805,592,l),
(1010,547,l),
(865,66,l),
(905,69,l),
(650,600,l),
(569,579,l),
(362,56,l),
(402,60,l),
(206,547,l),
(420,592,l),
(417,600,l),
(-74,600,l),
(-76,592,l)
);
}
);
width = 1176;
},
{
anchors = (
{
name = bottom;
pos = (339,0);
},
{
name = top;
pos = (339,600);
}
);
layerId = m003;
shapes = (
{
closed = 1;
nodes = (
(45,555,l),
(193,0,l),
(251,0,l),
(352,585,l),
(316,574,l),
(442,0,l),
(509,0,l),
(617,555,l),
(709,592,l),
(707,600,l),
(467,600,l),
(465,592,l),
(563,555,l),
(478,22,l),
(500,35,l),
(386,600,l),
(308,579,l),
(220,60,l),
(241,60,l),
(129,555,l),
(227,592,l),
(224,600,l),
(-46,600,l),
(-48,592,l)
);
}
);
width = 666;
},
{
anchors = (
{
name = bottom;
pos = (298,0);
},
{
name = top;
pos = (298,600);
}
);
layerId = "2C26E880-80A5-4D19-8A94-7D905A372841";
shapes = (
{
closed = 1;
nodes = (
(40,555,l),
(163,0,l),
(193,0,l),
(311,585,l),
(291,574,l),
(417,0,l),
(454,0,l),
(562,555,l),
(642,592,l),
(640,600,l),
(419,600,l),
(417,592,l),
(527,555,l),
(428,11,l),
(445,22,l),
(320,600,l),
(277,579,l),
(172,42,l),
(185,31,l),
(76,555,l),
(186,592,l),
(183,600,l),
(-38,600,l),
(-40,592,l)
);
}
);
width = 612;
}
);
unicode = 87;
},
{
glyphname = X;
kernLeft = X;
kernRight = X;
layers = (
{
anchors = (
{
name = bottom;
pos = (493,0);
},
{
name = top;
pos = (493,600);
}
);
background = {
shapes = (
{
closed = 1;
nodes = (
(-51,0,l),
(314,0,l),
(316,8,l),
(166,50,l),
(475,277,l),
(769,50,l),
(619,8,l),
(621,0,l),
(1037,0,l),
(1039,8,l),
(889,50,l),
(537,322,l),
(849,550,l),
(999,592,l),
(997,600,l),
(632,600,l),
(630,592,l),
(780,550,l),
(503,348,l),
(241,550,l),
(391,592,l),
(388,600,l),
(-27,600,l),
(-29,592,l),
(121,550,l),
(442,302,l),
(97,50,l),
(-53,8,l)
);
}
);
};
layerId = "0CCC0E2D-406A-4672-8E6C-854B1DF78A27";
shapes = (
{
closed = 1;
nodes = (
(503,300,l),
(817,550,l),
(957,592,l),
(955,600,l),
(607,600,l),
(605,592,l),
(765,550,l),
(482,322,l)
);
},
{
closed = 1;
nodes = (
(475,318,l),
(130,50,l),
(-10,8,l),
(-8,0,l),
(354,0,l),
(356,8,l),
(186,50,l),
(498,294,l)
);
},
{
closed = 1;
nodes = (
(211,550,l),
(371,592,l),
(368,600,l),
(26,600,l),
(24,592,l),
(154,550,l),
(799,50,l),
(629,8,l),
(631,0,l),
(984,0,l),
(986,8,l),
(856,50,l)
);
}
);
width = 976;
},
{
anchors = (
{
name = bottom;
pos = (513,0);
},
{
name = top;
pos = (513,600);
}
);
background = {
shapes = (
{
closed = 1;
nodes = (
(-38,0,l),
(327,0,l),
(329,8,l),
(179,50,l),
(488,277,l),
(782,50,l),
(632,8,l),
(634,0,l),
(1050,0,l),
(1052,8,l),
(902,50,l),
(550,322,l),
(862,550,l),
(1012,592,l),
(1010,600,l),
(645,600,l),
(643,592,l),
(793,550,l),
(516,348,l),
(254,550,l),
(404,592,l),
(401,600,l),
(-14,600,l),
(-16,592,l),
(134,550,l),
(455,302,l),
(110,50,l),
(-40,8,l)
);
}
);
};
layerId = m002;
shapes = (
{
closed = 1;
nodes = (
(546,312,l),
(887,550,l),
(1011,592,l),
(1009,600,l),
(619,600,l),
(617,592,l),
(777,550,l),
(498,334,l)
);
},
{
closed = 1;
nodes = (
(458,319,l),
(98,50,l),
(-26,8,l),
(-24,0,l),
(382,0,l),
(384,8,l),
(214,50,l),
(508,295,l)
);
},
{
closed = 1;
nodes = (
(269,550,l),
(429,592,l),
(426,600,l),
(-6,600,l),
(-8,592,l),
(122,550,l),
(780,50,l),
(610,8,l),
(612,0,l),
(1055,0,l),
(1057,8,l),
(927,50,l)
);
}
);
width = 1031;
},
{
anchors = (
{
name = bottom;
pos = (283,0);
},
{
name = top;
pos = (296,600);
}
);
layerId = m003;
shapes = (
{
closed = 1;
nodes = (
(292,268,l),
(467,555,l),
(544,592,l),
(542,600,l),
(309,600,l),
(307,592,l),
(407,555,l),
(265,302,l)
);
},
{
closed = 1;
nodes = (
(267,334,l),
(86,45,l),
(8,8,l),
(10,0,l),
(243,0,l),
(245,8,l),
(145,45,l),
(294,300,l)
);
},
{
closed = 1;
nodes = (
(182,555,l),
(282,592,l),
(279,600,l),
(19,600,l),
(17,592,l),
(97,555,l),
(396,45,l),
(296,8,l),
(298,0,l),
(561,0,l),
(563,8,l),
(483,45,l)
);
}
);
width = 571;
},
{
anchors = (
{
name = bottom;
pos = (276,0);
},
{
name = top;
pos = (274,600);
}
);
layerId = "2C26E880-80A5-4D19-8A94-7D905A372841";
shapes = (
{
closed = 1;
nodes = (
(290,297,l),
(426,555,l),
(515,592,l),
(513,600,l),
(291,600,l),
(289,592,l),
(389,555,l),
(271,326,l)
);
},
{
closed = 1;
nodes = (
(259,320,l),
(110,45,l),
(20,8,l),
(22,0,l),
(244,0,l),
(246,8,l),
(146,45,l),
(278,291,l)
);
},
{
closed = 1;
nodes = (
(156,555,l),
(256,592,l),
(253,600,l),
(38,600,l),
(36,592,l),
(116,555,l),
(409,45,l),
(309,8,l),
(311,0,l),
(527,0,l),
(529,8,l),
(449,45,l)
);
}
);
width = 549;
}
);
unicode = 88;
},
{
glyphname = Y;
kernLeft = Y;
kernRight = Y;
layers = (
{
anchors = (
{
name = bottom;
pos = (464,0);
},
{
name = top;
pos = (484,600);
},
{
name = topleft;
pos = (-8,600);
}
);
layerId = "0CCC0E2D-406A-4672-8E6C-854B1DF78A27";
shapes = (
{
closed = 1;
nodes = (
(120,550,l),
(453,250,l),
(453,50,l),
(298,6,l),
(300,0,l),
(638,0,l),
(640,6,l),
(490,50,l),
(490,251,l),
(808,550,l),
(928,592,l),
(926,600,l),
(586,600,l),
(584,592,l),
(764,550,l),
(462,264,l),
(478,267,l),
(166,550,l),
(346,592,l),
(344,600,l),
(2,600,l),
(0,592,l)
);
}
);
width = 948;
},
{
anchors = (
{
name = bottom;
pos = (507,0);
},
{
name = top;
pos = (527,600);
},
{
name = topleft;
pos = (35,600);
}
);
layerId = m002;
shapes = (
{
closed = 1;
nodes = (
(104,550,l),
(448,250,l),
(448,50,l),
(293,6,l),
(295,0,l),
(692,0,l),
(694,6,l),
(544,50,l),
(544,251,l),
(862,550,l),
(982,592,l),
(980,600,l),
(599,600,l),
(597,592,l),
(777,550,l),
(502,264,l),
(558,274,l),
(261,550,l),
(441,592,l),
(439,600,l),
(-14,600,l),
(-16,592,l)
);
}
);
width = 986;
},
{
anchors = (
{
name = bottom;
pos = (263,0);
},
{
name = top;
pos = (266,600);
},
{
name = topleft;
pos = (-69,600);
}
);
layerId = m003;
shapes = (
{
closed = 1;
nodes = (
(67,555,l),
(219,250,l),
(219,45,l),
(109,8,l),
(111,0,l),
(406,0,l),
(408,8,l),
(298,45,l),
(298,251,l),
(436,555,l),
(516,592,l),
(514,600,l),
(280,600,l),
(278,592,l),
(378,555,l),
(256,250,l),
(291,249,l),
(149,555,l),
(249,592,l),
(247,600,l),
(-11,600,l),
(-13,592,l)
);
}
);
width = 529;
},
{
anchors = (
{
name = bottom;
pos = (232,0);
},
{
name = top;
pos = (235,600);
},
{
name = topleft;
pos = (-100,600);
}
);
layerId = "2C26E880-80A5-4D19-8A94-7D905A372841";
shapes = (
{
closed = 1;
nodes = (
(80,555,l),
(224,250,l),
(224,45,l),
(114,8,l),
(116,0,l),
(367,0,l),
(369,8,l),
(259,45,l),
(259,251,l),
(396,555,l),
(476,592,l),
(474,600,l),
(264,600,l),
(262,592,l),
(362,555,l),
(234,262,l),
(251,265,l),
(120,555,l),
(220,592,l),
(218,600,l),
(2,600,l),
(0,592,l)
);
}
);
width = 476;
}
);
unicode = 89;
},
{
glyphname = Z;
kernLeft = Z;
kernRight = Z;
layers = (
{
anchors = (
{
name = bottom;
pos = (394,0);
},
{
name = center;
pos = (394,300);
},
{
name = top;
pos = (394,600);
}
);
layerId = "0CCC0E2D-406A-4672-8E6C-854B1DF78A27";
shapes = (
{
closed = 1;
nodes = (
(765,0,l),
(745,205,l),
(737,203,l),
(685,30,l),
(63,28,l),
(52,9,l),
(724,576,l),
(711,600,l),
(27,612,l),
(75,420,l),
(83,422,l),
(108,581,l),
(681,575,l),
(692,592,l),
(20,24,l),
(33,0,l)
);
}
);
width = 785;
},
{
anchors = (
{
name = bottom;
pos = (423,0);
},
{
name = center;
pos = (423,300);
},
{
name = top;
pos = (423,600);
}
);
layerId = m002;
shapes = (
{
closed = 1;
nodes = (
(830,0,l),
(810,237,l),
(802,235,l),
(750,62,l),
(92,44,l),
(105,9,l),
(796,560,l),
(776,600,l),
(19,612,l),
(67,390,l),
(75,392,l),
(100,551,l),
(710,559,l),
(697,592,l),
(4,40,l),
(25,0,l)
);
}
);
width = 834;
},
{
anchors = (
{
name = bottom;
pos = (245,0);
},
{
name = center;
pos = (241,300);
},
{
name = top;
pos = (240,600);
}
);
layerId = m003;
shapes = (
{
closed = 1;
nodes = (
(432,0,l),
(412,224,l),
(404,222,l),
(355,48,l),
(68,34,l),
(82,9,l),
(412,574,l),
(393,600,l),
(26,612,l),
(76,401,l),
(84,403,l),
(103,564,l),
(355,568,l),
(340,592,l),
(8,26,l),
(27,0,l)
);
}
);
width = 440;
},
{
anchors = (
{
name = bottom;
pos = (186,0);
},
{
name = center;
pos = (204,300);
},
{
name = top;
pos = (206,600);
}
);
background = {
shapes = (
{
closed = 1;
nodes = (
(347,600,l),
(39,612,l),
(78,421,l),
(86,423,l),
(106,575,l),
(323,579,l)
);
},
{
closed = 1;
nodes = (
(318,30,l),
(355,196,l),
(363,198,l),
(384,0,l),
(37,0,l),
(37,25,l)
);
}
);
};
layerId = "2C26E880-80A5-4D19-8A94-7D905A372841";
shapes = (
{
closed = 1;
nodes = (
(384,0,l),
(363,198,l),
(355,196,l),
(318,30,l),
(42,25,l),
(54,9,l),
(358,585,l),
(345,600,l),
(39,612,l),
(78,421,l),
(86,423,l),
(106,575,l),
(333,579,l),
(324,592,l),
(20,15,l),
(34,0,l)
);
}
);
width = 404;
}
);
unicode = 90;
},
{
glyphname = T_b.liga;
layers = (
{
layerId = "0CCC0E2D-406A-4672-8E6C-854B1DF78A27";
shapes = (
{
closed = 1;
nodes = (
(838,51,l),
(906,7,o),
(997,-20,o),
(1092,-20,cs),
(1276,-20,o),
(1400,72,o),
(1400,209,cs),
(1400,338,o),
(1293,420,o),
(1140,420,cs),
(1040,420,o),
(938,386,o),
(873,336,c),
(873,662,l),
(742,610,l),
(414,600,l),
(35,610,l),
(73,419,l),
(81,421,l),
(107,579,l),
(395,579,l),
(396,50,l),
(246,8,l),
(248,0,l),
(581,0,l),
(583,8,l),
(433,50,l),
(432,579,l),
(838,580,l)
);
},
{
closed = 1;
nodes = (
(873,303,l),
(922,351,o),
(1028,391,o),
(1127,391,cs),
(1256,391,o),
(1365,320,o),
(1365,198,cs),
(1365,84,o),
(1257,5,o),
(1102,5,cs),
(1019,5,o),
(927,30,o),
(873,67,c)
);
}
);
width = 1444;
},
{
layerId = "2C26E880-80A5-4D19-8A94-7D905A372841";
shapes = (
{
closed = 1;
nodes = (
(482,31,l),
(533,-5,o),
(572,-20,o),
(613,-20,cs),
(710,-20,o),
(774,67,o),
(774,200,cs),
(774,327,o),
(712,411,o),
(619,411,cs),
(577,411,o),
(532,393,o),
(512,369,c),
(512,661,l),
(413,608,l),
(241,600,l),
(35,612,l),
(74,421,l),
(82,423,l),
(102,575,l),
(223,578,l),
(223,45,l),
(113,8,l),
(115,0,l),
(366,0,l),
(368,8,l),
(258,45,l),
(258,578,l),
(482,575,l)
);
},
{
closed = 1;
nodes = (
(512,332,l),
(525,362,o),
(571,386,o),
(615,386,cs),
(694,386,o),
(744,309,o),
(744,188,cs),
(744,74,o),
(697,5,o),
(620,5,cs),
(582,5,o),
(538,22,o),
(512,47,c)
);
}
);
width = 813;
},
{
layerId = m003;
shapes = (
{
closed = 1;
nodes = (
(469,37,l),
(505,4,o),
(564,-20,o),
(624,-20,cs),
(729,-20,o),
(811,82,o),
(811,216,cs),
(811,339,o),
(749,422,o),
(656,422,cs),
(609,422,o),
(574,402,o),
(543,357,c),
(543,650,l),
(447,612,l),
(250,600,l),
(23,612,l),
(62,401,l),
(70,403,l),
(101,564,l),
(210,571,l),
(210,45,l),
(100,8,l),
(102,0,l),
(398,0,l),
(400,8,l),
(290,45,l),
(290,571,l),
(469,561,l)
);
},
{
closed = 1;
nodes = (
(543,311,l),
(569,354,o),
(597,375,o),
(631,375,cs),
(695,375,o),
(737,299,o),
(737,188,cs),
(737,84,o),
(698,20,o),
(629,20,cs),
(596,20,o),
(563,34,o),
(543,53,c)
);
}
);
width = 845;
},
{
layerId = m002;
shapes = (
{
closed = 1;
nodes = (
(912,59,l),
(972,10,o),
(1080,-20,o),
(1182,-20,cs),
(1384,-20,o),
(1536,92,o),
(1536,230,cs),
(1536,342,o),
(1427,436,o),
(1276,436,cs),
(1182,436,o),
(1082,399,o),
(1001,336,c),
(1001,700,l),
(746,606,l),
(473,600,l),
(19,610,l),
(65,390,l),
(73,392,l),
(107,550,l),
(425,558,l),
(426,50,l),
(276,8,l),
(278,0,l),
(671,0,l),
(673,8,l),
(523,50,l),
(522,558,l),
(912,551,l)
);
},
{
closed = 1;
nodes = (
(1001,285,l),
(1078,359,o),
(1150,385,o),
(1235,385,cs),
(1376,385,o),
(1447,307,o),
(1447,198,cs),
(1447,96,o),
(1353,24,o),
(1218,24,cs),
(1148,24,o),
(1053,39,o),
(1001,75,c)
);
}
);
width = 1565;
}
);
metricLeft = T;
metricRight = b;
},
{
glyphname = T_h.liga;
kernLeft = T;
kernRight = n;
layers = (
{
anchors = (
{
name = bottom;
pos = (430,0);
},
{
name = center;
pos = (414,300);
},
{
name = top;
pos = (414,600);
}
);
layerId = "0CCC0E2D-406A-4672-8E6C-854B1DF78A27";
shapes = (
{
closed = 1;
nodes = (
(73,419,l),
(81,421,l),
(107,579,l),
(395,579,l),
(396,50,l),
(246,8,l),
(248,0,l),
(581,0,l),
(583,8,l),
(433,50,l),
(432,579,l),
(888,580,l),
(888,50,l),
(748,6,l),
(750,0,l),
(1071,0,l),
(1073,6,l),
(923,50,l),
(923,662,l),
(792,610,l),
(414,600,l),
(35,610,l)
);
},
{
closed = 1;
nodes = (
(913,297,l),
(1016,365,o),
(1103,392,o),
(1196,392,cs),
(1329,392,o),
(1386,331,o),
(1387,217,cs),
(1388,50,l),
(1238,8,l),
(1240,0,l),
(1551,1,l),
(1553,9,l),
(1422,49,l),
(1422,224,ls),
(1422,351,o),
(1353,420,o),
(1208,420,cs),
(1113,420,o),
(1016,390,o),
(913,323,c)
);
}
);
width = 1572;
},
{
anchors = (
{
name = bottom;
pos = (489,0);
},
{
name = center;
pos = (473,300);
},
{
name = top;
pos = (473,600);
}
);
layerId = m002;
shapes = (
{
closed = 1;
nodes = (
(65,390,l),
(73,392,l),
(107,550,l),
(425,558,l),
(426,50,l),
(276,8,l),
(278,0,l),
(671,0,l),
(673,8,l),
(523,50,l),
(522,558,l),
(962,551,l),
(962,50,l),
(822,9,l),
(824,0,l),
(1199,0,l),
(1201,9,l),
(1051,50,l),
(1051,700,l),
(796,606,l),
(473,600,l),
(19,610,l)
);
},
{
closed = 1;
nodes = (
(1017,284,l),
(1110,345,o),
(1210,379,o),
(1279,379,cs),
(1402,379,o),
(1468,321,o),
(1469,212,cs),
(1470,50,l),
(1320,8,l),
(1322,0,l),
(1687,1,l),
(1689,9,l),
(1558,49,l),
(1558,208,ls),
(1558,355,o),
(1473,436,o),
(1328,436,cs),
(1231,436,o),
(1125,397,o),
(1017,323,c)
);
}
);
width = 1695;
},
{
anchors = (
{
name = bottom;
pos = (263,0);
},
{
name = center;
pos = (244,300);
},
{
name = top;
pos = (245,600);
}
);
layerId = m003;
shapes = (
{
closed = 1;
nodes = (
(62,401,l),
(70,403,l),
(101,564,l),
(210,571,l),
(210,45,l),
(100,8,l),
(102,0,l),
(398,0,l),
(400,8,l),
(290,45,l),
(290,571,l),
(499,561,l),
(499,45,l),
(426,8,l),
(428,0,l),
(643,0,l),
(645,8,l),
(573,45,l),
(573,650,l),
(477,612,l),
(250,600,l),
(23,612,l)
);
},
{
closed = 1;
nodes = (
(550,276,l),
(597,340,o),
(638,370,o),
(678,370,cs),
(728,370,o),
(756,327,o),
(756,253,cs),
(756,45,l),
(676,8,l),
(678,0,l),
(928,1,l),
(930,9,l),
(829,44,l),
(829,264,ls),
(829,362,o),
(791,422,o),
(717,422,cs),
(663,422,o),
(610,389,o),
(550,312,c)
);
}
);
width = 938;
},
{
anchors = (
{
name = bottom;
pos = (246,0);
},
{
name = center;
pos = (240,300);
},
{
name = top;
pos = (236,600);
}
);
layerId = "2C26E880-80A5-4D19-8A94-7D905A372841";
shapes = (
{
closed = 1;
nodes = (
(74,421,l),
(82,423,l),
(102,575,l),
(223,578,l),
(223,45,l),
(113,8,l),
(115,0,l),
(366,0,l),
(368,8,l),
(258,45,l),
(258,578,l),
(512,575,l),
(512,47,l),
(402,8,l),
(404,0,l),
(650,0,l),
(652,8,l),
(542,47,l),
(542,661,l),
(443,608,l),
(241,600,l),
(35,612,l)
);
},
{
closed = 1;
nodes = (
(534,287,l),
(590,361,o),
(633,384,o),
(679,384,cs),
(735,384,o),
(757,349,o),
(757,257,cs),
(757,45,l),
(677,8,l),
(679,0,l),
(886,1,l),
(888,9,l),
(787,44,l),
(787,264,ls),
(787,378,o),
(747,411,o),
(689,411,cs),
(632,411,o),
(583,382,o),
(534,319,c)
);
}
);
width = 907;
}
);
metricLeft = T;
metricRight = h;
},
{
glyphname = T_k.liga;
layers = (
{
anchors = (
{
name = bottom;
pos = (430,0);
},
{
name = center;
pos = (414,300);
},
{
name = top;
pos = (414,600);
}
);
layerId = "0CCC0E2D-406A-4672-8E6C-854B1DF78A27";
shapes = (
{
closed = 1;
nodes = (
(1340,350,l),
(1503,392,l),
(1501,400,l),
(1126,400,l),
(1124,392,l),
(1285,350,l),
(909,143,l),
(918,118,l)
);
},
{
closed = 1;
nodes = (
(1108,243,l),
(1374,50,l),
(1214,8,l),
(1216,0,l),
(1559,0,l),
(1561,8,l),
(1426,50,l),
(1139,260,l)
);
},
{
closed = 1;
nodes = (
(73,419,l),
(81,421,l),
(107,579,l),
(395,579,l),
(396,50,l),
(246,8,l),
(248,0,l),
(581,0,l),
(583,8,l),
(433,50,l),
(432,579,l),
(888,580,l),
(888,50,l),
(748,6,l),
(750,0,l),
(1071,0,l),
(1073,6,l),
(923,50,l),
(923,662,l),
(792,610,l),
(414,600,l),
(35,610,l)
);
}
);
width = 1570;
},
{
anchors = (
{
name = bottom;
pos = (489,0);
},
{
name = center;
pos = (473,300);
},
{
name = top;
pos = (473,600);
}
);
layerId = m002;
shapes = (
{
closed = 1;
nodes = (
(1488,366,l),
(1615,408,l),
(1613,416,l),
(1217,416,l),
(1215,408,l),
(1376,366,l),
(1003,146,l),
(1030,118,l)
);
},
{
closed = 1;
nodes = (
(1199,219,l),
(1460,50,l),
(1300,8,l),
(1302,0,l),
(1703,0,l),
(1705,8,l),
(1583,50,l),
(1279,256,l)
);
},
{
closed = 1;
nodes = (
(65,390,l),
(73,392,l),
(107,550,l),
(425,558,l),
(426,50,l),
(276,8,l),
(278,0,l),
(671,0,l),
(673,8,l),
(523,50,l),
(522,558,l),
(962,551,l),
(962,50,l),
(822,9,l),
(824,0,l),
(1199,0,l),
(1201,9,l),
(1051,50,l),
(1051,700,l),
(796,606,l),
(473,600,l),
(19,610,l)
);
}
);
width = 1700;
},
{
anchors = (
{
name = bottom;
pos = (251,0);
},
{
name = center;
pos = (245,300);
},
{
name = top;
pos = (245,600);
}
);
layerId = m003;
shapes = (
{
closed = 1;
nodes = (
(737,357,l),
(845,394,l),
(843,402,l),
(612,402,l),
(610,394,l),
(690,357,l),
(531,146,l),
(552,118,l)
);
},
{
closed = 1;
nodes = (
(607,218,l),
(734,35,l),
(673,8,l),
(675,0,l),
(895,0,l),
(897,8,l),
(811,41,l),
(657,259,l)
);
},
{
closed = 1;
nodes = (
(62,401,l),
(70,403,l),
(101,564,l),
(210,571,l),
(210,45,l),
(100,8,l),
(102,0,l),
(398,0,l),
(400,8,l),
(290,45,l),
(290,571,l),
(499,561,l),
(499,45,l),
(426,8,l),
(428,0,l),
(643,0,l),
(645,8,l),
(573,45,l),
(573,650,l),
(477,612,l),
(250,600,l),
(23,612,l)
);
}
);
width = 886;
},
{
anchors = (
{
name = bottom;
pos = (243,0);
},
{
name = center;
pos = (237,300);
},
{
name = top;
pos = (237,600);
}
);
layerId = "2C26E880-80A5-4D19-8A94-7D905A372841";
shapes = (
{
closed = 1;
nodes = (
(693,346,l),
(813,383,l),
(811,391,l),
(584,391,l),
(582,383,l),
(662,346,l),
(525,143,l),
(536,118,l)
);
},
{
closed = 1;
nodes = (
(604,235,l),
(721,35,l),
(661,8,l),
(663,0,l),
(844,0,l),
(846,8,l),
(750,41,l),
(619,263,l)
);
},
{
closed = 1;
nodes = (
(74,421,l),
(82,423,l),
(102,575,l),
(223,578,l),
(223,45,l),
(113,8,l),
(115,0,l),
(366,0,l),
(368,8,l),
(258,45,l),
(258,578,l),
(512,575,l),
(512,47,l),
(402,8,l),
(404,0,l),
(650,0,l),
(652,8,l),
(542,47,l),
(542,661,l),
(443,608,l),
(241,600,l),
(35,612,l)
);
}
);
width = 865;
}
);
metricLeft = T;
metricRight = k;
},
{
glyphname = T_l.liga;
layers = (
{
layerId = "0CCC0E2D-406A-4672-8E6C-854B1DF78A27";
shapes = (
{
closed = 1;
nodes = (
(73,419,l),
(81,421,l),
(107,579,l),
(395,579,l),
(396,50,l),
(246,8,l),
(248,0,l),
(581,0,l),
(583,8,l),
(433,50,l),
(432,579,l),
(888,580,l),
(888,50,l),
(748,6,l),
(750,0,l),
(1071,0,l),
(1073,6,l),
(923,50,l),
(923,662,l),
(792,610,l),
(414,600,l),
(35,610,l)
);
}
);
width = 1082;
},
{
layerId = m002;
shapes = (
{
closed = 1;
nodes = (
(65,390,l),
(73,392,l),
(107,550,l),
(425,558,l),
(426,50,l),
(276,8,l),
(278,0,l),
(671,0,l),
(673,8,l),
(523,50,l),
(522,558,l),
(962,551,l),
(962,50,l),
(822,9,l),
(824,0,l),
(1199,0,l),
(1201,9,l),
(1051,50,l),
(1051,700,l),
(796,606,l),
(473,600,l),
(19,610,l)
);
}
);
width = 1196;
},
{
layerId = m003;
shapes = (
{
closed = 1;
nodes = (
(62,401,l),
(70,403,l),
(101,564,l),
(210,571,l),
(210,45,l),
(100,8,l),
(102,0,l),
(398,0,l),
(400,8,l),
(290,45,l),
(290,571,l),
(499,561,l),
(499,45,l),
(426,8,l),
(428,0,l),
(643,0,l),
(645,8,l),
(573,45,l),
(573,650,l),
(477,612,l),
(250,600,l),
(23,612,l)
);
}
);
width = 632;
},
{
layerId = "2C26E880-80A5-4D19-8A94-7D905A372841";
shapes = (
{
closed = 1;
nodes = (
(74,421,l),
(82,423,l),
(102,575,l),
(223,578,l),
(223,45,l),
(113,8,l),
(115,0,l),
(366,0,l),
(368,8,l),
(258,45,l),
(258,578,l),
(512,575,l),
(512,47,l),
(402,8,l),
(404,0,l),
(650,0,l),
(652,8,l),
(542,47,l),
(542,661,l),
(443,608,l),
(241,600,l),
(35,612,l)
);
}
);
width = 653;
}
);
metricLeft = T;
metricRight = l;
},
{
glyphname = a;
kernLeft = a;
kernRight = a;
layers = (
{
anchors = (
{
name = bottom;
pos = (309,0);
},
{
name = ogonek;
pos = (527,10);
},
{
name = top;
pos = (309,401);
}
);
layerId = "0CCC0E2D-406A-4672-8E6C-854B1DF78A27";
shapes = (
{
closed = 1;
nodes = (
(39,36,o),
(108,-20,o),
(261,-20,cs),
(349,-20,o),
(433,5,o),
(506,46,c),
(506,-23,l),
(644,50,l),
(642,58,l),
(536,48,l),
(542,175,ls),
(551,355,o),
(481,421,o),
(320,421,cs),
(225,421,o),
(127,399,o),
(46,366,c),
(87,259,l),
(95,261,l),
(106,360,l),
(146,375,o),
(234,392,o),
(301,392,cs),
(453,392,o),
(512,332,o),
(506,175,c),
(522,185,l),
(482,210,o),
(396,239,o),
(289,239,cs),
(120,239,o),
(39,184,o),
(39,109,cs)
);
},
{
closed = 1;
nodes = (
(80,175,o),
(149,212,o),
(282,212,cs),
(375,212,o),
(457,190,o),
(506,163,c),
(506,75,l),
(433,33,o),
(363,10,o),
(274,10,cs),
(153,10,o),
(80,46,o),
(80,113,cs)
);
}
);
width = 648;
},
{
associatedMasterId = "0CCC0E2D-406A-4672-8E6C-854B1DF78A27";
layerId = "3579564A-0441-4A8A-B195-9A8D515AF430";
name = "May 21 19, 15:50";
shapes = (
{
closed = 1;
nodes = (
(60,43,o),
(143,-15,o),
(295,-15,cs),
(399,-15,o),
(486,22,o),
(541,72,c),
(553,-8,l),
(754,29,l),
(751,34,l),
(604,47,l),
(609,184,ls),
(609,347,o),
(548,430,o),
(385,430,cs),
(299,430,o),
(210,413,o),
(75,341,c),
(146,247,l),
(153,248,l),
(152,350,l),
(189,373,o),
(254,388,o),
(339,388,cs),
(485,388,o),
(534.851,321.434,o),
(538.761,196.471,c),
(490.434,232.274,o),
(417.071,251.222,o),
(333,255,cs),
(170,262,o),
(60,201,o),
(60,124,cs)
);
},
{
closed = 1;
nodes = (
(140,184,o),
(194,220,o),
(310,220,cs),
(406.669,220,o),
(492.769,197.098,o),
(539.363,163.694,c),
(540.449,102.848,l),
(486.091,54.057,o),
(416.209,20,o),
(317,20,cs),
(194,20,o),
(140,68,o),
(140,124,cs)
);
}
);
width = 754;
},
{
associatedMasterId = "0CCC0E2D-406A-4672-8E6C-854B1DF78A27";
layerId = "91CC11DD-F4B2-43D3-A364-F6B4C7026FA7";
name = "2 Dec 21, 16:02";
shapes = (
{
closed = 1;
nodes = (
(60,39,o),
(151,-15,o),
(295,-15,cs),
(389,-15,o),
(479,17,o),
(540,72,c),
(553,-8,l),
(754,29,l),
(751,34,l),
(607,47,l),
(607,184,ls),
(613,358,o),
(547,433,o),
(385,433,cs),
(284,433,o),
(193,407,o),
(75,344,c),
(146,250,l),
(153,251,l),
(152,353,l),
(191,377,o),
(259,391,o),
(339,391,cs),
(480,391,o),
(536,337,o),
(540,196,c),
(497,231,o),
(425,251,o),
(333,255,cs),
(178,262,o),
(60,205,o),
(60,124,cs)
);
},
{
closed = 1;
nodes = (
(140,187,o),
(199,220,o),
(310,220,cs),
(402,220,o),
(492,198,o),
(540,164,c),
(540,103,l),
(477,47,o),
(405,20,o),
(317,20,cs),
(208,20,o),
(140,60,o),
(140,124,cs)
);
}
);
width = 754;
},
{
anchors = (
{
name = bottom;
pos = (347,0);
},
{
name = ogonek;
pos = (544,10);
},
{
name = top;
pos = (326,410);
}
);
associatedMasterId = "0CCC0E2D-406A-4672-8E6C-854B1DF78A27";
layerId = "7C1D6698-0A2B-4F23-9FB0-CACCE011AC68";
name = "27 Jan 22, 18:14";
shapes = (
{
closed = 1;
nodes = (
(30,37,o),
(124,-20,o),
(265,-20,cs),
(350,-20,o),
(441,10,o),
(510,61,c),
(520,-13,l),
(699,39,l),
(697,47,l),
(577,47,l),
(577,184,ls),
(577,362,o),
(514,430,o),
(355,430,cs),
(254,430,o),
(163,407,o),
(45,344,c),
(95,249,l),
(103,251,l),
(114,346,l),
(148,363,o),
(221,388,o),
(309,388,cs),
(460,388,o),
(516,330,o),
(510,175,c),
(526,191,l),
(484,227,o),
(403,250,o),
(303,255,cs),
(148,262,o),
(30,205,o),
(30,114,cs)
);
},
{
closed = 1;
nodes = (
(110,188,o),
(169,220,o),
(280,220,cs),
(363,220,o),
(456,202,o),
(510,162,c),
(510,92,l),
(444,44,o),
(371,20,o),
(287,20,cs),
(178,20,o),
(110,61,o),
(110,127,cs)
);
}
);
width = 674;
},
{
anchors = (
{
name = bottom;
pos = (369,0);
},
{
name = ogonek;
pos = (555,10);
},
{
name = top;
pos = (337,415);
}
);
layerId = m002;
shapes = (
{
closed = 1;
nodes = (
(26,37,o),
(135,-20,o),
(268,-20,cs),
(352,-20,o),
(446,13,o),
(513,70,c),
(513,-23,l),
(700,64,l),
(698,72,l),
(592,62,l),
(597,188,ls),
(604,370,o),
(528,435,o),
(355,435,cs),
(241,435,o),
(139,415,o),
(59,383,c),
(110,259,l),
(118,261,l),
(129,357,l),
(172,375,o),
(231,386,o),
(303,386,cs),
(469,386,o),
(519,324,o),
(513,175,c),
(529,194,l),
(484,239,o),
(390,265,o),
(273,265,cs),
(145,265,o),
(26,209,o),
(26,117,cs)
);
},
{
closed = 1;
nodes = (
(128,195,o),
(181,224,o),
(280,224,cs),
(365,224,o),
(462,205,o),
(513,162,c),
(513,101,l),
(448,48,o),
(373,26,o),
(295,26,cs),
(193,26,o),
(128,70,o),
(128,134,cs)
);
}
);
width = 695;
},
{
associatedMasterId = m002;
layerId = "3BEFB6E7-895D-455F-B358-DA0166F50908";
name = "May 21 19, 15:50";
shapes = (
{
closed = 1;
nodes = (
(60,43,o),
(143,-15,o),
(295,-15,cs),
(399,-15,o),
(486,22,o),
(541,72,c),
(553,-8,l),
(754,29,l),
(751,34,l),
(604,47,l),
(609,184,ls),
(609,347,o),
(548,430,o),
(385,430,cs),
(299,430,o),
(210,413,o),
(75,341,c),
(146,247,l),
(153,248,l),
(152,350,l),
(189,373,o),
(254,388,o),
(339,388,cs),
(485,388,o),
(534.851,321.434,o),
(538.761,196.471,c),
(490.434,232.274,o),
(417.071,251.222,o),
(333,255,cs),
(170,262,o),
(60,201,o),
(60,124,cs)
);
},
{
closed = 1;
nodes = (
(140,184,o),
(194,220,o),
(310,220,cs),
(406.669,220,o),
(492.769,197.098,o),
(539.363,163.694,c),
(540.449,102.848,l),
(486.091,54.057,o),
(416.209,20,o),
(317,20,cs),
(194,20,o),
(140,68,o),
(140,124,cs)
);
}
);
width = 754;
},
{
associatedMasterId = m002;
layerId = "62CE75E4-4188-4726-8EDD-84CC4FCCF9FF";
name = "2 Dec 21, 16:02";
shapes = (
{
closed = 1;
nodes = (
(60,39,o),
(151,-15,o),
(295,-15,cs),
(389,-15,o),
(479,17,o),
(540,72,c),
(553,-8,l),
(754,29,l),
(751,34,l),
(607,47,l),
(607,184,ls),
(613,358,o),
(547,433,o),
(385,433,cs),
(284,433,o),
(193,407,o),
(75,344,c),
(146,250,l),
(153,251,l),
(152,353,l),
(191,377,o),
(259,391,o),
(339,391,cs),
(480,391,o),
(536,337,o),
(540,196,c),
(497,231,o),
(425,251,o),
(333,255,cs),
(178,262,o),
(60,205,o),
(60,124,cs)
);
},
{
closed = 1;
nodes = (
(140,187,o),
(199,220,o),
(310,220,cs),
(402,220,o),
(492,198,o),
(540,164,c),
(540,103,l),
(477,47,o),
(405,20,o),
(317,20,cs),
(208,20,o),
(140,60,o),
(140,124,cs)
);
}
);
width = 754;
},
{
anchors = (
{
name = bottom;
pos = (347,0);
},
{
name = ogonek;
pos = (544,10);
},
{
name = top;
pos = (326,410);
}
);
associatedMasterId = m002;
layerId = "A9F2DBAD-E81C-48A0-96D8-B47C59A988EB";
name = "27 Jan 22, 18:14";
shapes = (
{
closed = 1;
nodes = (
(30,37,o),
(124,-20,o),
(265,-20,cs),
(350,-20,o),
(441,10,o),
(510,61,c),
(520,-13,l),
(699,39,l),
(697,47,l),
(577,47,l),
(577,184,ls),
(577,362,o),
(514,430,o),
(355,430,cs),
(254,430,o),
(163,407,o),
(45,344,c),
(95,249,l),
(103,251,l),
(114,346,l),
(148,363,o),
(221,388,o),
(309,388,cs),
(460,388,o),
(516,330,o),
(510,175,c),
(526,191,l),
(484,227,o),
(403,250,o),
(303,255,cs),
(148,262,o),
(30,205,o),
(30,114,cs)
);
},
{
closed = 1;
nodes = (
(110,188,o),
(169,220,o),
(280,220,cs),
(363,220,o),
(456,202,o),
(510,162,c),
(510,92,l),
(444,44,o),
(371,20,o),
(287,20,cs),
(178,20,o),
(110,61,o),
(110,127,cs)
);
}
);
width = 674;
},
{
anchors = (
{
name = bottom;
pos = (222,0);
},
{
name = ogonek;
pos = (278,10);
},
{
name = top;
pos = (194,402);
}
);
layerId = m003;
shapes = (
{
closed = 1;
nodes = (
(28,34,o),
(77,-20,o),
(152,-20,cs),
(194,-20,o),
(230,-2,o),
(262,35,c),
(262,-23,l),
(425,51,l),
(423,59,l),
(323,56,l),
(328,254,ls),
(331,376,o),
(295,422,o),
(196,422,cs),
(146,422,o),
(104,411,o),
(44,382,c),
(91,269,l),
(99,271,l),
(100,369,l),
(115,377,o),
(139,382,o),
(164,382,cs),
(242,382,o),
(269,335,o),
(262,214,c),
(278,228,l),
(246,247,o),
(198,260,o),
(161,260,cs),
(83,260,o),
(28,201,o),
(28,115,cs)
);
},
{
closed = 1;
nodes = (
(98,189,o),
(128,223,o),
(179,223,cs),
(206,223,o),
(240,214,o),
(262,201,c),
(262,65,l),
(249,42,o),
(210,23,o),
(179,23,cs),
(132,23,o),
(98,67,o),
(98,130,cs)
);
}
);
width = 425;
},
{
associatedMasterId = m003;
layerId = "F7CA146F-475E-4969-AC32-67B6DF3EF1B0";
name = "May 21 19, 15:50";
shapes = (
{
closed = 1;
nodes = (
(60,43,o),
(143,-15,o),
(295,-15,cs),
(399,-15,o),
(486,22,o),
(541,72,c),
(553,-8,l),
(754,29,l),
(751,34,l),
(604,47,l),
(609,184,ls),
(609,347,o),
(548,430,o),
(385,430,cs),
(299,430,o),
(210,413,o),
(75,341,c),
(146,247,l),
(153,248,l),
(152,350,l),
(189,373,o),
(254,388,o),
(339,388,cs),
(485,388,o),
(534.851,321.434,o),
(538.761,196.471,c),
(490.434,232.274,o),
(417.071,251.222,o),
(333,255,cs),
(170,262,o),
(60,201,o),
(60,124,cs)
);
},
{
closed = 1;
nodes = (
(140,184,o),
(194,220,o),
(310,220,cs),
(406.669,220,o),
(492.769,197.098,o),
(539.363,163.694,c),
(540.449,102.848,l),
(486.091,54.057,o),
(416.209,20,o),
(317,20,cs),
(194,20,o),
(140,68,o),
(140,124,cs)
);
}
);
width = 754;
},
{
associatedMasterId = m003;
layerId = "D1C9A7C8-7F5C-4831-8DBB-F1CC3D4410FC";
name = "2 Dec 21, 16:02";
shapes = (
{
closed = 1;
nodes = (
(60,39,o),
(151,-15,o),
(295,-15,cs),
(389,-15,o),
(479,17,o),
(540,72,c),
(553,-8,l),
(754,29,l),
(751,34,l),
(607,47,l),
(607,184,ls),
(613,358,o),
(547,433,o),
(385,433,cs),
(284,433,o),
(193,407,o),
(75,344,c),
(146,250,l),
(153,251,l),
(152,353,l),
(191,377,o),
(259,391,o),
(339,391,cs),
(480,391,o),
(536,337,o),
(540,196,c),
(497,231,o),
(425,251,o),
(333,255,cs),
(178,262,o),
(60,205,o),
(60,124,cs)
);
},
{
closed = 1;
nodes = (
(140,187,o),
(199,220,o),
(310,220,cs),
(402,220,o),
(492,198,o),
(540,164,c),
(540,103,l),
(477,47,o),
(405,20,o),
(317,20,cs),
(208,20,o),
(140,60,o),
(140,124,cs)
);
}
);
width = 754;
},
{
anchors = (
{
name = bottom;
pos = (347,0);
},
{
name = ogonek;
pos = (544,10);
},
{
name = top;
pos = (326,410);
}
);
associatedMasterId = m003;
layerId = "FCF18F07-E2C3-4F05-A921-643A2F9FEB88";
name = "27 Jan 22, 18:14";
shapes = (
{
closed = 1;
nodes = (
(30,37,o),
(124,-20,o),
(265,-20,cs),
(350,-20,o),
(441,10,o),
(510,61,c),
(520,-13,l),
(699,39,l),
(697,47,l),
(577,47,l),
(577,184,ls),
(577,362,o),
(514,430,o),
(355,430,cs),
(254,430,o),
(163,407,o),
(45,344,c),
(95,249,l),
(103,251,l),
(114,346,l),
(148,363,o),
(221,388,o),
(309,388,cs),
(460,388,o),
(516,330,o),
(510,175,c),
(526,191,l),
(484,227,o),
(403,250,o),
(303,255,cs),
(148,262,o),
(30,205,o),
(30,114,cs)
);
},
{
closed = 1;
nodes = (
(110,188,o),
(169,220,o),
(280,220,cs),
(363,220,o),
(456,202,o),
(510,162,c),
(510,92,l),
(444,44,o),
(371,20,o),
(287,20,cs),
(178,20,o),
(110,61,o),
(110,127,cs)
);
}
);
width = 674;
},
{
anchors = (
{
name = bottom;
pos = (175,0);
},
{
name = ogonek;
pos = (286,10);
},
{
name = top;
pos = (171,392);
}
);
layerId = "2C26E880-80A5-4D19-8A94-7D905A372841";
shapes = (
{
closed = 1;
nodes = (
(29,35,o),
(79,-20,o),
(144,-20,cs),
(178,-20,o),
(223,-6,o),
(254,17,c),
(254,-23,l),
(382,40,l),
(380,48,l),
(283,38,l),
(288,244,ls),
(291,364,o),
(256,412,o),
(167,412,cs),
(130,412,o),
(83,399,o),
(51,378,c),
(89,279,l),
(97,281,l),
(98,373,l),
(112,381,o),
(141,386,o),
(166,386,cs),
(237,386,o),
(261,337,o),
(254,210,c),
(270,217,l),
(247,231,o),
(206,240,o),
(171,240,cs),
(81,240,o),
(29,192,o),
(29,109,cs)
);
},
{
closed = 1;
nodes = (
(65,178,o),
(102,214,o),
(167,214,cs),
(199,214,o),
(238,208,o),
(254,198,c),
(254,45,l),
(227,23,o),
(186,7,o),
(161,7,cs),
(99,7,o),
(65,47,o),
(65,114,cs)
);
}
);
width = 381;
},
{
anchors = (
{
name = bottom;
pos = (175,0);
},
{
name = ogonek;
pos = (286,10);
},
{
name = top;
pos = (171,392);
}
);
associatedMasterId = "2C26E880-80A5-4D19-8A94-7D905A372841";
layerId = "2A647253-3E0F-4327-9044-E2EA32E13360";
name = "15 Sep 22, 16:05";
shapes = (
{
closed = 1;
nodes = (
(29,35,o),
(79,-20,o),
(144,-20,cs),
(178,-20,o),
(223,-6,o),
(254,17,c),
(254,-23,l),
(382,26,l),
(380,34,l),
(283,34,l),
(288,244,ls),
(291,364,o),
(256,412,o),
(167,412,cs),
(130,412,o),
(83,399,o),
(51,378,c),
(89,279,l),
(97,281,l),
(98,373,l),
(112,381,o),
(141,386,o),
(166,386,cs),
(237,386,o),
(261,337,o),
(254,210,c),
(270,217,l),
(247,231,o),
(206,240,o),
(171,240,cs),
(81,240,o),
(29,192,o),
(29,109,cs)
);
},
{
closed = 1;
nodes = (
(65,178,o),
(102,214,o),
(167,214,cs),
(199,214,o),
(238,208,o),
(254,198,c),
(254,45,l),
(227,23,o),
(186,7,o),
(161,7,cs),
(99,7,o),
(65,47,o),
(65,114,cs)
);
}
);
width = 381;
},
{
anchors = (
{
name = bottom;
pos = (212,0);
},
{
name = ogonek;
pos = (279,10);
},
{
name = top;
pos = (189,400);
}
);
associatedMasterId = m003;
layerId = "6156C79B-33AC-468F-88CA-BDFF4A1A5C0D";
name = "15 Sep 22, 16:10";
shapes = (
{
closed = 1;
nodes = (
(20,37,o),
(75,-20,o),
(150,-20,cs),
(191,-20,o),
(228,-3,o),
(260,31,c),
(260,-23,l),
(416,34,l),
(414,42,l),
(315,42,l),
(320,252,ls),
(323,371,o),
(291,420,o),
(210,420,cs),
(166,420,o),
(101,404,o),
(45,381,c),
(90,279,l),
(98,281,l),
(99,371,l),
(112,376,o),
(161,383,o),
(184,383,cs),
(245,383,o),
(267,334,o),
(260,213,c),
(276,226,l),
(246,244,o),
(200,256,o),
(163,256,cs),
(80,256,o),
(20,197,o),
(20,114,cs)
);
},
{
closed = 1;
nodes = (
(95,187,o),
(125,221,o),
(176,221,cs),
(200,221,o),
(237,212,o),
(260,200,c),
(260,61,l),
(244,38,o),
(207,20,o),
(175,20,cs),
(128,20,o),
(95,65,o),
(95,127,cs)
);
}
);
width = 406;
},
{
anchors = (
{
name = bottom;
pos = (369,0);
},
{
name = ogonek;
pos = (555,10);
},
{
name = top;
pos = (337,415);
}
);
associatedMasterId = m002;
layerId = "4F316F20-F6CB-4837-B626-B78563727AD3";
name = "23 Sep 22, 14:29";
shapes = (
{
closed = 1;
nodes = (
(26,37,o),
(135,-20,o),
(268,-20,cs),
(352,-20,o),
(446,13,o),
(513,70,c),
(513,-23,l),
(700,64,l),
(698,72,l),
(592,62,l),
(597,188,ls),
(604,370,o),
(528,435,o),
(376,435,cs),
(255,435,o),
(153,415,o),
(49,373,c),
(100,259,l),
(108,261,l),
(119,354,l),
(168,375,o),
(242,386,o),
(314,386,cs),
(469,386,o),
(519,324,o),
(513,175,c),
(529,194,l),
(484,239,o),
(390,265,o),
(273,265,cs),
(145,265,o),
(26,209,o),
(26,117,cs)
);
},
{
closed = 1;
nodes = (
(128,195,o),
(181,224,o),
(280,224,cs),
(365,224,o),
(462,205,o),
(513,162,c),
(513,101,l),
(448,48,o),
(373,26,o),
(295,26,cs),
(193,26,o),
(128,70,o),
(128,134,cs)
);
}
);
width = 690;
},
{
anchors = (
{
name = bottom;
pos = (309,0);
},
{
name = ogonek;
pos = (527,10);
},
{
name = top;
pos = (309,401);
}
);
associatedMasterId = "0CCC0E2D-406A-4672-8E6C-854B1DF78A27";
layerId = "F70D2006-52F4-45C3-8781-C26145437470";
name = "23 Sep 22, 14:32";
shapes = (
{
closed = 1;
nodes = (
(39,36,o),
(108,-20,o),
(261,-20,cs),
(349,-20,o),
(433,5,o),
(506,46,c),
(506,-23,l),
(644,50,l),
(642,58,l),
(536,48,l),
(542,175,ls),
(551,355,o),
(481,421,o),
(320,421,cs),
(225,421,o),
(133,402,o),
(46,352,c),
(87,249,l),
(95,251,l),
(106,350,l),
(146,375,o),
(234,392,o),
(301,392,cs),
(453,392,o),
(512,332,o),
(506,175,c),
(522,185,l),
(482,210,o),
(396,239,o),
(289,239,cs),
(120,239,o),
(39,184,o),
(39,109,cs)
);
},
{
closed = 1;
nodes = (
(80,175,o),
(149,212,o),
(282,212,cs),
(375,212,o),
(457,190,o),
(506,163,c),
(506,75,l),
(433,33,o),
(363,10,o),
(274,10,cs),
(153,10,o),
(80,46,o),
(80,113,cs)
);
}
);
width = 648;
}
);
unicode = 97;
},
{
glyphname = ae;
kernLeft = a;
kernRight = o;
layers = (
{
anchors = (
{
name = top;
pos = (532,401);
}
);
layerId = "0CCC0E2D-406A-4672-8E6C-854B1DF78A27";
shapes = (
{
closed = 1;
nodes = (
(83,177,o),
(155,216,o),
(275,216,cs),
(356,216,o),
(430,198,o),
(489,166,c),
(489,99,l),
(422,35,o),
(359,7,o),
(258,7,cs),
(155,7,o),
(83,49,o),
(83,113,cs)
);
},
{
closed = 1;
nodes = (
(218,421,o),
(126,402,o),
(39,352,c),
(80,249,l),
(88,251,l),
(99,350,l),
(139,375,o),
(227,392,o),
(294,392,cs),
(432,392,o),
(489,336,o),
(489,193,c),
(449,221,o),
(354,238,o),
(284,238,cs),
(139,239,o),
(42,188,o),
(42,109,cs),
(42,33,o),
(129,-20,o),
(245,-20,cs),
(365,-20,o),
(446,18,o),
(538,114,c),
(508,112,l),
(559,24,o),
(643,-20,o),
(750,-20,cs),
(857,-20,o),
(949,18,o),
(1025,95,c),
(1014,105,l),
(938,39,o),
(863,9,o),
(773,9,cs),
(638,9,o),
(529,88,o),
(526,205,cs),
(523,320,o),
(617,395,o),
(753,395,cs),
(874,395,o),
(967,329,o),
(973,236,c),
(510,220,l),
(512,203,l),
(1021,205,l),
(1019,340,o),
(917,421,o),
(769,421,cs),
(640,421,o),
(541,366,o),
(506,270,c),
(525,263,l),
(504,375,o),
(442,421,o),
(313,421,cs)
);
}
);
width = 1069;
},
{
anchors = (
{
name = top;
pos = (557,415);
}
);
layerId = m002;
shapes = (
{
closed = 1;
nodes = (
(128,188,o),
(185,223,o),
(270,223,cs),
(368,223,o),
(450,198,o),
(493,160,c),
(493,91,l),
(449,54,o),
(373,27,o),
(290,27,cs),
(182,27,o),
(128,65,o),
(128,134,cs)
);
},
{
closed = 1;
nodes = (
(245,435,o),
(143,415,o),
(39,373,c),
(90,259,l),
(98,261,l),
(109,354,l),
(158,375,o),
(232,386,o),
(304,386,cs),
(447,386,o),
(491,340,o),
(493,209,c),
(446,240,o),
(390,257,o),
(304,264,cs),
(156,276,o),
(26,207,o),
(26,117,cs),
(26,42,o),
(135,-20,o),
(263,-20,cs),
(379,-20,o),
(473,16,o),
(585,115,c),
(524,111,l),
(560,35,o),
(649,-20,o),
(782,-20,cs),
(894,-20,o),
(978,19,o),
(1079,123,c),
(1064,138,l),
(995,69,o),
(918,42,o),
(827,42,cs),
(675,42,o),
(575,117,o),
(576,209,cs),
(578,327,o),
(674,396,o),
(765,396,cs),
(877,396,o),
(955,347,o),
(993,250,c),
(556,229,l),
(558,203,l),
(1075,192,l),
(1073,340,o),
(972,435,o),
(809,435,cs),
(683,435,o),
(590,384,o),
(536,314,c),
(562,304,l),
(537,401,o),
(479,435,o),
(366,435,cs)
);
}
);
width = 1108;
},
{
anchors = (
{
name = top;
pos = (324,402);
}
);
background = {
anchors = (
{
name = bottom;
pos = (222,0);
},
{
name = ogonek;
pos = (278,10);
},
{
name = top;
pos = (194,402);
}
);
};
layerId = m003;
shapes = (
{
closed = 1;
nodes = (
(98,189,o),
(127,223,o),
(179,223,cs),
(206,223,o),
(240,214,o),
(262,201,c),
(262,65,l),
(249,42,o),
(210,23,o),
(179,23,cs),
(132,23,o),
(98,67,o),
(98,130,cs)
);
},
{
closed = 1;
nodes = (
(146,422,o),
(103,411,o),
(44,382,c),
(91,269,l),
(99,271,l),
(100,369,l),
(115,377,o),
(139,382,o),
(164,382,cs),
(237,382,o),
(265,341,o),
(263,236,c),
(233,251,o),
(193,260,o),
(161,260,cs),
(81,260,o),
(28,203,o),
(28,115,cs),
(28,31,o),
(75,-20,o),
(152,-20,cs),
(214,-20,o),
(268,12,o),
(325,83,c),
(285,81,l),
(311,15,o),
(364,-20,o),
(435,-20,cs),
(491,-20,o),
(525,3,o),
(581,78,c),
(569,86,l),
(524,37,o),
(490,17,o),
(454,17,cs),
(379,17,o),
(326,107,o),
(327,230,cs),
(327,328,o),
(365,386,o),
(430,386,cs),
(483,386,o),
(502,348,o),
(503,243,c),
(306,227,l),
(308,204,l),
(581,200,l),
(579,349,o),
(532,422,o),
(439,422,cs),
(379,422,o),
(328,392,o),
(296,338,c),
(324,333,l),
(310,396,o),
(272,422,o),
(196,422,cs)
);
}
);
width = 615;
},
{
anchors = (
{
name = top;
pos = (275,392);
}
);
layerId = "2C26E880-80A5-4D19-8A94-7D905A372841";
shapes = (
{
closed = 1;
nodes = (
(65,180,o),
(97,214,o),
(158,214,cs),
(188,214,o),
(230,207,o),
(244,198,c),
(244,61,l),
(225,27,o),
(194,7,o),
(160,7,cs),
(99,7,o),
(65,45,o),
(65,114,cs)
);
},
{
closed = 1;
nodes = (
(130,412,o),
(83,399,o),
(51,378,c),
(89,279,l),
(97,281,l),
(98,373,l),
(112,381,o),
(141,386,o),
(166,386,cs),
(229,386,o),
(246,355,o),
(245,224,c),
(213,236,o),
(186,240,o),
(162,240,cs),
(78,240,o),
(29,193,o),
(29,109,cs),
(29,29,o),
(74,-20,o),
(146,-20,cs),
(204,-20,o),
(252,13,o),
(280,73,c),
(260,68,l),
(290,9,o),
(336,-20,o),
(395,-20,cs),
(446,-20,o),
(484,1,o),
(517,57,c),
(505,65,l),
(475,24,o),
(445,6,o),
(405,6,cs),
(324,6,o),
(281,80,o),
(278,210,cs),
(275,338,o),
(317,386,o),
(388,386,cs),
(457,386,o),
(478,342,o),
(482,227,c),
(266,222,l),
(268,201,l),
(517,204,l),
(515,352,o),
(479,412,o),
(395,412,cs),
(326,412,o),
(281,373,o),
(259,296,c),
(277,289,l),
(270,381,o),
(235,412,o),
(167,412,cs)
);
}
);
width = 556;
},
{
anchors = (
{
name = top;
pos = (325,402);
}
);
associatedMasterId = m003;
background = {
anchors = (
{
name = bottom;
pos = (223,0);
},
{
name = ogonek;
pos = (279,10);
},
{
name = top;
pos = (195,402);
}
);
};
layerId = "35C08634-345B-4D57-94A3-7ED1EB56FCC2";
name = "25 Sep 22, 12:42";
shapes = (
{
closed = 1;
nodes = (
(113,188,o),
(142,223,o),
(191,223,cs),
(209,223,o),
(231,216,o),
(262,201,c),
(262,61,l),
(244,37,o),
(216,23,o),
(189,23,cs),
(146,23,o),
(113,70,o),
(113,130,cs)
);
},
{
closed = 1;
nodes = (
(162,422,o),
(126,405,o),
(79,382,c),
(126,269,l),
(134,271,l),
(135,369,l),
(156,379,o),
(174,382,o),
(199,382,cs),
(248,382,o),
(268,349,o),
(263,237,c),
(236,251,o),
(204,260,o),
(174,260,cs),
(91,260,o),
(28,198,o),
(28,115,cs),
(28,39,o),
(86,-20,o),
(161,-20,cs),
(223,-20,o),
(280,24,o),
(335,94,c),
(293,66,l),
(324,9,o),
(369,-20,o),
(433,-20,cs),
(495,-20,o),
(539,10,o),
(577,78,c),
(565,86,l),
(534,39,o),
(494,17,o),
(452,17,cs),
(378,17,o),
(328,109,o),
(328,230,cs),
(328,324,o),
(361,386,o),
(427,386,cs),
(473,386,o),
(498,341,o),
(500,243,c),
(308,227,l),
(310,204,l),
(577,200,l),
(575,343,o),
(526,422,o),
(437,422,cs),
(376,422,o),
(330,392,o),
(299,344,c),
(326,330,l),
(316,400,o),
(285,422,o),
(231,422,cs)
);
}
);
width = 611;
}
);
metricLeft = a;
metricRight = e;
unicode = 230;
},
{
glyphname = b;
kernLeft = b;
kernRight = o;
layers = (
{
anchors = (
{
name = bottom;
pos = (332,0);
},
{
name = center;
pos = (332,205);
},
{
name = top;
pos = (340,401);
}
);
layerId = "0CCC0E2D-406A-4672-8E6C-854B1DF78A27";
shapes = (
{
closed = 1;
nodes = (
(119,302,l),
(170,351,o),
(273,391,o),
(372,391,cs),
(501,391,o),
(608,319,o),
(608,198,cs),
(608,85,o),
(501,7,o),
(347,7,cs),
(265,7,o),
(173,31,o),
(119,68,c)
);
},
{
closed = 1;
nodes = (
(-59,632,l),
(80,640,l),
(80,52,l),
(151,5,o),
(244,-20,o),
(335,-20,cs),
(521,-20,o),
(647,74,o),
(647,211,cs),
(647,338,o),
(540,421,o),
(387,421,cs),
(287,421,o),
(186,387,o),
(119,336,c),
(119,720,l),
(-61,640,l)
);
}
);
width = 691;
},
{
anchors = (
{
name = bottom;
pos = (344,0);
},
{
name = center;
pos = (344,205);
},
{
name = top;
pos = (340,415);
}
);
layerId = m002;
shapes = (
{
closed = 1;
nodes = (
(153,285,l),
(225,355,o),
(297,385,o),
(387,385,cs),
(528,385,o),
(601,308,o),
(601,198,cs),
(601,96,o),
(507,23,o),
(370,23,cs),
(294,23,o),
(203,40,o),
(153,75,c)
);
},
{
closed = 1;
nodes = (
(-73,632,l),
(66,640,l),
(66,59,l),
(125,11,o),
(232,-20,o),
(335,-20,cs),
(537,-20,o),
(687,91,o),
(687,230,cs),
(687,342,o),
(579,435,o),
(427,435,cs),
(334,435,o),
(234,399,o),
(153,336,c),
(153,720,l),
(-75,640,l)
);
}
);
width = 716;
},
{
anchors = (
{
name = bottom;
pos = (216,0);
},
{
name = center;
pos = (216,205);
},
{
name = top;
pos = (214,402);
}
);
layerId = m003;
shapes = (
{
closed = 1;
nodes = (
(111,311,l),
(138,356,o),
(167,375,o),
(199,375,cs),
(264,375,o),
(306,301,o),
(306,188,cs),
(306,83,o),
(267,20,o),
(198,20,cs),
(166,20,o),
(132,33,o),
(111,53,c)
);
},
{
closed = 1;
nodes = (
(-69,627,l),
(38,635,l),
(38,37,l),
(74,4,o),
(134,-20,o),
(192,-20,cs),
(298,-20,o),
(379,82,o),
(379,216,cs),
(379,339,o),
(317,422,o),
(224,422,cs),
(180,422,o),
(143,404,o),
(111,357,c),
(111,710,l),
(-73,635,l)
);
}
);
width = 413;
},
{
anchors = (
{
name = bottom;
pos = (206,0);
},
{
name = center;
pos = (206,205);
},
{
name = top;
pos = (214,392);
}
);
layerId = "2C26E880-80A5-4D19-8A94-7D905A372841";
shapes = (
{
closed = 1;
nodes = (
(85,330,l),
(100,361,o),
(143,385,o),
(187,385,cs),
(264,385,o),
(314,308,o),
(314,188,cs),
(314,75,o),
(267,7,o),
(191,7,cs),
(154,7,o),
(111,23,o),
(85,48,c)
);
},
{
closed = 1;
nodes = (
(-56,627,l),
(51,635,l),
(51,32,l),
(103,-6,o),
(144,-20,o),
(184,-20,cs),
(282,-20,o),
(348,69,o),
(348,202,cs),
(348,328,o),
(286,412,o),
(193,412,cs),
(150,412,o),
(107,394,o),
(85,368,c),
(85,710,l),
(-60,635,l)
);
}
);
width = 387;
}
);
metricRight = o;
unicode = 98;
},
{
glyphname = c;
kernLeft = o;
kernRight = c;
layers = (
{
associatedMasterId = "0CCC0E2D-406A-4672-8E6C-854B1DF78A27";
layerId = "8B00297B-E234-4E90-9934-A60BC44EF575";
name = "Extended Mar 20 18, 21:46";
shapes = (
{
closed = 1;
nodes = (
(45,46,o),
(184,-20,o),
(328,-20,cs),
(457,-20,o),
(555,33,o),
(638,118,c),
(623,126,l),
(549,56,o),
(457,33,o),
(365,33,cs),
(241,33,o),
(110,80,o),
(110,214,cs),
(110,319,o),
(200,392,o),
(328,392,cs),
(431,392,o),
(507,376,o),
(564,339,c),
(572,210,l),
(578,208,l),
(638,301,l),
(575,381,o),
(468,429,o),
(349,429,cs),
(167,429,o),
(45,324,o),
(45,188,cs)
);
}
);
width = 693;
},
{
anchors = (
{
name = bottom;
pos = (346,0);
},
{
name = top;
pos = (326,410);
}
);
layerId = "0CCC0E2D-406A-4672-8E6C-854B1DF78A27";
shapes = (
{
closed = 1;
nodes = (
(592,95,l),
(517,42,o),
(426,15,o),
(333,15,cs),
(182,15,o),
(78,92,o),
(78,205,cs),
(78,322,o),
(179,396,o),
(335,396,cs),
(398,396,o),
(462,385,o),
(518,368,c),
(538,248,l),
(546,246,l),
(581,385,l),
(524,403,o),
(432,421,o),
(346,421,cs),
(161,421,o),
(39,329,o),
(39,190,cs),
(39,64,o),
(152,-21,o),
(309,-21,cs),
(423,-21,o),
(533,29,o),
(603,84,c)
);
}
);
width = 652;
},
{
associatedMasterId = "0CCC0E2D-406A-4672-8E6C-854B1DF78A27";
layerId = "479A52C6-86C9-4DC5-AAC0-4B8766D458B2";
name = "Mar 20 18, 23:42";
shapes = (
{
closed = 1;
nodes = (
(45,46,o),
(184,-20,o),
(328,-20,cs),
(457,-20,o),
(555,33,o),
(638,118,c),
(623,126,l),
(549,56,o),
(457,33,o),
(365,33,cs),
(241,33,o),
(110,80,o),
(110,214,cs),
(110,311,o),
(200,392,o),
(328,392,cs),
(431,392,o),
(499,373,o),
(556,336,c),
(564,207,l),
(570,205,l),
(630,298,l),
(567,378,o),
(468,429,o),
(349,429,cs),
(167,429,o),
(45,316,o),
(45,188,cs)
);
}
);
width = 693;
},
{
associatedMasterId = "0CCC0E2D-406A-4672-8E6C-854B1DF78A27";
layerId = "8EDA96E6-9BFB-49F2-9BD6-63CA0E1DC036";
name = "Extended Mar 20 18, 21:46";
shapes = (
{
closed = 1;
nodes = (
(45,46,o),
(184,-20,o),
(328,-20,cs),
(457,-20,o),
(555,33,o),
(638,118,c),
(623,126,l),
(549,56,o),
(457,33,o),
(365,33,cs),
(241,33,o),
(110,80,o),
(110,214,cs),
(110,319,o),
(200,392,o),
(328,392,cs),
(431,392,o),
(507,376,o),
(564,339,c),
(572,210,l),
(578,208,l),
(638,301,l),
(575,381,o),
(468,429,o),
(349,429,cs),
(167,429,o),
(45,324,o),
(45,188,cs)
);
}
);
width = 693;
},
{
associatedMasterId = "0CCC0E2D-406A-4672-8E6C-854B1DF78A27";
layerId = "77F61E27-ECBC-4D1B-9E52-1C251CFB6976";
name = "Mar 20 18, 23:42";
shapes = (
{
closed = 1;
nodes = (
(45,46,o),
(184,-20,o),
(328,-20,cs),
(457,-20,o),
(555,33,o),
(638,118,c),
(623,126,l),
(549,56,o),
(457,33,o),
(365,33,cs),
(241,33,o),
(110,80,o),
(110,214,cs),
(110,311,o),
(200,392,o),
(328,392,cs),
(431,392,o),
(499,373,o),
(556,336,c),
(564,207,l),
(570,205,l),
(630,298,l),
(567,378,o),
(468,429,o),
(349,429,cs),
(167,429,o),
(45,316,o),
(45,188,cs)
);
}
);
width = 693;
},
{
associatedMasterId = "0CCC0E2D-406A-4672-8E6C-854B1DF78A27";
layerId = "C823A7B7-AF29-4986-A661-9B9EDB34FD5A";
name = "Mar 16 18, 15:18";
shapes = (
{
closed = 1;
nodes = (
(15,85,o),
(53,-10,o),
(139,-10,cs),
(213,-10,o),
(250,54,o),
(259,135,c),
(248,139,l),
(238,74,o),
(205,26,o),
(160,26,cs),
(67,26,o),
(67,149,o),
(67,225,cs),
(67,319,o),
(106,374,o),
(142,374,cs),
(162,374,o),
(202,372,o),
(241,335,c),
(256,341,l),
(236,371,o),
(203,410,o),
(146,410,cs),
(64,410,o),
(15,326,o),
(15,185,cs)
);
},
{
closed = 1;
nodes = (
(207,267,l),
(211,265,l),
(256,341,l),
(215,357,l)
);
}
);
width = 280;
},
{
associatedMasterId = m002;
layerId = "6D02EACE-9ACE-42D6-BECB-DA1A84E11D9F";
name = "Extended Mar 20 18, 21:46";
shapes = (
{
closed = 1;
nodes = (
(45,46,o),
(184,-20,o),
(328,-20,cs),
(457,-20,o),
(555,33,o),
(638,118,c),
(623,126,l),
(549,56,o),
(457,33,o),
(365,33,cs),
(241,33,o),
(110,80,o),
(110,214,cs),
(110,319,o),
(200,392,o),
(328,392,cs),
(431,392,o),
(507,376,o),
(564,339,c),
(572,210,l),
(578,208,l),
(638,301,l),
(575,381,o),
(468,429,o),
(349,429,cs),
(167,429,o),
(45,324,o),
(45,188,cs)
);
}
);
width = 693;
},
{
anchors = (
{
name = bottom;
pos = (359,0);
},
{
name = top;
pos = (339,410);
}
);
layerId = m002;
shapes = (
{
closed = 1;
nodes = (
(603,114,l),
(531,65,o),
(456,43,o),
(361,43,cs),
(207,43,o),
(113,109,o),
(113,219,cs),
(113,331,o),
(198,391,o),
(356,391,cs),
(417,391,o),
(475,382,o),
(531,364,c),
(551,253,l),
(559,251,l),
(609,407,l),
(527,425,o),
(443,435,o),
(379,435,cs),
(179,435,o),
(26,327,o),
(26,187,cs),
(26,65,o),
(145,-20,o),
(316,-20,cs),
(427,-20,o),
(514,15,o),
(616,100,c)
);
}
);
width = 652;
},
{
associatedMasterId = m002;
layerId = "9E84C52F-206B-4226-8C98-5D173747CF76";
name = "Mar 20 18, 23:42";
shapes = (
{
closed = 1;
nodes = (
(45,46,o),
(184,-20,o),
(328,-20,cs),
(457,-20,o),
(555,33,o),
(638,118,c),
(623,126,l),
(549,56,o),
(457,33,o),
(365,33,cs),
(241,33,o),
(110,80,o),
(110,214,cs),
(110,311,o),
(200,392,o),
(328,392,cs),
(431,392,o),
(499,373,o),
(556,336,c),
(564,207,l),
(570,205,l),
(630,298,l),
(567,378,o),
(468,429,o),
(349,429,cs),
(167,429,o),
(45,316,o),
(45,188,cs)
);
}
);
width = 693;
},
{
associatedMasterId = m002;
layerId = "F501D6BE-619A-4E5B-BB8F-7ACBAB26F432";
name = "Extended Mar 20 18, 21:46";
shapes = (
{
closed = 1;
nodes = (
(45,46,o),
(184,-20,o),
(328,-20,cs),
(457,-20,o),
(555,33,o),
(638,118,c),
(623,126,l),
(549,56,o),
(457,33,o),
(365,33,cs),
(241,33,o),
(110,80,o),
(110,214,cs),
(110,319,o),
(200,392,o),
(328,392,cs),
(431,392,o),
(507,376,o),
(564,339,c),
(572,210,l),
(578,208,l),
(638,301,l),
(575,381,o),
(468,429,o),
(349,429,cs),
(167,429,o),
(45,324,o),
(45,188,cs)
);
}
);
width = 693;
},
{
associatedMasterId = m002;
layerId = "876690AD-B86E-4255-BFC2-A64D5615ADE4";
name = "Mar 20 18, 23:42";
shapes = (
{
closed = 1;
nodes = (
(45,46,o),
(184,-20,o),
(328,-20,cs),
(457,-20,o),
(555,33,o),
(638,118,c),
(623,126,l),
(549,56,o),
(457,33,o),
(365,33,cs),
(241,33,o),
(110,80,o),
(110,214,cs),
(110,311,o),
(200,392,o),
(328,392,cs),
(431,392,o),
(499,373,o),
(556,336,c),
(564,207,l),
(570,205,l),
(630,298,l),
(567,378,o),
(468,429,o),
(349,429,cs),
(167,429,o),
(45,316,o),
(45,188,cs)
);
}
);
width = 693;
},
{
associatedMasterId = m002;
layerId = "EBB0EE40-C0E3-43E3-A25C-11EEF5D4FDFF";
name = "Mar 16 18, 15:18";
shapes = (
{
closed = 1;
nodes = (
(15,85,o),
(53,-10,o),
(139,-10,cs),
(213,-10,o),
(250,54,o),
(259,135,c),
(248,139,l),
(238,74,o),
(205,26,o),
(160,26,cs),
(67,26,o),
(67,149,o),
(67,225,cs),
(67,319,o),
(106,374,o),
(142,374,cs),
(162,374,o),
(202,372,o),
(241,335,c),
(256,341,l),
(236,371,o),
(203,410,o),
(146,410,cs),
(64,410,o),
(15,326,o),
(15,185,cs)
);
},
{
closed = 1;
nodes = (
(207,267,l),
(211,265,l),
(256,341,l),
(215,357,l)
);
}
);
width = 280;
},
{
associatedMasterId = m003;
layerId = "579CF9F3-5E11-480D-B4FE-4E251C030AF0";
name = "Extended Mar 20 18, 21:46";
shapes = (
{
closed = 1;
nodes = (
(45,46,o),
(184,-20,o),
(328,-20,cs),
(457,-20,o),
(555,33,o),
(638,118,c),
(623,126,l),
(549,56,o),
(457,33,o),
(365,33,cs),
(241,33,o),
(110,80,o),
(110,214,cs),
(110,319,o),
(200,392,o),
(328,392,cs),
(431,392,o),
(507,376,o),
(564,339,c),
(572,210,l),
(578,208,l),
(638,301,l),
(575,381,o),
(468,429,o),
(349,429,cs),
(167,429,o),
(45,324,o),
(45,188,cs)
);
}
);
width = 693;
},
{
anchors = (
{
name = bottom;
pos = (227,0);
},
{
name = top;
pos = (207,400);
}
);
layerId = m003;
shapes = (
{
closed = 1;
nodes = (
(344,84,l),
(307,44,o),
(271,27,o),
(236,27,cs),
(169,27,o),
(99,95,o),
(99,219,cs),
(99,332,o),
(144,388,o),
(208,388,cs),
(244,388,o),
(264,383,o),
(277,376,c),
(297,275,l),
(305,273,l),
(341,399,l),
(309,413,o),
(256,422,o),
(225,422,cs),
(109,422,o),
(29,331,o),
(29,200,cs),
(29,70,o),
(101,-20,o),
(205,-20,cs),
(265,-20,o),
(309,11,o),
(356,76,c)
);
}
);
width = 374;
},
{
associatedMasterId = m003;
layerId = "7395FBDB-B192-47ED-A556-822B47325A3A";
name = "Mar 20 18, 23:42";
shapes = (
{
closed = 1;
nodes = (
(45,46,o),
(184,-20,o),
(328,-20,cs),
(457,-20,o),
(555,33,o),
(638,118,c),
(623,126,l),
(549,56,o),
(457,33,o),
(365,33,cs),
(241,33,o),
(110,80,o),
(110,214,cs),
(110,311,o),
(200,392,o),
(328,392,cs),
(431,392,o),
(499,373,o),
(556,336,c),
(564,207,l),
(570,205,l),
(630,298,l),
(567,378,o),
(468,429,o),
(349,429,cs),
(167,429,o),
(45,316,o),
(45,188,cs)
);
}
);
width = 693;
},
{
associatedMasterId = m003;
layerId = "18138CEA-202B-422A-91FA-961E227AA4C6";
name = "Extended Mar 20 18, 21:46";
shapes = (
{
closed = 1;
nodes = (
(45,46,o),
(184,-20,o),
(328,-20,cs),
(457,-20,o),
(555,33,o),
(638,118,c),
(623,126,l),
(549,56,o),
(457,33,o),
(365,33,cs),
(241,33,o),
(110,80,o),
(110,214,cs),
(110,319,o),
(200,392,o),
(328,392,cs),
(431,392,o),
(507,376,o),
(564,339,c),
(572,210,l),
(578,208,l),
(638,301,l),
(575,381,o),
(468,429,o),
(349,429,cs),
(167,429,o),
(45,324,o),
(45,188,cs)
);
}
);
width = 693;
},
{
associatedMasterId = m003;
layerId = "F6F9F9E9-D06A-4636-BBCD-6CEB77817526";
name = "Mar 20 18, 23:42";
shapes = (
{
closed = 1;
nodes = (
(45,46,o),
(184,-20,o),
(328,-20,cs),
(457,-20,o),
(555,33,o),
(638,118,c),
(623,126,l),
(549,56,o),
(457,33,o),
(365,33,cs),
(241,33,o),
(110,80,o),
(110,214,cs),
(110,311,o),
(200,392,o),
(328,392,cs),
(431,392,o),
(499,373,o),
(556,336,c),
(564,207,l),
(570,205,l),
(630,298,l),
(567,378,o),
(468,429,o),
(349,429,cs),
(167,429,o),
(45,316,o),
(45,188,cs)
);
}
);
width = 693;
},
{
associatedMasterId = m003;
layerId = "65EB53F8-34A1-4204-A568-ACB790342DF6";
name = "Mar 16 18, 15:18";
shapes = (
{
closed = 1;
nodes = (
(15,85,o),
(53,-10,o),
(139,-10,cs),
(213,-10,o),
(250,54,o),
(259,135,c),
(248,139,l),
(238,74,o),
(205,26,o),
(160,26,cs),
(67,26,o),
(67,149,o),
(67,225,cs),
(67,319,o),
(106,374,o),
(142,374,cs),
(162,374,o),
(202,372,o),
(241,335,c),
(256,341,l),
(236,371,o),
(203,410,o),
(146,410,cs),
(64,410,o),
(15,326,o),
(15,185,cs)
);
},
{
closed = 1;
nodes = (
(207,267,l),
(211,265,l),
(256,341,l),
(215,357,l)
);
}
);
width = 280;
},
{
anchors = (
{
name = bottom;
pos = (212,0);
},
{
name = top;
pos = (192,400);
}
);
layerId = "2C26E880-80A5-4D19-8A94-7D905A372841";
shapes = (
{
closed = 1;
nodes = (
(330,70,l),
(296,32,o),
(254,7,o),
(208,7,cs),
(130,7,o),
(71,86,o),
(69,202,cs),
(68,316,o),
(121,388,o),
(203,388,cs),
(228,388,o),
(249,384,o),
(262,375,c),
(282,270,l),
(290,268,l),
(315,393,l),
(285,405,o),
(258,412,o),
(210,412,cs),
(99,412,o),
(31,328,o),
(34,195,cs),
(37,64,o),
(100,-20,o),
(195,-20,cs),
(252,-20,o),
(305,10,o),
(342,62,c)
);
}
);
width = 369;
},
{
anchors = (
{
name = bottom;
pos = (359,0);
},
{
name = top;
pos = (339,410);
}
);
associatedMasterId = m002;
layerId = "543A73D5-CDEA-4F2B-9961-B49E22AAD5CA";
name = "24 Sep 22, 16:23";
shapes = (
{
closed = 1;
nodes = (
(603,114,l),
(533,66,o),
(456,43,o),
(361,43,cs),
(202,43,o),
(113,106,o),
(113,219,cs),
(113,329,o),
(197,391,o),
(336,391,cs),
(410,391,o),
(475,382,o),
(531,364,c),
(551,253,l),
(559,251,l),
(609,407,l),
(532,423,o),
(459,435,o),
(359,435,cs),
(177,435,o),
(26,325,o),
(26,187,cs),
(26,64,o),
(144,-20,o),
(316,-20,cs),
(427,-20,o),
(514,15,o),
(616,100,c)
);
}
);
width = 652;
}
);
metricLeft = o;
unicode = 99;
},
{
glyphname = d;
kernLeft = o;
kernRight = d;
layers = (
{
anchors = (
{
name = bottom;
pos = (373,0);
},
{
name = center;
pos = (373,205);
},
{
name = top;
pos = (373,700);
},
{
name = topright;
pos = (712,700);
}
);
layerId = "0CCC0E2D-406A-4672-8E6C-854B1DF78A27";
shapes = (
{
closed = 1;
nodes = (
(39,67,o),
(150,-20,o),
(308,-20,cs),
(395,-20,o),
(491,8,o),
(567,65,c),
(567,-13,l),
(745,63,l),
(743,71,l),
(606,61,l),
(606,711,l),
(416,640,l),
(420,632,l),
(567,640,l),
(567,368,l),
(506,403,o),
(433,421,o),
(351,421,cs),
(167,421,o),
(39,326,o),
(39,191,cs)
);
},
{
closed = 1;
nodes = (
(567,100,l),
(512,46,o),
(413,11,o),
(323,11,cs),
(182,11,o),
(78,92,o),
(78,203,cs),
(78,314,o),
(184,392,o),
(337,392,cs),
(424,392,o),
(512,369,o),
(567,330,c)
);
}
);
width = 734;
},
{
anchors = (
{
name = bottom;
pos = (386,0);
},
{
name = center;
pos = (386,205);
},
{
name = top;
pos = (386,700);
},
{
name = topright;
pos = (725,700);
}
);
layerId = m002;
shapes = (
{
closed = 1;
nodes = (
(26,68,o),
(136,-20,o),
(282,-20,cs),
(379,-20,o),
(486,18,o),
(563,79,c),
(563,-13,l),
(786,63,l),
(784,71,l),
(647,61,l),
(647,725,l),
(410,640,l),
(414,632,l),
(561,640,l),
(561,389,l),
(509,417,o),
(440,435,o),
(379,435,cs),
(179,435,o),
(26,327,o),
(26,185,cs)
);
},
{
closed = 1;
nodes = (
(561,129,l),
(489,61,o),
(414,30,o),
(321,30,cs),
(190,30,o),
(113,99,o),
(113,217,cs),
(113,320,o),
(208,393,o),
(344,393,cs),
(430,393,o),
(516,365,o),
(561,322,c)
);
}
);
width = 761;
},
{
anchors = (
{
name = bottom;
pos = (116,0);
},
{
name = center;
pos = (114,205);
},
{
name = top;
pos = (129,690);
},
{
name = topright;
pos = (437,690);
}
);
layerId = m003;
shapes = (
{
closed = 1;
nodes = (
(29,65,o),
(92,-20,o),
(184,-20,cs),
(231,-20,o),
(269,2,o),
(300,48,c),
(300,-13,l),
(479,59,l),
(477,67,l),
(370,57,l),
(370,712,l),
(186,635,l),
(190,627,l),
(297,635,l),
(297,391,l),
(273,411,o),
(243,422,o),
(215,422,cs),
(110,422,o),
(29,316,o),
(29,186,cs)
);
},
{
closed = 1;
nodes = (
(297,90,l),
(273,48,o),
(242,27,o),
(209,27,cs),
(144,27,o),
(102,102,o),
(102,214,cs),
(102,318,o),
(141,382,o),
(208,382,cs),
(241,382,o),
(276,368,o),
(297,346,c)
);
}
);
width = 457;
},
{
anchors = (
{
name = bottom;
pos = (166,0);
},
{
name = center;
pos = (175,205);
},
{
name = top;
pos = (113,690);
},
{
name = topright;
pos = (377,690);
}
);
layerId = "2C26E880-80A5-4D19-8A94-7D905A372841";
shapes = (
{
closed = 1;
nodes = (
(34,56,o),
(93,-20,o),
(188,-20,cs),
(237,-20,o),
(273,-2,o),
(297,28,c),
(297,-13,l),
(440,53,l),
(438,61,l),
(331,51,l),
(331,702,l),
(186,635,l),
(190,627,l),
(297,635,l),
(297,387,l),
(271,401,o),
(234,412,o),
(200,412,cs),
(102,412,o),
(34,342,o),
(34,191,cs)
);
},
{
closed = 1;
nodes = (
(297,65,l),
(270,23,o),
(234,7,o),
(194,7,cs),
(119,7,o),
(68,82,o),
(68,204,cs),
(68,319,o),
(115,386,o),
(197,386,cs),
(231,386,o),
(270,373,o),
(297,355,c)
);
}
);
width = 429;
}
);
metricLeft = o;
unicode = 100;
},
{
glyphname = eth;
kernLeft = o;
layers = (
{
background = {
shapes = (
{
closed = 1;
nodes = (
(524,-20,o),
(650,70,o),
(650,196,cs),
(650,334,o),
(533,420,o),
(346,420,cs),
(168,420,o),
(40,327,o),
(40,198,cs),
(40,64,o),
(159,-20,o),
(348,-20,cs)
);
},
{
closed = 1;
nodes = (
(189,4,o),
(77,85,o),
(77,209,cs),
(77,319,o),
(184,396,o),
(336,396,cs),
(504,396,o),
(613,313,o),
(613,186,cs),
(613,79,o),
(508,4,o),
(359,4,cs)
);
}
);
};
layerId = "0CCC0E2D-406A-4672-8E6C-854B1DF78A27";
shapes = (
{
closed = 1;
nodes = (
(265,526,l),
(623,620,l),
(615,645,l),
(259,550,l)
);
},
{
closed = 1;
nodes = (
(175,694,l),
(440,624,o),
(611,444,o),
(611,221,cs),
(611,82,o),
(493,5,o),
(362,5,cs),
(182,5,o),
(80,94,o),
(80,220,cs),
(80,320,o),
(192,393,o),
(326,397,cs),
(459,401,o),
(561,353,o),
(617,274,c),
(630,312,l),
(565,389,o),
(464,421,o),
(340,421,cs),
(172,421,o),
(39,329,o),
(39,202,cs),
(39,67,o),
(154,-20,o),
(348,-20,cs),
(531,-20,o),
(650,78,o),
(650,248,cs),
(650,445,o),
(451,660,o),
(180,711,c)
);
}
);
width = 699;
},
{
associatedMasterId = "0CCC0E2D-406A-4672-8E6C-854B1DF78A27";
background = {
shapes = (
{
closed = 1;
nodes = (
(50,70,o),
(185,-20,o),
(376,-20,cs),
(580,-20,o),
(700,90,o),
(700,256,cs),
(700,372,o),
(640,469,o),
(548,530,c),
(624,559,l),
(612,585,l),
(517,549,l),
(456,582,o),
(385,600,o),
(309,600,c),
(309,577,l),
(365,577,o),
(418,559,o),
(465,529,c),
(366,491,l),
(380,466,l),
(493,509,l),
(546,466,o),
(588,407,o),
(610,339,c),
(562,394,o),
(465,430,o),
(368,430,cs),
(176,430,o),
(50,344,o),
(50,198,cs)
);
},
{
closed = 1;
nodes = (
(122,333,o),
(209,393,o),
(346,397,cs),
(460,400,o),
(595,346,o),
(628,242,c),
(628,238,o),
(628,235,o),
(628,231,cs),
(628,101,o),
(547,13,o),
(409,13,cs),
(241,13,o),
(122,100,o),
(122,224,cs)
);
}
);
};
layerId = "82DBDF08-0A78-4A86-8FA6-C20A6593B5F4";
name = "10 Jan 22, 17:44";
shapes = (
{
closed = 1;
nodes = (
(358,477,l),
(638,551,l),
(629,580,l),
(351,505,l)
);
},
{
closed = 1;
nodes = (
(323,577,l),
(495,563,o),
(626,401,o),
(626,231,cs),
(626,101,o),
(547,13,o),
(409,13,cs),
(241,13,o),
(122,100,o),
(122,224,cs),
(122,333,o),
(209,393,o),
(346,397,cs),
(454,400,o),
(588,351,o),
(637,230,c),
(645,307,l),
(565,405,o),
(460,430,o),
(368,430,cs),
(176,430,o),
(50,344,o),
(50,198,cs),
(50,70,o),
(185,-20,o),
(376,-20,cs),
(580,-20,o),
(700,90,o),
(700,256,cs),
(700,454,o),
(522,589,o),
(328,600,c)
);
}
);
width = 770;
},
{
background = {
shapes = (
{
closed = 1;
nodes = (
(544,-20,o),
(680,75,o),
(680,206,cs),
(680,343,o),
(558,430,o),
(358,430,cs),
(170,430,o),
(30,334,o),
(30,198,cs),
(30,67,o),
(160,-20,o),
(356,-20,cs)
);
},
{
closed = 1;
nodes = (
(214,13,o),
(102,95,o),
(102,224,cs),
(102,323,o),
(207,397,o),
(336,397,cs),
(511,397,o),
(608,318,o),
(608,181,cs),
(608,87,o),
(507,13,o),
(379,13,cs)
);
}
);
};
layerId = m002;
shapes = (
{
closed = 1;
nodes = (
(280,526,l),
(638,620,l),
(628,652,l),
(272,557,l)
);
},
{
closed = 1;
nodes = (
(188,699,l),
(423,643,o),
(605,442,o),
(605,237,cs),
(605,101,o),
(527,24,o),
(390,24,cs),
(230,24,o),
(115,109,o),
(115,227,cs),
(115,334,o),
(189,393,o),
(326,397,cs),
(475,401,o),
(581,337,o),
(618,220,c),
(643,326,l),
(567,402,o),
(479,435,o),
(353,435,cs),
(157,435,o),
(26,339,o),
(26,196,cs),
(26,67,o),
(162,-20,o),
(361,-20,cs),
(556,-20,o),
(691,101,o),
(691,276,cs),
(691,481,o),
(481,671,o),
(193,725,c)
);
}
);
width = 727;
},
{
associatedMasterId = m002;
background = {
shapes = (
{
closed = 1;
nodes = (
(50,70,o),
(185,-20,o),
(376,-20,cs),
(580,-20,o),
(700,90,o),
(700,256,cs),
(700,372,o),
(640,469,o),
(548,530,c),
(624,559,l),
(612,585,l),
(517,549,l),
(456,582,o),
(385,600,o),
(309,600,c),
(309,577,l),
(365,577,o),
(418,559,o),
(465,529,c),
(366,491,l),
(380,466,l),
(493,509,l),
(546,466,o),
(588,407,o),
(610,339,c),
(562,394,o),
(465,430,o),
(368,430,cs),
(176,430,o),
(50,344,o),
(50,198,cs)
);
},
{
closed = 1;
nodes = (
(122,333,o),
(209,393,o),
(346,397,cs),
(460,400,o),
(595,346,o),
(628,242,c),
(628,238,o),
(628,235,o),
(628,231,cs),
(628,101,o),
(547,13,o),
(409,13,cs),
(241,13,o),
(122,100,o),
(122,224,cs)
);
}
);
};
layerId = "18BADE3D-AD96-43C4-B0E1-6C6D53F212BF";
name = "10 Jan 22, 17:44";
shapes = (
{
closed = 1;
nodes = (
(358,477,l),
(638,551,l),
(629,580,l),
(351,505,l)
);
},
{
closed = 1;
nodes = (
(323,577,l),
(495,563,o),
(626,401,o),
(626,231,cs),
(626,101,o),
(547,13,o),
(409,13,cs),
(241,13,o),
(122,100,o),
(122,224,cs),
(122,333,o),
(209,393,o),
(346,397,cs),
(454,400,o),
(588,351,o),
(637,230,c),
(645,307,l),
(565,405,o),
(460,430,o),
(368,430,cs),
(176,430,o),
(50,344,o),
(50,198,cs),
(50,70,o),
(185,-20,o),
(376,-20,cs),
(580,-20,o),
(700,90,o),
(700,256,cs),
(700,454,o),
(522,589,o),
(328,600,c)
);
}
);
width = 770;
},
{
layerId = m003;
shapes = (
{
closed = 1;
nodes = (
(140,480,l),
(384,630,l),
(366,656,l),
(123,505,l)
);
},
{
closed = 1;
nodes = (
(126,699,l),
(237,637,o),
(313,444,o),
(313,223,cs),
(313,78,o),
(285,15,o),
(221,15,cs),
(143,15,o),
(104,81,o),
(104,215,cs),
(104,337,o),
(130,387,o),
(192,387,cs),
(262,387,o),
(317,322,o),
(324,231,c),
(347,323,l),
(314,389,o),
(267,422,o),
(204,422,cs),
(102,422,o),
(29,328,o),
(29,197,cs),
(29,71,o),
(104,-20,o),
(208,-20,cs),
(315,-20,o),
(389,87,o),
(389,240,cs),
(389,432,o),
(267,662,o),
(139,712,c)
);
}
);
width = 411;
},
{
associatedMasterId = m003;
background = {
shapes = (
{
closed = 1;
nodes = (
(50,70,o),
(185,-20,o),
(376,-20,cs),
(580,-20,o),
(700,90,o),
(700,256,cs),
(700,372,o),
(640,469,o),
(548,530,c),
(624,559,l),
(612,585,l),
(517,549,l),
(456,582,o),
(385,600,o),
(309,600,c),
(309,577,l),
(365,577,o),
(418,559,o),
(465,529,c),
(366,491,l),
(380,466,l),
(493,509,l),
(546,466,o),
(588,407,o),
(610,339,c),
(562,394,o),
(465,430,o),
(368,430,cs),
(176,430,o),
(50,344,o),
(50,198,cs)
);
},
{
closed = 1;
nodes = (
(122,333,o),
(209,393,o),
(346,397,cs),
(460,400,o),
(595,346,o),
(628,242,c),
(628,238,o),
(628,235,o),
(628,231,cs),
(628,101,o),
(547,13,o),
(409,13,cs),
(241,13,o),
(122,100,o),
(122,224,cs)
);
}
);
};
layerId = "5C8AE2EE-D9EE-4198-A6A4-56D01028C933";
name = "10 Jan 22, 17:44";
shapes = (
{
closed = 1;
nodes = (
(358,477,l),
(638,551,l),
(629,580,l),
(351,505,l)
);
},
{
closed = 1;
nodes = (
(323,577,l),
(495,563,o),
(626,401,o),
(626,231,cs),
(626,101,o),
(547,13,o),
(409,13,cs),
(241,13,o),
(122,100,o),
(122,224,cs),
(122,333,o),
(209,393,o),
(346,397,cs),
(454,400,o),
(588,351,o),
(637,230,c),
(645,307,l),
(565,405,o),
(460,430,o),
(368,430,cs),
(176,430,o),
(50,344,o),
(50,198,cs),
(50,70,o),
(185,-20,o),
(376,-20,cs),
(580,-20,o),
(700,90,o),
(700,256,cs),
(700,454,o),
(522,589,o),
(328,600,c)
);
}
);
width = 770;
},
{
background = {
shapes = (
{
closed = 1;
nodes = (
(283,-20,o),
(340,58,o),
(340,198,cs),
(340,336,o),
(288,411,o),
(193,411,cs),
(92,411,o),
(36,333,o),
(36,193,cs),
(36,56,o),
(89,-20,o),
(183,-20,cs)
);
},
{
closed = 1;
nodes = (
(112,5,o),
(66,76,o),
(66,200,cs),
(66,321,o),
(108,386,o),
(185,386,cs),
(265,386,o),
(310,315,o),
(310,191,cs),
(310,71,o),
(268,5,o),
(191,5,cs)
);
}
);
};
layerId = "2C26E880-80A5-4D19-8A94-7D905A372841";
shapes = (
{
closed = 1;
nodes = (
(119,480,l),
(363,630,l),
(346,651,l),
(104,500,l)
);
},
{
closed = 1;
nodes = (
(108,690,l),
(230,609,o),
(307,425,o),
(307,212,cs),
(307,80,o),
(268,6,o),
(196,6,cs),
(115,6,o),
(69,82,o),
(69,210,cs),
(69,325,o),
(108,386,o),
(182,386,cs),
(242,386,o),
(291,345,o),
(314,272,c),
(327,313,l),
(304,377,o),
(256,412,o),
(189,412,cs),
(91,412,o),
(34,336,o),
(34,202,cs),
(34,62,o),
(91,-20,o),
(188,-20,cs),
(287,-20,o),
(345,66,o),
(345,219,cs),
(345,431,o),
(251,629,o),
(116,702,c)
);
}
);
width = 384;
}
);
metricLeft = o;
unicode = 240;
},
{
glyphname = e;
kernLeft = o;
kernRight = o;
layers = (
{
anchors = (
{
name = bottom;
pos = (324,0);
},
{
name = ogonek;
pos = (444,10);
},
{
name = top;
pos = (314,401);
}
);
layerId = "0CCC0E2D-406A-4672-8E6C-854B1DF78A27";
shapes = (
{
closed = 1;
nodes = (
(61,203,l),
(592,205,l),
(590,337,o),
(487,421,o),
(329,421,cs),
(158,421,o),
(39,330,o),
(39,199,cs),
(39,68,o),
(147,-20,o),
(309,-20,cs),
(422,-20,o),
(524,22,o),
(595,95,c),
(585,105,l),
(510,40,o),
(424,9,o),
(332,9,cs),
(184,9,o),
(81,88,o),
(78,205,cs),
(75,317,o),
(170,395,o),
(312,395,cs),
(442,395,o),
(539,329,o),
(543,236,c),
(59,220,l)
);
}
);
width = 639;
},
{
anchors = (
{
name = bottom;
pos = (337,0);
},
{
name = ogonek;
pos = (455,10);
},
{
name = top;
pos = (327,415);
}
);
background = {
shapes = (
{
closed = 1;
nodes = (
(74,203,l),
(618,196,l),
(616,335,o),
(502,430,o),
(337,430,cs),
(162,430,o),
(30,330,o),
(30,198,cs),
(30,71,o),
(148,-20,o),
(313,-20,cs),
(432,-20,o),
(536,25,o),
(622,113,c),
(609,126,l),
(544,65,o),
(450,30,o),
(350,30,cs),
(206,30,o),
(97,105,o),
(91,208,cs),
(91,322,o),
(175,396,o),
(303,396,cs),
(429,396,o),
(524,332,o),
(548,245,c),
(72,226,l)
);
}
);
};
layerId = m002;
shapes = (
{
closed = 1;
nodes = (
(82,203,l),
(633,192,l),
(631,337,o),
(514,435,o),
(342,435,cs),
(166,435,o),
(26,330,o),
(26,198,cs),
(26,75,o),
(151,-20,o),
(316,-20,cs),
(436,-20,o),
(546,29,o),
(638,123,c),
(623,138,l),
(562,77,o),
(466,42,o),
(361,42,cs),
(200,42,o),
(97,113,o),
(99,218,cs),
(100,317,o),
(188,396,o),
(299,396,cs),
(455,396,o),
(537,321,o),
(538,250,c),
(80,229,l)
);
}
);
width = 667;
},
{
anchors = (
{
name = bottom;
pos = (205,0);
},
{
name = ogonek;
pos = (273,10);
},
{
name = top;
pos = (217,402);
}
);
layerId = m003;
shapes = (
{
closed = 1;
nodes = (
(78,204,l),
(361,200,l),
(359,344,o),
(305,422,o),
(209,422,cs),
(103,422,o),
(29,330,o),
(29,198,cs),
(29,65,o),
(97,-20,o),
(205,-20,cs),
(269,-20,o),
(311,11,o),
(361,78,c),
(349,86,l),
(303,36,o),
(264,17,o),
(224,17,cs),
(152,17,o),
(97,107,o),
(97,230,cs),
(97,328,o),
(136,386,o),
(200,386,cs),
(254,386,o),
(282,341,o),
(283,243,c),
(76,227,l)
);
}
);
width = 395;
},
{
anchors = (
{
name = bottom;
pos = (190,0);
},
{
name = ogonek;
pos = (268,10);
},
{
name = top;
pos = (192,392);
}
);
layerId = "2C26E880-80A5-4D19-8A94-7D905A372841";
shapes = (
{
closed = 1;
nodes = (
(58,201,l),
(322,204,l),
(320,349,o),
(281,412,o),
(194,412,cs),
(95,412,o),
(34,331,o),
(34,199,cs),
(34,64,o),
(96,-20,o),
(195,-20,cs),
(247,-20,o),
(290,5,o),
(322,57,c),
(310,65,l),
(280,26,o),
(243,6,o),
(204,6,cs),
(119,6,o),
(71,87,o),
(68,210,cs),
(65,323,o),
(108,386,o),
(187,386,cs),
(255,386,o),
(283,340,o),
(287,227,c),
(56,222,l)
);
}
);
width = 361;
}
);
metricLeft = o;
metricRight = o;
unicode = 101;
},
